M48
;GenerationSoftware,Autodesk,EAGLE,9.6.2*%
;CreationDate,2020-09-26T22:43:06Z*%
FMAT,2
ICI,OFF
METRIC,TZ,000.000
T10C0.300
T9C0.350
T8C0.813
T7C1.000
T6C1.016
T5C1.118
T4C1.194
T3C1.500
T2C1.702
T1C2.300
%
G90
M71
T1
X75150Y5200
X62010Y5200
T2
X155194Y8230
X18034Y88494
T3
X34671Y24638
X34671Y19558
X18923Y19558
X18923Y4064
X34671Y4064
X34671Y-1016
X18923Y-1016
X34671Y9652
X18923Y9652
X18923Y14732
X34671Y14732
X18923Y24638
T4
X9017Y5802
X9017Y802
X154940Y63540
X154940Y68540
X131699Y94488
X126619Y94488
X121539Y94488
X116459Y94488
T5
X127635Y80264
X127635Y85725
X125095Y80264
X122555Y80264
X125095Y85725
X122555Y85725
X142875Y85725
X140335Y85725
X137795Y85725
X142875Y80264
X140335Y80264
X137795Y80264
T6
X142240Y52070
X92710Y87630
X129413Y4064
X18034Y33782
X23114Y33782
X12319Y70358
X17399Y70358
X141351Y95250
X141351Y92710
X138811Y95250
X138811Y92710
X131953Y4064
X134493Y4064
X120523Y4064
X123063Y4064
X125603Y4064
X112014Y4064
X114554Y4064
X117094Y4064
X53975Y48387
X56515Y48387
X134493Y8636
X59055Y48387
X61595Y48387
X64135Y48387
X152400Y54610
X149860Y54610
X147320Y54610
X144780Y54610
X142240Y54610
X139700Y54610
X152400Y52070
X149860Y52070
X147320Y52070
X144780Y52070
X139700Y52070
X129413Y8636
X131953Y8636
X120650Y8636
X123190Y8636
X125730Y8636
X111633Y8509
X114173Y8509
X116713Y8509
X153670Y95250
X153670Y92710
X151130Y95250
X151130Y92710
X151638Y16764
X151638Y14224
X138430Y3810
X140970Y3810
X143510Y3810
X50114Y8992
X50114Y4470
X43612Y8992
X43612Y4470
X138430Y8001
X140970Y8001
X143510Y8001
X121666Y58293
X124206Y58293
X126746Y58293
X129286Y58293
X45720Y15240
X48260Y15240
X50800Y15240
X45720Y17780
X48260Y17780
X50800Y17780
X95250Y62230
X92710Y62230
X90170Y62230
X87630Y62230
X85090Y62230
X82550Y62230
X95250Y59690
X92710Y59690
X90170Y59690
X87630Y59690
X85090Y59690
X82550Y59690
X80010Y62230
X77470Y62230
X80010Y59690
X77470Y59690
X77470Y87630
X80010Y87630
X82550Y87630
X85090Y87630
X87630Y87630
X90170Y87630
X77470Y90170
X80010Y90170
X82550Y90170
X85090Y90170
X87630Y90170
X90170Y90170
X95250Y87630
X92710Y90170
X90170Y93980
X87630Y93980
X85090Y93980
X82550Y93980
X95250Y90170
T7
X146050Y39370
X140970Y39370
X140970Y41910
X143510Y39370
X143510Y41910
X151130Y41910
X146050Y41910
X148590Y39370
X148590Y41910
X151130Y39370
X35433Y93091
X141224Y29337
X143764Y26797
X143764Y29337
X99060Y8890
X96520Y8890
X96520Y11430
X99060Y11430
X101600Y11430
X93980Y11430
X93980Y8890
X43942Y93218
X41402Y93218
X151384Y26797
X141224Y26797
X151384Y29337
X148844Y29337
X148844Y26797
X146304Y29337
X146304Y26797
X29718Y93091
X32258Y93091
X101600Y8890
X37973Y93091
T8
X53213Y35433
X58039Y35433
X143510Y16002
X31750Y55118
X31750Y60198
X146050Y16002
X36830Y50038
X31750Y57658
X135890Y16002
X138430Y16002
X39370Y50038
X140970Y16002
T9
X76073Y46990
T10
X86995Y79375
X64135Y78581
X86995Y80328
X71596Y76835
X75248Y76676
X86836Y68104
X85662Y67850
X81598Y70168
X90170Y37465
X69533Y70326
X79534Y74771
X90964Y75089
X55086Y79851
X79788Y52673
X81788Y37846
X75724Y46037
X75724Y45085
X81026Y36616
X83348Y42001
X139700Y43180
X136017Y40132
X84074Y41529
X84519Y40831
X85217Y40132
X86487Y40791
X138938Y26543
X85852Y26670
X40400Y58060
X131445Y63119
X152591Y8446
X98679Y37846
X99949Y37592
X80010Y30480
X101092Y37465
X143764Y24257
X139954Y24281
X80899Y29210
X96647Y38862
X73533Y33274
X72644Y33274
X64452Y15240
X69469Y44069
X81280Y44831
X88594Y46355
X82062Y51181
X91313Y45593
X68072Y50866
X138176Y76515
X128270Y33973
X37020Y45974
X36896Y41275
X125730Y33973
X123190Y33973
X120650Y33973
X118110Y33973
X128422Y30683
X131953Y24511
X92329Y73597
X90551Y24257
X130810Y25400
X91186Y25146
X133604Y53848
X81407Y53594
X134747Y52070
X82296Y52578
X89281Y28448
X65837Y17882
X60960Y21742
X72009Y16129
X82689Y19050
X91694Y39497
X71247Y34671
X30416Y84328
X41719Y84201
X36004Y84328
X71374Y42823
X80264Y39878
X40640Y82550
X67945Y42230
X51308Y42545
X37719Y77978
X32065Y80010
X32068Y84328
X37719Y84201
X43371Y84201
X26670Y36830
X26670Y35560
X26670Y34290
X26670Y33020
X26670Y31750
X26670Y30480
X48284Y42545
X38672Y45974
X38862Y41148
X60198Y25273
X110744Y19304
X64294Y13335
X129857Y18891
X132715Y20320
X115729Y18891
X123698Y72263
X127635Y72136
X120015Y66167
X126111Y74615
X121031Y61468
X125984Y71308
X122936Y68199
X138176Y74615
X122936Y66040
X138176Y69535
X76327Y38001
X83185Y51816
X68072Y52766
X67945Y37912
X91630Y36036
X90805Y38735
X87820Y51816
X90329Y46926
X87344Y36576
X81756Y30480
X76073Y36322
X74930Y35659
X128270Y32321
X131445Y15018
X125730Y32321
X124358Y15240
X124358Y25197
X124358Y27026
X123139Y29261
X115011Y25197
X123190Y32321
X124206Y30607
X120523Y28001
X116840Y25197
X120650Y32321
X114481Y31506
X114173Y29264
X127381Y46228
X91948Y46355
X87122Y3556
X101981Y28829
X86999Y27686
X118110Y32321
X115951Y32293
X118110Y28001
X101981Y32893
X89860Y34600
X101981Y31917
X89828Y29083
X101981Y30881
X88519Y36322
X101981Y29845
X87376Y34671
X91122Y56515
X76676Y76200
X117602Y59309
X88900Y57150
X86360Y50927
X84328Y51181
X80613Y46196
X96139Y51435
X92964Y51709
X92964Y50292
X93599Y51054
X77946Y76200
X104140Y76518
X82233Y76518
X87947Y64452
X87947Y63500
X80963Y69533
X87630Y65723
X89217Y69533
X83503Y63500
X83344Y65564
X87471Y85884
X60642Y82074
X56674Y76200
X62865Y78264
X88582Y80010
X63500Y75724
X61595Y76359
X81121Y88424
X57626Y76200
X82550Y83185
X60801Y75248
X88582Y77788
X85408Y83979
X58579Y76359
X89376Y78264
X73660Y78581
X82074Y79534
X63341Y76835
X83185Y79375
X74295Y72390
X71596Y72390
X70326Y69215
X77629Y69533
X80645Y77153
X79534Y76359
X83979Y82709
X85249Y81598
X55880Y74009
X53340Y76676
X61912Y80804
M30