G04 EAGLE Gerber RS-274X export*
G75*
%MOMM*%
%FSLAX34Y34*%
%LPD*%
%INSoldermask Top*%
%IPPOS*%
%AMOC8*
5,1,8,0,0,1.08239X$1,22.5*%
G01*
%ADD10R,1.703200X1.503200*%
%ADD11R,1.103200X1.053200*%
%ADD12R,1.053200X1.103200*%
%ADD13R,0.903200X1.103200*%
%ADD14R,1.503200X1.703200*%
%ADD15C,2.743200*%
%ADD16P,2.969212X8X22.500000*%
%ADD17R,1.203200X1.303200*%
%ADD18R,1.103200X0.903200*%
%ADD19P,1.869504X8X202.500000*%
%ADD20R,2.003200X2.403200*%
%ADD21R,2.203200X1.303200*%
%ADD22R,1.003200X1.003200*%
%ADD23C,1.703200*%
%ADD24C,1.727200*%
%ADD25P,4.343848X8X22.500000*%
%ADD26P,4.343848X8X202.500000*%
%ADD27C,1.993900*%
%ADD28R,1.653200X0.453200*%
%ADD29R,0.453200X1.653200*%
%ADD30R,5.203200X5.203200*%
%ADD31R,1.153200X2.353200*%
%ADD32R,3.453200X2.353200*%
%ADD33R,10.613200X11.003200*%
%ADD34R,2.362200X1.270000*%
%ADD35R,5.603200X3.103200*%
%ADD36R,2.403200X2.203200*%
%ADD37R,2.203200X2.403200*%
%ADD38P,1.539592X8X202.500000*%
%ADD39R,1.092200X2.387600*%
%ADD40R,5.664200X5.816600*%
%ADD41R,0.653200X0.723200*%
%ADD42R,2.723200X0.953200*%
%ADD43R,1.953200X0.723200*%
%ADD44R,1.103200X1.003200*%
%ADD45C,1.422400*%
%ADD46R,1.803200X2.006200*%
%ADD47R,2.006200X1.803200*%
%ADD48C,1.422400*%
%ADD49C,0.425956*%
%ADD50R,1.458200X1.309200*%
%ADD51C,1.727200*%
%ADD52P,1.869504X8X22.500000*%
%ADD53R,2.514600X1.803400*%
%ADD54C,2.755900*%
%ADD55C,1.703200*%
%ADD56R,1.703200X1.703200*%
%ADD57R,1.828200X0.483200*%
%ADD58R,0.483200X1.828200*%
%ADD59R,0.803200X1.353200*%
%ADD60R,1.358900X0.508000*%
%ADD61R,1.879600X1.879600*%
%ADD62C,1.879600*%
%ADD63R,1.323200X4.203200*%
%ADD64C,2.503200*%
%ADD65C,0.808000*%
%ADD66C,0.858000*%


D10*
X1028700Y791600D03*
X1028700Y808600D03*
D11*
X930910Y777960D03*
X930910Y766360D03*
X957580Y795570D03*
X957580Y807170D03*
X1054100Y794300D03*
X1054100Y805900D03*
D12*
X824780Y847090D03*
X836380Y847090D03*
X799380Y802640D03*
X810980Y802640D03*
X779060Y847090D03*
X790660Y847090D03*
D11*
X930910Y807170D03*
X930910Y795570D03*
D13*
X1009500Y762000D03*
X1022500Y762000D03*
D14*
X782930Y142240D03*
X763930Y142240D03*
D10*
X1003300Y791600D03*
X1003300Y808600D03*
D14*
X650900Y217170D03*
X669900Y217170D03*
D10*
X537210Y76810D03*
X537210Y57810D03*
D14*
X301650Y877570D03*
X320650Y877570D03*
X357530Y877570D03*
X376530Y877570D03*
X415950Y873760D03*
X434950Y873760D03*
X387960Y693420D03*
X368960Y693420D03*
X384150Y535940D03*
X365150Y535940D03*
X387960Y412750D03*
X368960Y412750D03*
D15*
X180340Y337820D03*
D16*
X231140Y337820D03*
D14*
X285140Y414020D03*
X304140Y414020D03*
D17*
X956310Y748420D03*
X956310Y765420D03*
D15*
X123190Y703580D03*
D16*
X173990Y703580D03*
D14*
X273660Y532130D03*
X254660Y532130D03*
X1317650Y793750D03*
X1336650Y793750D03*
X866800Y162560D03*
X885800Y162560D03*
X838810Y162560D03*
X819810Y162560D03*
D10*
X679450Y464210D03*
X679450Y483210D03*
X982980Y361290D03*
X982980Y342290D03*
D14*
X991260Y547370D03*
X1010260Y547370D03*
X887070Y549910D03*
X868070Y549910D03*
D10*
X680720Y508660D03*
X680720Y527660D03*
D11*
X988060Y762720D03*
X988060Y751120D03*
D10*
X679450Y422300D03*
X679450Y441300D03*
X568960Y262280D03*
X568960Y281280D03*
X533400Y262280D03*
X533400Y281280D03*
X977900Y791600D03*
X977900Y808600D03*
D11*
X1074420Y794300D03*
X1074420Y805900D03*
D18*
X715010Y778360D03*
X715010Y791360D03*
D14*
X1425600Y121920D03*
X1444600Y121920D03*
X968400Y50800D03*
X987400Y50800D03*
D19*
X1413510Y952500D03*
X1413510Y927100D03*
X1388110Y952500D03*
X1388110Y927100D03*
D20*
X218340Y274320D03*
X269340Y274320D03*
D21*
X287140Y441960D03*
D22*
X306140Y441960D03*
D23*
X1409700Y393700D03*
X1409700Y419100D03*
X1435100Y393700D03*
X1435100Y419100D03*
X1460500Y393700D03*
X1460500Y419100D03*
X1485900Y393700D03*
X1485900Y419100D03*
X1511300Y393700D03*
X1511300Y419100D03*
X1412240Y267970D03*
X1412240Y293370D03*
X1437640Y267970D03*
X1437640Y293370D03*
X1463040Y267970D03*
X1463040Y293370D03*
X1488440Y267970D03*
X1488440Y293370D03*
X1513840Y267970D03*
X1513840Y293370D03*
D19*
X1524000Y546100D03*
X1498600Y546100D03*
X1473200Y546100D03*
X1447800Y546100D03*
X1422400Y546100D03*
X1397000Y546100D03*
X1524000Y520700D03*
X1498600Y520700D03*
X1473200Y520700D03*
X1447800Y520700D03*
X1422400Y520700D03*
X1397000Y520700D03*
D24*
X1294130Y93980D02*
X1294130Y78740D01*
X1319530Y78740D02*
X1319530Y93980D01*
X1344930Y93980D02*
X1344930Y78740D01*
X1206500Y78740D02*
X1206500Y93980D01*
X1231900Y93980D02*
X1231900Y78740D01*
X1257300Y78740D02*
X1257300Y93980D01*
X1116330Y92710D02*
X1116330Y77470D01*
X1141730Y77470D02*
X1141730Y92710D01*
X1167130Y92710D02*
X1167130Y77470D01*
D25*
X189230Y40640D03*
X346710Y40640D03*
X346710Y-10160D03*
X189230Y-10160D03*
D26*
X346710Y96520D03*
X189230Y96520D03*
X189230Y147320D03*
X346710Y147320D03*
D25*
X189230Y246380D03*
X346710Y246380D03*
X346710Y195580D03*
X189230Y195580D03*
D19*
X1536700Y952500D03*
X1536700Y927100D03*
X1511300Y952500D03*
X1511300Y927100D03*
D27*
X1540447Y635400D02*
X1558354Y635400D01*
X1558354Y685400D02*
X1540447Y685400D01*
X1316990Y935927D02*
X1316990Y953834D01*
X1266190Y953834D02*
X1266190Y935927D01*
X1215390Y935927D02*
X1215390Y953834D01*
X1164590Y953834D02*
X1164590Y935927D01*
D28*
X809150Y764100D03*
X809150Y759100D03*
X809150Y754100D03*
X809150Y749100D03*
X809150Y744100D03*
X809150Y739100D03*
X809150Y734100D03*
X809150Y729100D03*
X809150Y724100D03*
X809150Y719100D03*
X809150Y714100D03*
X809150Y709100D03*
D29*
X823400Y694850D03*
X828400Y694850D03*
X833400Y694850D03*
X838400Y694850D03*
X843400Y694850D03*
X848400Y694850D03*
X853400Y694850D03*
X858400Y694850D03*
X863400Y694850D03*
X868400Y694850D03*
X873400Y694850D03*
X878400Y694850D03*
D28*
X892650Y709100D03*
X892650Y714100D03*
X892650Y719100D03*
X892650Y724100D03*
X892650Y729100D03*
X892650Y734100D03*
X892650Y739100D03*
X892650Y744100D03*
X892650Y749100D03*
X892650Y754100D03*
X892650Y759100D03*
X892650Y764100D03*
D29*
X878400Y778350D03*
X873400Y778350D03*
X868400Y778350D03*
X863400Y778350D03*
X858400Y778350D03*
X853400Y778350D03*
X848400Y778350D03*
X843400Y778350D03*
X838400Y778350D03*
X833400Y778350D03*
X828400Y778350D03*
X823400Y778350D03*
D30*
X850900Y736600D03*
D31*
X358000Y580600D03*
X381000Y580600D03*
X404000Y580600D03*
D32*
X381000Y638600D03*
D33*
X154940Y458470D03*
D34*
X238252Y424434D03*
X238252Y441452D03*
X238252Y458470D03*
X238252Y475488D03*
X238252Y492506D03*
D24*
X1508760Y167640D02*
X1524000Y167640D01*
X1524000Y142240D02*
X1508760Y142240D01*
D35*
X154940Y632700D03*
X154940Y535700D03*
D36*
X480300Y533400D03*
X510300Y533400D03*
D37*
X713740Y458230D03*
X713740Y428230D03*
D38*
X393700Y500380D03*
X368300Y500380D03*
D39*
X1422360Y629793D03*
X1468160Y629793D03*
D40*
X1445260Y703072D03*
D24*
X1384300Y45720D02*
X1384300Y30480D01*
X1409700Y30480D02*
X1409700Y45720D01*
X1435100Y45720D02*
X1435100Y30480D01*
D27*
X99124Y58020D02*
X81217Y58020D01*
X81217Y8020D02*
X99124Y8020D01*
D41*
X597310Y692220D03*
D42*
X607060Y711620D03*
X607060Y700620D03*
D43*
X610310Y692220D03*
X610310Y720020D03*
D41*
X597310Y720020D03*
X559210Y692220D03*
D42*
X568960Y711620D03*
X568960Y700620D03*
D43*
X572210Y692220D03*
X572210Y720020D03*
D41*
X559210Y720020D03*
X619350Y800030D03*
D42*
X609600Y780630D03*
X609600Y791630D03*
D43*
X606350Y800030D03*
X606350Y772230D03*
D41*
X619350Y772230D03*
X578710Y798760D03*
D42*
X568960Y779360D03*
X568960Y790360D03*
D43*
X565710Y798760D03*
X565710Y770960D03*
D41*
X578710Y770960D03*
D44*
X650400Y269850D03*
X650400Y250850D03*
X670400Y260350D03*
D45*
X580390Y354330D03*
X532130Y354330D03*
D46*
X674120Y717550D03*
X702560Y717550D03*
D47*
X647700Y799080D03*
X647700Y770640D03*
D10*
X622300Y272390D03*
X622300Y253390D03*
D14*
X730860Y259080D03*
X711860Y259080D03*
D10*
X567690Y57810D03*
X567690Y76810D03*
X321310Y800760D03*
X321310Y819760D03*
X377190Y800760D03*
X377190Y819760D03*
X435610Y802030D03*
X435610Y821030D03*
D14*
X285140Y476250D03*
X304140Y476250D03*
D48*
X311404Y601980D02*
X323596Y601980D01*
X323596Y551180D02*
X311404Y551180D01*
X311404Y576580D02*
X323596Y576580D01*
D10*
X679450Y398120D03*
X679450Y379120D03*
D47*
X647700Y693170D03*
X647700Y721610D03*
D10*
X1381760Y695350D03*
X1381760Y714350D03*
X1259840Y713080D03*
X1259840Y694080D03*
X1261110Y746150D03*
X1261110Y765150D03*
X1381760Y746150D03*
X1381760Y765150D03*
X679450Y356210D03*
X679450Y337210D03*
D14*
X549300Y309880D03*
X568300Y309880D03*
X1062330Y346710D03*
X1043330Y346710D03*
D10*
X1282700Y280010D03*
X1282700Y261010D03*
D14*
X1062330Y323850D03*
X1043330Y323850D03*
D10*
X1256030Y280010D03*
X1256030Y261010D03*
D13*
X1009500Y749300D03*
X1022500Y749300D03*
D14*
X1062330Y302260D03*
X1043330Y302260D03*
D10*
X1230630Y280010D03*
X1230630Y261010D03*
D14*
X1062330Y280670D03*
X1043330Y280670D03*
D10*
X1205230Y280010D03*
X1205230Y261010D03*
D14*
X1062330Y259080D03*
X1043330Y259080D03*
D10*
X1181100Y280010D03*
X1181100Y261010D03*
X1028700Y873100D03*
X1028700Y854100D03*
D14*
X926490Y549910D03*
X945490Y549910D03*
D13*
X676760Y796290D03*
X689760Y796290D03*
X679300Y692150D03*
X692300Y692150D03*
X689760Y769620D03*
X676760Y769620D03*
D14*
X730860Y222250D03*
X711860Y222250D03*
X730860Y143510D03*
X711860Y143510D03*
D49*
X671351Y143031D02*
X664689Y143031D01*
X671351Y143031D02*
X671351Y136369D01*
X664689Y136369D01*
X664689Y143031D01*
X664689Y140416D02*
X671351Y140416D01*
X656111Y143031D02*
X649449Y143031D01*
X656111Y143031D02*
X656111Y136369D01*
X649449Y136369D01*
X649449Y143031D01*
X649449Y140416D02*
X656111Y140416D01*
D50*
X370200Y459740D03*
X386720Y459740D03*
D24*
X493522Y89916D02*
X508762Y89916D01*
X508762Y44704D02*
X493522Y44704D01*
X443738Y89916D02*
X428498Y89916D01*
X428498Y44704D02*
X443738Y44704D01*
X1384300Y72390D02*
X1384300Y87630D01*
X1409700Y87630D02*
X1409700Y72390D01*
X1435100Y72390D02*
X1435100Y87630D01*
D48*
X1358900Y153924D02*
X1358900Y166116D01*
X1384300Y166116D02*
X1384300Y153924D01*
X1409700Y153924D02*
X1409700Y166116D01*
X1435100Y166116D02*
X1435100Y153924D01*
X1460500Y153924D02*
X1460500Y166116D01*
D24*
X1216660Y575310D02*
X1216660Y590550D01*
X1242060Y590550D02*
X1242060Y575310D01*
X1267460Y575310D02*
X1267460Y590550D01*
X1292860Y590550D02*
X1292860Y575310D01*
D51*
X457200Y152400D03*
D52*
X482600Y152400D03*
X508000Y152400D03*
X457200Y177800D03*
X482600Y177800D03*
X508000Y177800D03*
D19*
X952500Y622300D03*
X927100Y622300D03*
X901700Y622300D03*
X876300Y622300D03*
X850900Y622300D03*
X825500Y622300D03*
X952500Y596900D03*
X927100Y596900D03*
X901700Y596900D03*
X876300Y596900D03*
X850900Y596900D03*
X825500Y596900D03*
X800100Y622300D03*
X774700Y622300D03*
X800100Y596900D03*
X774700Y596900D03*
D52*
X774700Y876300D03*
X800100Y876300D03*
X825500Y876300D03*
X850900Y876300D03*
X876300Y876300D03*
X901700Y876300D03*
X774700Y901700D03*
X800100Y901700D03*
X825500Y901700D03*
X850900Y901700D03*
X876300Y901700D03*
X901700Y901700D03*
X927100Y876300D03*
X952500Y876300D03*
X927100Y901700D03*
X952500Y901700D03*
D24*
X901700Y932180D02*
X901700Y947420D01*
X876300Y947420D02*
X876300Y932180D01*
X850900Y932180D02*
X850900Y947420D01*
X825500Y947420D02*
X825500Y932180D01*
D53*
X235340Y850030D03*
X235340Y875030D03*
X235340Y900030D03*
X125340Y900030D03*
X125340Y875030D03*
X125340Y850030D03*
D54*
X180340Y884936D03*
D53*
X1606940Y47390D03*
X1606940Y72390D03*
X1606940Y97390D03*
X1496940Y97390D03*
X1496940Y72390D03*
X1496940Y47390D03*
D54*
X1551940Y82296D03*
D55*
X322580Y923410D02*
X322580Y938410D01*
X297180Y938410D02*
X297180Y923410D01*
X379730Y923410D02*
X379730Y938410D01*
X354330Y938410D02*
X354330Y923410D01*
X439420Y924680D02*
X439420Y939680D01*
X414020Y939680D02*
X414020Y924680D01*
D56*
X1016000Y88900D03*
D23*
X990600Y88900D03*
X965200Y88900D03*
X965200Y114300D03*
X990600Y114300D03*
X1016000Y114300D03*
X939800Y114300D03*
D56*
X939800Y88900D03*
D57*
X783975Y466400D03*
X783975Y461400D03*
X783975Y456400D03*
X783975Y451400D03*
X783975Y446400D03*
X783975Y441400D03*
X783975Y436400D03*
X783975Y431400D03*
X783975Y426400D03*
X783975Y421400D03*
X783975Y416400D03*
X783975Y411400D03*
X783975Y406400D03*
X783975Y401400D03*
X783975Y396400D03*
X783975Y391400D03*
X783975Y386400D03*
X783975Y381400D03*
X783975Y376400D03*
X783975Y371400D03*
X783975Y366400D03*
X783975Y361400D03*
X783975Y356400D03*
X783975Y351400D03*
X783975Y346400D03*
D58*
X803600Y326775D03*
X808600Y326775D03*
X813600Y326775D03*
X818600Y326775D03*
X823600Y326775D03*
X828600Y326775D03*
X833600Y326775D03*
X838600Y326775D03*
X843600Y326775D03*
X848600Y326775D03*
X853600Y326775D03*
X858600Y326775D03*
X863600Y326775D03*
X868600Y326775D03*
X873600Y326775D03*
X878600Y326775D03*
X883600Y326775D03*
X888600Y326775D03*
X893600Y326775D03*
X898600Y326775D03*
X903600Y326775D03*
X908600Y326775D03*
X913600Y326775D03*
X918600Y326775D03*
X923600Y326775D03*
D57*
X943225Y346400D03*
X943225Y351400D03*
X943225Y356400D03*
X943225Y361400D03*
X943225Y366400D03*
X943225Y371400D03*
X943225Y376400D03*
X943225Y381400D03*
X943225Y386400D03*
X943225Y391400D03*
X943225Y396400D03*
X943225Y401400D03*
X943225Y406400D03*
X943225Y411400D03*
X943225Y416400D03*
X943225Y421400D03*
X943225Y426400D03*
X943225Y431400D03*
X943225Y436400D03*
X943225Y441400D03*
X943225Y446400D03*
X943225Y451400D03*
X943225Y456400D03*
X943225Y461400D03*
X943225Y466400D03*
D58*
X923600Y486025D03*
X918600Y486025D03*
X913600Y486025D03*
X908600Y486025D03*
X903600Y486025D03*
X898600Y486025D03*
X893600Y486025D03*
X888600Y486025D03*
X883600Y486025D03*
X878600Y486025D03*
X873600Y486025D03*
X868600Y486025D03*
X863600Y486025D03*
X858600Y486025D03*
X853600Y486025D03*
X848600Y486025D03*
X843600Y486025D03*
X838600Y486025D03*
X833600Y486025D03*
X828600Y486025D03*
X823600Y486025D03*
X818600Y486025D03*
X813600Y486025D03*
X808600Y486025D03*
X803600Y486025D03*
D59*
X695300Y190800D03*
X685800Y190800D03*
X676300Y190800D03*
X676300Y164800D03*
X685800Y164800D03*
X695300Y164800D03*
D60*
X1289241Y754830D03*
X1289241Y748330D03*
X1289241Y741830D03*
X1289241Y735330D03*
X1289241Y728830D03*
X1289241Y722330D03*
X1289241Y715830D03*
X1344740Y715830D03*
X1344740Y722330D03*
X1344740Y728830D03*
X1344740Y735330D03*
X1344740Y741830D03*
X1344740Y748330D03*
X1344740Y754830D03*
D61*
X1225550Y802640D03*
D62*
X1250950Y802640D03*
X1276350Y802640D03*
D61*
X1225550Y857250D03*
D62*
X1250950Y857250D03*
X1276350Y857250D03*
D61*
X1377950Y857250D03*
D62*
X1403350Y857250D03*
X1428750Y857250D03*
D61*
X1377950Y802640D03*
D62*
X1403350Y802640D03*
X1428750Y802640D03*
D63*
X675800Y89200D03*
X695800Y89200D03*
X650800Y89200D03*
X720800Y89200D03*
D64*
X620100Y52000D03*
X751500Y52000D03*
D24*
X1294130Y48260D02*
X1294130Y33020D01*
X1319530Y33020D02*
X1319530Y48260D01*
X1344930Y48260D02*
X1344930Y33020D01*
X1205230Y33020D02*
X1205230Y48260D01*
X1230630Y48260D02*
X1230630Y33020D01*
X1256030Y33020D02*
X1256030Y48260D01*
X1120140Y48260D02*
X1120140Y33020D01*
X1145540Y33020D02*
X1145540Y48260D01*
X1170940Y48260D02*
X1170940Y33020D01*
X539750Y476250D02*
X539750Y491490D01*
X565150Y491490D02*
X565150Y476250D01*
X590550Y476250D02*
X590550Y491490D01*
X615950Y491490D02*
X615950Y476250D01*
X641350Y476250D02*
X641350Y491490D01*
D65*
X817880Y378460D03*
X810260Y366162D03*
X833476Y420014D03*
X1397000Y431800D03*
X1360170Y401320D03*
X840740Y415290D03*
X845185Y408305D03*
X852170Y401320D03*
X864870Y407908D03*
X1389380Y265430D03*
X858520Y266700D03*
X404000Y580600D03*
X1314450Y631190D03*
X1525905Y84455D03*
X986790Y378460D03*
X999490Y375920D03*
X800100Y304800D03*
X1010920Y374650D03*
X1437640Y242570D03*
X1399540Y242808D03*
X808990Y292100D03*
X966470Y388620D03*
X735330Y332740D03*
X726440Y332740D03*
X644525Y152400D03*
X694690Y440690D03*
X812800Y448310D03*
X885938Y463550D03*
X820618Y511810D03*
X913130Y455930D03*
X680720Y508660D03*
X1381760Y765150D03*
X1282700Y339730D03*
X370200Y459740D03*
X368960Y412750D03*
X1257300Y339730D03*
X1231900Y339730D03*
X1206500Y339730D03*
X1181100Y339730D03*
X1284224Y306832D03*
X1319530Y245110D03*
X905510Y242570D03*
X1308100Y254000D03*
X911860Y251460D03*
X1336040Y538480D03*
X814070Y535940D03*
X1347470Y520700D03*
X822960Y525780D03*
X892810Y284480D03*
X901700Y374650D03*
X658368Y178816D03*
X609600Y217424D03*
X720090Y161290D03*
X826894Y190500D03*
X916940Y394970D03*
X712470Y346710D03*
X304160Y843280D03*
X417190Y842010D03*
X360040Y843280D03*
X713740Y428230D03*
X802640Y398780D03*
X406400Y825500D03*
X679450Y422300D03*
X513080Y425450D03*
X377190Y779780D03*
X320650Y800100D03*
X320680Y843280D03*
X377190Y842010D03*
X433710Y842010D03*
X266700Y368300D03*
X266700Y355600D03*
X266700Y342900D03*
X266700Y330200D03*
X266700Y317500D03*
X266700Y304800D03*
X482840Y425450D03*
X386720Y459740D03*
X388620Y411480D03*
X601980Y252730D03*
X1107440Y193040D03*
X642938Y133350D03*
X1298575Y188913D03*
X1327150Y203200D03*
X1157288Y188913D03*
X1236980Y722630D03*
X1276350Y721360D03*
X1200150Y661670D03*
X1261110Y746150D03*
X1210310Y614680D03*
X1259840Y713080D03*
X1229360Y681990D03*
X1381760Y746150D03*
X1229360Y660400D03*
X1381760Y695350D03*
X763270Y380008D03*
X831850Y518160D03*
X680720Y527660D03*
X679450Y379120D03*
X916305Y360363D03*
X908050Y387350D03*
X878205Y518160D03*
X903288Y469265D03*
X873443Y365760D03*
X817563Y304800D03*
X760730Y363220D03*
X749300Y356588D03*
X1282700Y323210D03*
X1314450Y150178D03*
X1257300Y323210D03*
X1243584Y152400D03*
X1243584Y251968D03*
X1243584Y270256D03*
X1231392Y292608D03*
X1150112Y251968D03*
X1231900Y323210D03*
X1242060Y306070D03*
X1205230Y280010D03*
X1168400Y251968D03*
X1206500Y323210D03*
X1144806Y315059D03*
X1141730Y292636D03*
X1273810Y462280D03*
X919480Y463550D03*
X871220Y35560D03*
X1019810Y288290D03*
X869992Y276860D03*
X1181100Y323210D03*
X1159510Y322933D03*
X1181100Y280010D03*
X1019810Y328930D03*
X898600Y346000D03*
X1019810Y319166D03*
X898282Y290830D03*
X1019810Y308808D03*
X885190Y363220D03*
X1019810Y298450D03*
X873760Y346710D03*
X911225Y565150D03*
X1176020Y593090D03*
X889000Y571500D03*
X863600Y509270D03*
X843280Y511810D03*
X806133Y461963D03*
X961390Y514350D03*
X929640Y517088D03*
X929640Y502920D03*
X935990Y510540D03*
X766763Y762000D03*
X779463Y762000D03*
X1041400Y765175D03*
X815975Y771525D03*
X879475Y644525D03*
X879475Y635000D03*
X809625Y695325D03*
X876300Y657225D03*
X892175Y695325D03*
X835025Y635000D03*
X833438Y655638D03*
X874713Y858838D03*
X606425Y820738D03*
X566738Y762000D03*
X628650Y782638D03*
X885825Y800100D03*
X635000Y757238D03*
X615950Y763588D03*
X811213Y884238D03*
X576263Y762000D03*
X825500Y831850D03*
X608013Y752475D03*
X885825Y777875D03*
X854075Y839788D03*
X585788Y763588D03*
X893763Y782638D03*
X736600Y785813D03*
X820738Y795338D03*
X633413Y768350D03*
X831850Y793750D03*
X742950Y723900D03*
X715963Y723900D03*
X703263Y692150D03*
X776288Y695325D03*
X806450Y771525D03*
X795338Y763588D03*
X839788Y827088D03*
X852488Y815975D03*
X558800Y740093D03*
X533400Y766763D03*
X619125Y808038D03*
X869950Y793750D03*
X641350Y785813D03*
X869950Y803275D03*
X715963Y768350D03*
X752475Y766763D03*
X868363Y681038D03*
X854075Y681038D03*
X815975Y701675D03*
X923290Y735965D03*
X695325Y703263D03*
X795338Y747713D03*
X909638Y750888D03*
X550863Y798513D03*
X797878Y526733D03*
D66*
X760730Y469900D03*
D65*
X757238Y460375D03*
X757238Y450850D03*
M02*
