G04 EAGLE Gerber RS-274X export*
G75*
%MOMM*%
%FSLAX34Y34*%
%LPD*%
%INSoldermask Bottom*%
%IPPOS*%
%AMOC8*
5,1,8,0,0,1.08239X$1,22.5*%
G01*
%ADD10R,1.053200X1.103200*%
%ADD11C,2.743200*%
%ADD12P,2.969212X8X22.500000*%
%ADD13R,1.703200X1.503200*%
%ADD14P,1.869504X8X202.500000*%
%ADD15C,1.703200*%
%ADD16C,1.727200*%
%ADD17P,4.343848X8X22.500000*%
%ADD18P,4.343848X8X202.500000*%
%ADD19C,1.993900*%
%ADD20R,2.403200X2.203200*%
%ADD21P,1.539592X8X202.500000*%
%ADD22C,1.422400*%
%ADD23C,1.422400*%
%ADD24R,1.458200X1.309200*%
%ADD25R,1.309200X1.458200*%
%ADD26C,1.727200*%
%ADD27P,1.869504X8X22.500000*%
%ADD28C,2.755900*%
%ADD29C,1.703200*%
%ADD30R,1.703200X1.703200*%
%ADD31R,1.879600X1.879600*%
%ADD32C,1.879600*%
%ADD33C,2.503200*%
%ADD34C,0.808000*%
%ADD35C,0.858000*%


D10*
X862880Y848360D03*
X874480Y848360D03*
D11*
X180340Y337820D03*
D12*
X231140Y337820D03*
D11*
X123190Y703580D03*
D12*
X173990Y703580D03*
D13*
X1535430Y414630D03*
X1535430Y395630D03*
D14*
X1413510Y952500D03*
X1413510Y927100D03*
X1388110Y952500D03*
X1388110Y927100D03*
D15*
X1409700Y393700D03*
X1409700Y419100D03*
X1435100Y393700D03*
X1435100Y419100D03*
X1460500Y393700D03*
X1460500Y419100D03*
X1485900Y393700D03*
X1485900Y419100D03*
X1511300Y393700D03*
X1511300Y419100D03*
X1412240Y267970D03*
X1412240Y293370D03*
X1437640Y267970D03*
X1437640Y293370D03*
X1463040Y267970D03*
X1463040Y293370D03*
X1488440Y267970D03*
X1488440Y293370D03*
X1513840Y267970D03*
X1513840Y293370D03*
D14*
X1524000Y546100D03*
X1498600Y546100D03*
X1473200Y546100D03*
X1447800Y546100D03*
X1422400Y546100D03*
X1397000Y546100D03*
X1524000Y520700D03*
X1498600Y520700D03*
X1473200Y520700D03*
X1447800Y520700D03*
X1422400Y520700D03*
X1397000Y520700D03*
D16*
X1294130Y93980D02*
X1294130Y78740D01*
X1319530Y78740D02*
X1319530Y93980D01*
X1344930Y93980D02*
X1344930Y78740D01*
X1206500Y78740D02*
X1206500Y93980D01*
X1231900Y93980D02*
X1231900Y78740D01*
X1257300Y78740D02*
X1257300Y93980D01*
X1116330Y92710D02*
X1116330Y77470D01*
X1141730Y77470D02*
X1141730Y92710D01*
X1167130Y92710D02*
X1167130Y77470D01*
D17*
X189230Y40640D03*
X346710Y40640D03*
X346710Y-10160D03*
X189230Y-10160D03*
D18*
X346710Y96520D03*
X189230Y96520D03*
X189230Y147320D03*
X346710Y147320D03*
D17*
X189230Y246380D03*
X346710Y246380D03*
X346710Y195580D03*
X189230Y195580D03*
D14*
X1536700Y952500D03*
X1536700Y927100D03*
X1511300Y952500D03*
X1511300Y927100D03*
D19*
X1540447Y635400D02*
X1558354Y635400D01*
X1558354Y685400D02*
X1540447Y685400D01*
X1316990Y935927D02*
X1316990Y953834D01*
X1266190Y953834D02*
X1266190Y935927D01*
X1215390Y935927D02*
X1215390Y953834D01*
X1164590Y953834D02*
X1164590Y935927D01*
D16*
X1508760Y167640D02*
X1524000Y167640D01*
X1524000Y142240D02*
X1508760Y142240D01*
D20*
X482840Y425450D03*
X512840Y425450D03*
D21*
X393700Y500380D03*
X368300Y500380D03*
D16*
X1384300Y45720D02*
X1384300Y30480D01*
X1409700Y30480D02*
X1409700Y45720D01*
X1435100Y45720D02*
X1435100Y30480D01*
D19*
X99124Y58020D02*
X81217Y58020D01*
X81217Y8020D02*
X99124Y8020D01*
D22*
X580390Y354330D03*
X532130Y354330D03*
D23*
X323596Y601980D02*
X311404Y601980D01*
X311404Y551180D02*
X323596Y551180D01*
X323596Y576580D02*
X311404Y576580D01*
D24*
X302890Y842010D03*
X319410Y842010D03*
X360040Y842010D03*
X376560Y842010D03*
X417190Y842010D03*
X433710Y842010D03*
D25*
X1282700Y323210D03*
X1282700Y339730D03*
X1257300Y323210D03*
X1257300Y339730D03*
X1231900Y323210D03*
X1231900Y339730D03*
X1206500Y323210D03*
X1206500Y339730D03*
X1181100Y323210D03*
X1181100Y339730D03*
D16*
X508762Y89916D02*
X493522Y89916D01*
X493522Y44704D02*
X508762Y44704D01*
X443738Y89916D02*
X428498Y89916D01*
X428498Y44704D02*
X443738Y44704D01*
X1384300Y72390D02*
X1384300Y87630D01*
X1409700Y87630D02*
X1409700Y72390D01*
X1435100Y72390D02*
X1435100Y87630D01*
D23*
X1358900Y153924D02*
X1358900Y166116D01*
X1384300Y166116D02*
X1384300Y153924D01*
X1409700Y153924D02*
X1409700Y166116D01*
X1435100Y166116D02*
X1435100Y153924D01*
X1460500Y153924D02*
X1460500Y166116D01*
D16*
X1216660Y575310D02*
X1216660Y590550D01*
X1242060Y590550D02*
X1242060Y575310D01*
X1267460Y575310D02*
X1267460Y590550D01*
X1292860Y590550D02*
X1292860Y575310D01*
D26*
X457200Y152400D03*
D27*
X482600Y152400D03*
X508000Y152400D03*
X457200Y177800D03*
X482600Y177800D03*
X508000Y177800D03*
D14*
X952500Y622300D03*
X927100Y622300D03*
X901700Y622300D03*
X876300Y622300D03*
X850900Y622300D03*
X825500Y622300D03*
X952500Y596900D03*
X927100Y596900D03*
X901700Y596900D03*
X876300Y596900D03*
X850900Y596900D03*
X825500Y596900D03*
X800100Y622300D03*
X774700Y622300D03*
X800100Y596900D03*
X774700Y596900D03*
D27*
X774700Y876300D03*
X800100Y876300D03*
X825500Y876300D03*
X850900Y876300D03*
X876300Y876300D03*
X901700Y876300D03*
X774700Y901700D03*
X800100Y901700D03*
X825500Y901700D03*
X850900Y901700D03*
X876300Y901700D03*
X901700Y901700D03*
X927100Y876300D03*
X952500Y876300D03*
X927100Y901700D03*
X952500Y901700D03*
D16*
X901700Y932180D02*
X901700Y947420D01*
X876300Y947420D02*
X876300Y932180D01*
X850900Y932180D02*
X850900Y947420D01*
X825500Y947420D02*
X825500Y932180D01*
D28*
X180340Y884936D03*
X1551940Y82296D03*
D29*
X322580Y923410D02*
X322580Y938410D01*
X297180Y938410D02*
X297180Y923410D01*
X379730Y923410D02*
X379730Y938410D01*
X354330Y938410D02*
X354330Y923410D01*
X439420Y924680D02*
X439420Y939680D01*
X414020Y939680D02*
X414020Y924680D01*
D30*
X1016000Y88900D03*
D15*
X990600Y88900D03*
X965200Y88900D03*
X965200Y114300D03*
X990600Y114300D03*
X1016000Y114300D03*
X939800Y114300D03*
D30*
X939800Y88900D03*
D31*
X1225550Y802640D03*
D32*
X1250950Y802640D03*
X1276350Y802640D03*
D31*
X1225550Y857250D03*
D32*
X1250950Y857250D03*
X1276350Y857250D03*
D31*
X1377950Y857250D03*
D32*
X1403350Y857250D03*
X1428750Y857250D03*
D31*
X1377950Y802640D03*
D32*
X1403350Y802640D03*
X1428750Y802640D03*
D33*
X620100Y52000D03*
X751500Y52000D03*
D16*
X1294130Y48260D02*
X1294130Y33020D01*
X1319530Y33020D02*
X1319530Y48260D01*
X1344930Y48260D02*
X1344930Y33020D01*
X1205230Y33020D02*
X1205230Y48260D01*
X1230630Y48260D02*
X1230630Y33020D01*
X1256030Y33020D02*
X1256030Y48260D01*
X1120140Y48260D02*
X1120140Y33020D01*
X1145540Y33020D02*
X1145540Y48260D01*
X1170940Y48260D02*
X1170940Y33020D01*
X539750Y476250D02*
X539750Y491490D01*
X565150Y491490D02*
X565150Y476250D01*
X590550Y476250D02*
X590550Y491490D01*
X615950Y491490D02*
X615950Y476250D01*
X641350Y476250D02*
X641350Y491490D01*
D34*
X817880Y378460D03*
X810260Y366162D03*
X833476Y420014D03*
X1397000Y431800D03*
X1360170Y401320D03*
X840740Y415290D03*
X845185Y408305D03*
X852170Y401320D03*
X864870Y407908D03*
X1389380Y265430D03*
X858520Y266700D03*
X404000Y580600D03*
X1314450Y631190D03*
X1525905Y84455D03*
X986790Y378460D03*
X999490Y375920D03*
X800100Y304800D03*
X1010920Y374650D03*
X1437640Y242570D03*
X1399540Y242808D03*
X808990Y292100D03*
X966470Y388620D03*
X735330Y332740D03*
X726440Y332740D03*
X644525Y152400D03*
X694690Y440690D03*
X812800Y448310D03*
X885938Y463550D03*
X820618Y511810D03*
X913130Y455930D03*
X680720Y508660D03*
X1381760Y765150D03*
X1282700Y339730D03*
X370200Y459740D03*
X368960Y412750D03*
X1257300Y339730D03*
X1231900Y339730D03*
X1206500Y339730D03*
X1181100Y339730D03*
X1284224Y306832D03*
X1319530Y245110D03*
X905510Y242570D03*
X1308100Y254000D03*
X911860Y251460D03*
X1336040Y538480D03*
X814070Y535940D03*
X1347470Y520700D03*
X822960Y525780D03*
X892810Y284480D03*
X901700Y374650D03*
X658368Y178816D03*
X609600Y217424D03*
X720090Y161290D03*
X826894Y190500D03*
X916940Y394970D03*
X712470Y346710D03*
X304160Y843280D03*
X417190Y842010D03*
X360040Y843280D03*
X713740Y428230D03*
X802640Y398780D03*
X406400Y825500D03*
X679450Y422300D03*
X513080Y425450D03*
X377190Y779780D03*
X320650Y800100D03*
X320680Y843280D03*
X377190Y842010D03*
X433710Y842010D03*
X266700Y368300D03*
X266700Y355600D03*
X266700Y342900D03*
X266700Y330200D03*
X266700Y317500D03*
X266700Y304800D03*
X482840Y425450D03*
X386720Y459740D03*
X388620Y411480D03*
X601980Y252730D03*
X1107440Y193040D03*
X642938Y133350D03*
X1298575Y188913D03*
X1327150Y203200D03*
X1157288Y188913D03*
X1236980Y722630D03*
X1276350Y721360D03*
X1200150Y661670D03*
X1261110Y746150D03*
X1210310Y614680D03*
X1259840Y713080D03*
X1229360Y681990D03*
X1381760Y746150D03*
X1229360Y660400D03*
X1381760Y695350D03*
X763270Y380008D03*
X831850Y518160D03*
X680720Y527660D03*
X679450Y379120D03*
X916305Y360363D03*
X908050Y387350D03*
X878205Y518160D03*
X903288Y469265D03*
X873443Y365760D03*
X817563Y304800D03*
X760730Y363220D03*
X749300Y356588D03*
X1282700Y323210D03*
X1314450Y150178D03*
X1257300Y323210D03*
X1243584Y152400D03*
X1243584Y251968D03*
X1243584Y270256D03*
X1231392Y292608D03*
X1150112Y251968D03*
X1231900Y323210D03*
X1242060Y306070D03*
X1205230Y280010D03*
X1168400Y251968D03*
X1206500Y323210D03*
X1144806Y315059D03*
X1141730Y292636D03*
X1273810Y462280D03*
X919480Y463550D03*
X871220Y35560D03*
X1019810Y288290D03*
X869992Y276860D03*
X1181100Y323210D03*
X1159510Y322933D03*
X1181100Y280010D03*
X1019810Y328930D03*
X898600Y346000D03*
X1019810Y319166D03*
X898282Y290830D03*
X1019810Y308808D03*
X885190Y363220D03*
X1019810Y298450D03*
X873760Y346710D03*
X911225Y565150D03*
X1176020Y593090D03*
X889000Y571500D03*
X863600Y509270D03*
X843280Y511810D03*
X806133Y461963D03*
X961390Y514350D03*
X929640Y517088D03*
X929640Y502920D03*
X935990Y510540D03*
X766763Y762000D03*
X779463Y762000D03*
X1041400Y765175D03*
X815975Y771525D03*
X879475Y644525D03*
X879475Y635000D03*
X809625Y695325D03*
X876300Y657225D03*
X892175Y695325D03*
X835025Y635000D03*
X833438Y655638D03*
X874713Y858838D03*
X606425Y820738D03*
X566738Y762000D03*
X628650Y782638D03*
X885825Y800100D03*
X635000Y757238D03*
X615950Y763588D03*
X811213Y884238D03*
X576263Y762000D03*
X825500Y831850D03*
X608013Y752475D03*
X885825Y777875D03*
X854075Y839788D03*
X585788Y763588D03*
X893763Y782638D03*
X736600Y785813D03*
X820738Y795338D03*
X633413Y768350D03*
X831850Y793750D03*
X742950Y723900D03*
X715963Y723900D03*
X703263Y692150D03*
X776288Y695325D03*
X806450Y771525D03*
X795338Y763588D03*
X839788Y827088D03*
X852488Y815975D03*
X558800Y740093D03*
X533400Y766763D03*
X619125Y808038D03*
X869950Y793750D03*
X641350Y785813D03*
X869950Y803275D03*
X715963Y768350D03*
X752475Y766763D03*
X868363Y681038D03*
X854075Y681038D03*
X815975Y701675D03*
X923290Y735965D03*
X695325Y703263D03*
X795338Y747713D03*
X909638Y750888D03*
X550863Y798513D03*
X797878Y526733D03*
D35*
X760730Y469900D03*
D34*
X757238Y460375D03*
X757238Y450850D03*
M02*
