G04 EAGLE Gerber RS-274X export*
G75*
%MOMM*%
%FSLAX34Y34*%
%LPD*%
%INSolderpaste Top*%
%IPPOS*%
%AMOC8*
5,1,8,0,0,1.08239X$1,22.5*%
G01*
%ADD10R,1.500000X1.300000*%
%ADD11R,0.900000X0.850000*%
%ADD12R,0.850000X0.900000*%
%ADD13R,0.700000X0.900000*%
%ADD14R,1.300000X1.500000*%
%ADD15R,1.000000X1.100000*%
%ADD16R,0.900000X0.700000*%
%ADD17R,1.800000X2.200000*%
%ADD18R,2.000000X1.100000*%
%ADD19R,0.800000X0.800000*%
%ADD20R,1.450000X0.250000*%
%ADD21R,0.250000X1.450000*%
%ADD22R,5.000000X5.000000*%
%ADD23R,0.950000X2.150000*%
%ADD24R,3.250000X2.150000*%
%ADD25R,10.410000X10.800000*%
%ADD26R,2.159000X1.066800*%
%ADD27R,5.400000X2.900000*%
%ADD28R,2.200000X2.000000*%
%ADD29R,2.000000X2.200000*%
%ADD30R,0.889000X2.184400*%
%ADD31R,5.461000X5.613400*%
%ADD32R,0.450000X0.520000*%
%ADD33R,2.520000X0.750000*%
%ADD34R,1.750000X0.520000*%
%ADD35R,0.900000X0.800000*%
%ADD36R,1.600000X1.803000*%
%ADD37R,1.803000X1.600000*%
%ADD38C,0.222250*%
%ADD39R,1.255000X1.106000*%
%ADD40R,2.311400X1.600200*%
%ADD41R,1.625000X0.280000*%
%ADD42R,0.280000X1.625000*%
%ADD43R,0.600000X1.150000*%
%ADD44R,1.155700X0.304800*%
%ADD45R,1.120000X4.000000*%

G36*
X846924Y739855D02*
X846924Y739855D01*
X846949Y739852D01*
X847044Y739875D01*
X847141Y739890D01*
X847162Y739902D01*
X847186Y739908D01*
X847270Y739959D01*
X847356Y740005D01*
X847373Y740023D01*
X847394Y740036D01*
X847456Y740112D01*
X847523Y740184D01*
X847533Y740206D01*
X847549Y740225D01*
X847583Y740316D01*
X847624Y740406D01*
X847626Y740430D01*
X847635Y740453D01*
X847649Y740600D01*
X847649Y760600D01*
X847645Y760624D01*
X847648Y760649D01*
X847626Y760744D01*
X847610Y760841D01*
X847598Y760862D01*
X847592Y760886D01*
X847541Y760970D01*
X847495Y761056D01*
X847477Y761073D01*
X847464Y761094D01*
X847388Y761156D01*
X847317Y761223D01*
X847294Y761233D01*
X847275Y761249D01*
X847184Y761283D01*
X847094Y761324D01*
X847070Y761326D01*
X847047Y761335D01*
X846900Y761349D01*
X826900Y761349D01*
X826876Y761345D01*
X826851Y761348D01*
X826756Y761326D01*
X826659Y761310D01*
X826638Y761298D01*
X826614Y761292D01*
X826530Y761241D01*
X826444Y761195D01*
X826427Y761177D01*
X826406Y761164D01*
X826344Y761088D01*
X826277Y761017D01*
X826267Y760994D01*
X826252Y760975D01*
X826217Y760884D01*
X826176Y760794D01*
X826174Y760770D01*
X826165Y760747D01*
X826151Y760600D01*
X826151Y740600D01*
X826155Y740576D01*
X826152Y740551D01*
X826175Y740456D01*
X826190Y740359D01*
X826202Y740338D01*
X826208Y740314D01*
X826259Y740230D01*
X826305Y740144D01*
X826323Y740127D01*
X826336Y740106D01*
X826412Y740044D01*
X826484Y739977D01*
X826506Y739967D01*
X826525Y739952D01*
X826616Y739917D01*
X826706Y739876D01*
X826730Y739874D01*
X826753Y739865D01*
X826900Y739851D01*
X846900Y739851D01*
X846924Y739855D01*
G37*
G36*
X874924Y739855D02*
X874924Y739855D01*
X874949Y739852D01*
X875044Y739875D01*
X875141Y739890D01*
X875162Y739902D01*
X875186Y739908D01*
X875270Y739959D01*
X875356Y740005D01*
X875373Y740023D01*
X875394Y740036D01*
X875456Y740112D01*
X875523Y740184D01*
X875533Y740206D01*
X875549Y740225D01*
X875583Y740316D01*
X875624Y740406D01*
X875626Y740430D01*
X875635Y740453D01*
X875649Y740600D01*
X875649Y760600D01*
X875645Y760624D01*
X875648Y760649D01*
X875626Y760744D01*
X875610Y760841D01*
X875598Y760862D01*
X875592Y760886D01*
X875541Y760970D01*
X875495Y761056D01*
X875477Y761073D01*
X875464Y761094D01*
X875388Y761156D01*
X875317Y761223D01*
X875294Y761233D01*
X875275Y761249D01*
X875184Y761283D01*
X875094Y761324D01*
X875070Y761326D01*
X875047Y761335D01*
X874900Y761349D01*
X854900Y761349D01*
X854876Y761345D01*
X854851Y761348D01*
X854756Y761326D01*
X854659Y761310D01*
X854638Y761298D01*
X854614Y761292D01*
X854530Y761241D01*
X854444Y761195D01*
X854427Y761177D01*
X854406Y761164D01*
X854344Y761088D01*
X854277Y761017D01*
X854267Y760994D01*
X854252Y760975D01*
X854217Y760884D01*
X854176Y760794D01*
X854174Y760770D01*
X854165Y760747D01*
X854151Y760600D01*
X854151Y740600D01*
X854155Y740576D01*
X854152Y740551D01*
X854175Y740456D01*
X854190Y740359D01*
X854202Y740338D01*
X854208Y740314D01*
X854259Y740230D01*
X854305Y740144D01*
X854323Y740127D01*
X854336Y740106D01*
X854412Y740044D01*
X854484Y739977D01*
X854506Y739967D01*
X854525Y739952D01*
X854616Y739917D01*
X854706Y739876D01*
X854730Y739874D01*
X854753Y739865D01*
X854900Y739851D01*
X874900Y739851D01*
X874924Y739855D01*
G37*
G36*
X874924Y711855D02*
X874924Y711855D01*
X874949Y711852D01*
X875044Y711875D01*
X875141Y711890D01*
X875162Y711902D01*
X875186Y711908D01*
X875270Y711959D01*
X875356Y712005D01*
X875373Y712023D01*
X875394Y712036D01*
X875456Y712112D01*
X875523Y712184D01*
X875533Y712206D01*
X875549Y712225D01*
X875583Y712316D01*
X875624Y712406D01*
X875626Y712430D01*
X875635Y712453D01*
X875649Y712600D01*
X875649Y732600D01*
X875645Y732624D01*
X875648Y732649D01*
X875626Y732744D01*
X875610Y732841D01*
X875598Y732862D01*
X875592Y732886D01*
X875541Y732970D01*
X875495Y733056D01*
X875477Y733073D01*
X875464Y733094D01*
X875388Y733156D01*
X875317Y733223D01*
X875294Y733233D01*
X875275Y733249D01*
X875184Y733283D01*
X875094Y733324D01*
X875070Y733326D01*
X875047Y733335D01*
X874900Y733349D01*
X854900Y733349D01*
X854876Y733345D01*
X854851Y733348D01*
X854756Y733326D01*
X854659Y733310D01*
X854638Y733298D01*
X854614Y733292D01*
X854530Y733241D01*
X854444Y733195D01*
X854427Y733177D01*
X854406Y733164D01*
X854344Y733088D01*
X854277Y733017D01*
X854267Y732994D01*
X854252Y732975D01*
X854217Y732884D01*
X854176Y732794D01*
X854174Y732770D01*
X854165Y732747D01*
X854151Y732600D01*
X854151Y712600D01*
X854155Y712576D01*
X854152Y712551D01*
X854175Y712456D01*
X854190Y712359D01*
X854202Y712338D01*
X854208Y712314D01*
X854259Y712230D01*
X854305Y712144D01*
X854323Y712127D01*
X854336Y712106D01*
X854412Y712044D01*
X854484Y711977D01*
X854506Y711967D01*
X854525Y711952D01*
X854616Y711917D01*
X854706Y711876D01*
X854730Y711874D01*
X854753Y711865D01*
X854900Y711851D01*
X874900Y711851D01*
X874924Y711855D01*
G37*
G36*
X846924Y711855D02*
X846924Y711855D01*
X846949Y711852D01*
X847044Y711875D01*
X847141Y711890D01*
X847162Y711902D01*
X847186Y711908D01*
X847270Y711959D01*
X847356Y712005D01*
X847373Y712023D01*
X847394Y712036D01*
X847456Y712112D01*
X847523Y712184D01*
X847533Y712206D01*
X847549Y712225D01*
X847583Y712316D01*
X847624Y712406D01*
X847626Y712430D01*
X847635Y712453D01*
X847649Y712600D01*
X847649Y732600D01*
X847645Y732624D01*
X847648Y732649D01*
X847626Y732744D01*
X847610Y732841D01*
X847598Y732862D01*
X847592Y732886D01*
X847541Y732970D01*
X847495Y733056D01*
X847477Y733073D01*
X847464Y733094D01*
X847388Y733156D01*
X847317Y733223D01*
X847294Y733233D01*
X847275Y733249D01*
X847184Y733283D01*
X847094Y733324D01*
X847070Y733326D01*
X847047Y733335D01*
X846900Y733349D01*
X826900Y733349D01*
X826876Y733345D01*
X826851Y733348D01*
X826756Y733326D01*
X826659Y733310D01*
X826638Y733298D01*
X826614Y733292D01*
X826530Y733241D01*
X826444Y733195D01*
X826427Y733177D01*
X826406Y733164D01*
X826344Y733088D01*
X826277Y733017D01*
X826267Y732994D01*
X826252Y732975D01*
X826217Y732884D01*
X826176Y732794D01*
X826174Y732770D01*
X826165Y732747D01*
X826151Y732600D01*
X826151Y712600D01*
X826155Y712576D01*
X826152Y712551D01*
X826175Y712456D01*
X826190Y712359D01*
X826202Y712338D01*
X826208Y712314D01*
X826259Y712230D01*
X826305Y712144D01*
X826323Y712127D01*
X826336Y712106D01*
X826412Y712044D01*
X826484Y711977D01*
X826506Y711967D01*
X826525Y711952D01*
X826616Y711917D01*
X826706Y711876D01*
X826730Y711874D01*
X826753Y711865D01*
X826900Y711851D01*
X846900Y711851D01*
X846924Y711855D01*
G37*
D10*
X1028700Y791600D03*
X1028700Y808600D03*
D11*
X930910Y777960D03*
X930910Y766360D03*
X957580Y795570D03*
X957580Y807170D03*
X1054100Y794300D03*
X1054100Y805900D03*
D12*
X824780Y847090D03*
X836380Y847090D03*
X799380Y802640D03*
X810980Y802640D03*
X779060Y847090D03*
X790660Y847090D03*
D11*
X930910Y807170D03*
X930910Y795570D03*
D13*
X1009500Y762000D03*
X1022500Y762000D03*
D14*
X782930Y142240D03*
X763930Y142240D03*
D10*
X1003300Y791600D03*
X1003300Y808600D03*
D14*
X650900Y217170D03*
X669900Y217170D03*
D10*
X537210Y76810D03*
X537210Y57810D03*
D14*
X301650Y877570D03*
X320650Y877570D03*
X357530Y877570D03*
X376530Y877570D03*
X415950Y873760D03*
X434950Y873760D03*
X387960Y693420D03*
X368960Y693420D03*
X384150Y535940D03*
X365150Y535940D03*
X387960Y412750D03*
X368960Y412750D03*
X285140Y414020D03*
X304140Y414020D03*
D15*
X956310Y748420D03*
X956310Y765420D03*
D14*
X273660Y532130D03*
X254660Y532130D03*
X1317650Y793750D03*
X1336650Y793750D03*
X866800Y162560D03*
X885800Y162560D03*
X838810Y162560D03*
X819810Y162560D03*
D10*
X679450Y464210D03*
X679450Y483210D03*
X982980Y361290D03*
X982980Y342290D03*
D14*
X991260Y547370D03*
X1010260Y547370D03*
X887070Y549910D03*
X868070Y549910D03*
D10*
X680720Y508660D03*
X680720Y527660D03*
D11*
X988060Y762720D03*
X988060Y751120D03*
D10*
X679450Y422300D03*
X679450Y441300D03*
X568960Y262280D03*
X568960Y281280D03*
X533400Y262280D03*
X533400Y281280D03*
X977900Y791600D03*
X977900Y808600D03*
D11*
X1074420Y794300D03*
X1074420Y805900D03*
D16*
X715010Y778360D03*
X715010Y791360D03*
D14*
X1425600Y121920D03*
X1444600Y121920D03*
X968400Y50800D03*
X987400Y50800D03*
D17*
X218340Y274320D03*
X269340Y274320D03*
D18*
X287140Y441960D03*
D19*
X306140Y441960D03*
D20*
X809150Y764100D03*
X809150Y759100D03*
X809150Y754100D03*
X809150Y749100D03*
X809150Y744100D03*
X809150Y739100D03*
X809150Y734100D03*
X809150Y729100D03*
X809150Y724100D03*
X809150Y719100D03*
X809150Y714100D03*
X809150Y709100D03*
D21*
X823400Y694850D03*
X828400Y694850D03*
X833400Y694850D03*
X838400Y694850D03*
X843400Y694850D03*
X848400Y694850D03*
X853400Y694850D03*
X858400Y694850D03*
X863400Y694850D03*
X868400Y694850D03*
X873400Y694850D03*
X878400Y694850D03*
D20*
X892650Y709100D03*
X892650Y714100D03*
X892650Y719100D03*
X892650Y724100D03*
X892650Y729100D03*
X892650Y734100D03*
X892650Y739100D03*
X892650Y744100D03*
X892650Y749100D03*
X892650Y754100D03*
X892650Y759100D03*
X892650Y764100D03*
D21*
X878400Y778350D03*
X873400Y778350D03*
X868400Y778350D03*
X863400Y778350D03*
X858400Y778350D03*
X853400Y778350D03*
X848400Y778350D03*
X843400Y778350D03*
X838400Y778350D03*
X833400Y778350D03*
X828400Y778350D03*
X823400Y778350D03*
D22*
X850900Y736600D03*
D23*
X358000Y580600D03*
X381000Y580600D03*
X404000Y580600D03*
D24*
X381000Y638600D03*
D25*
X154940Y458470D03*
D26*
X238252Y424434D03*
X238252Y441452D03*
X238252Y458470D03*
X238252Y475488D03*
X238252Y492506D03*
D27*
X154940Y632700D03*
X154940Y535700D03*
D28*
X480300Y533400D03*
X510300Y533400D03*
D29*
X713740Y458230D03*
X713740Y428230D03*
D30*
X1422360Y629793D03*
X1468160Y629793D03*
D31*
X1445260Y703072D03*
D32*
X597310Y692220D03*
D33*
X607060Y711620D03*
X607060Y700620D03*
D34*
X610310Y692220D03*
X610310Y720020D03*
D32*
X597310Y720020D03*
X559210Y692220D03*
D33*
X568960Y711620D03*
X568960Y700620D03*
D34*
X572210Y692220D03*
X572210Y720020D03*
D32*
X559210Y720020D03*
X619350Y800030D03*
D33*
X609600Y780630D03*
X609600Y791630D03*
D34*
X606350Y800030D03*
X606350Y772230D03*
D32*
X619350Y772230D03*
X578710Y798760D03*
D33*
X568960Y779360D03*
X568960Y790360D03*
D34*
X565710Y798760D03*
X565710Y770960D03*
D32*
X578710Y770960D03*
D35*
X650400Y269850D03*
X650400Y250850D03*
X670400Y260350D03*
D36*
X674120Y717550D03*
X702560Y717550D03*
D37*
X647700Y799080D03*
X647700Y770640D03*
D10*
X622300Y272390D03*
X622300Y253390D03*
D14*
X730860Y259080D03*
X711860Y259080D03*
D10*
X567690Y57810D03*
X567690Y76810D03*
X321310Y800760D03*
X321310Y819760D03*
X377190Y800760D03*
X377190Y819760D03*
X435610Y802030D03*
X435610Y821030D03*
D14*
X285140Y476250D03*
X304140Y476250D03*
D10*
X679450Y398120D03*
X679450Y379120D03*
D37*
X647700Y693170D03*
X647700Y721610D03*
D10*
X1381760Y695350D03*
X1381760Y714350D03*
X1259840Y713080D03*
X1259840Y694080D03*
X1261110Y746150D03*
X1261110Y765150D03*
X1381760Y746150D03*
X1381760Y765150D03*
X679450Y356210D03*
X679450Y337210D03*
D14*
X549300Y309880D03*
X568300Y309880D03*
X1062330Y346710D03*
X1043330Y346710D03*
D10*
X1282700Y280010D03*
X1282700Y261010D03*
D14*
X1062330Y323850D03*
X1043330Y323850D03*
D10*
X1256030Y280010D03*
X1256030Y261010D03*
D13*
X1009500Y749300D03*
X1022500Y749300D03*
D14*
X1062330Y302260D03*
X1043330Y302260D03*
D10*
X1230630Y280010D03*
X1230630Y261010D03*
D14*
X1062330Y280670D03*
X1043330Y280670D03*
D10*
X1205230Y280010D03*
X1205230Y261010D03*
D14*
X1062330Y259080D03*
X1043330Y259080D03*
D10*
X1181100Y280010D03*
X1181100Y261010D03*
X1028700Y873100D03*
X1028700Y854100D03*
D14*
X926490Y549910D03*
X945490Y549910D03*
D13*
X676760Y796290D03*
X689760Y796290D03*
X679300Y692150D03*
X692300Y692150D03*
X689760Y769620D03*
X676760Y769620D03*
D14*
X730860Y222250D03*
X711860Y222250D03*
X730860Y143510D03*
X711860Y143510D03*
D38*
X671354Y143034D02*
X664686Y143034D01*
X671354Y143034D02*
X671354Y136366D01*
X664686Y136366D01*
X664686Y143034D01*
X664686Y138478D02*
X671354Y138478D01*
X671354Y140590D02*
X664686Y140590D01*
X664686Y142702D02*
X671354Y142702D01*
X656114Y143034D02*
X649446Y143034D01*
X656114Y143034D02*
X656114Y136366D01*
X649446Y136366D01*
X649446Y143034D01*
X649446Y138478D02*
X656114Y138478D01*
X656114Y140590D02*
X649446Y140590D01*
X649446Y142702D02*
X656114Y142702D01*
D39*
X370200Y459740D03*
X386720Y459740D03*
D40*
X235340Y850030D03*
X235340Y875030D03*
X235340Y900030D03*
X125340Y900030D03*
X125340Y875030D03*
X125340Y850030D03*
X1606940Y47390D03*
X1606940Y72390D03*
X1606940Y97390D03*
X1496940Y97390D03*
X1496940Y72390D03*
X1496940Y47390D03*
D41*
X783975Y466400D03*
X783975Y461400D03*
X783975Y456400D03*
X783975Y451400D03*
X783975Y446400D03*
X783975Y441400D03*
X783975Y436400D03*
X783975Y431400D03*
X783975Y426400D03*
X783975Y421400D03*
X783975Y416400D03*
X783975Y411400D03*
X783975Y406400D03*
X783975Y401400D03*
X783975Y396400D03*
X783975Y391400D03*
X783975Y386400D03*
X783975Y381400D03*
X783975Y376400D03*
X783975Y371400D03*
X783975Y366400D03*
X783975Y361400D03*
X783975Y356400D03*
X783975Y351400D03*
X783975Y346400D03*
D42*
X803600Y326775D03*
X808600Y326775D03*
X813600Y326775D03*
X818600Y326775D03*
X823600Y326775D03*
X828600Y326775D03*
X833600Y326775D03*
X838600Y326775D03*
X843600Y326775D03*
X848600Y326775D03*
X853600Y326775D03*
X858600Y326775D03*
X863600Y326775D03*
X868600Y326775D03*
X873600Y326775D03*
X878600Y326775D03*
X883600Y326775D03*
X888600Y326775D03*
X893600Y326775D03*
X898600Y326775D03*
X903600Y326775D03*
X908600Y326775D03*
X913600Y326775D03*
X918600Y326775D03*
X923600Y326775D03*
D41*
X943225Y346400D03*
X943225Y351400D03*
X943225Y356400D03*
X943225Y361400D03*
X943225Y366400D03*
X943225Y371400D03*
X943225Y376400D03*
X943225Y381400D03*
X943225Y386400D03*
X943225Y391400D03*
X943225Y396400D03*
X943225Y401400D03*
X943225Y406400D03*
X943225Y411400D03*
X943225Y416400D03*
X943225Y421400D03*
X943225Y426400D03*
X943225Y431400D03*
X943225Y436400D03*
X943225Y441400D03*
X943225Y446400D03*
X943225Y451400D03*
X943225Y456400D03*
X943225Y461400D03*
X943225Y466400D03*
D42*
X923600Y486025D03*
X918600Y486025D03*
X913600Y486025D03*
X908600Y486025D03*
X903600Y486025D03*
X898600Y486025D03*
X893600Y486025D03*
X888600Y486025D03*
X883600Y486025D03*
X878600Y486025D03*
X873600Y486025D03*
X868600Y486025D03*
X863600Y486025D03*
X858600Y486025D03*
X853600Y486025D03*
X848600Y486025D03*
X843600Y486025D03*
X838600Y486025D03*
X833600Y486025D03*
X828600Y486025D03*
X823600Y486025D03*
X818600Y486025D03*
X813600Y486025D03*
X808600Y486025D03*
X803600Y486025D03*
D43*
X695300Y190800D03*
X685800Y190800D03*
X676300Y190800D03*
X676300Y164800D03*
X685800Y164800D03*
X695300Y164800D03*
D44*
X1289241Y754830D03*
X1289241Y748330D03*
X1289241Y741830D03*
X1289241Y735330D03*
X1289241Y728830D03*
X1289241Y722330D03*
X1289241Y715830D03*
X1344740Y715830D03*
X1344740Y722330D03*
X1344740Y728830D03*
X1344740Y735330D03*
X1344740Y741830D03*
X1344740Y748330D03*
X1344740Y754830D03*
D45*
X675800Y89200D03*
X695800Y89200D03*
X650800Y89200D03*
X720800Y89200D03*
M02*
