G04 EAGLE Gerber RS-274X export*
G75*
%MOMM*%
%FSLAX34Y34*%
%LPD*%
%IN*%
%IPPOS*%
%AMOC8*
5,1,8,0,0,1.08239X$1,22.5*%
G01*
%ADD10C,0.254000*%


D10*
X27940Y-49530D02*
X1638100Y-50800D01*
X1638100Y1025400D01*
X27940Y1026670D01*
X27940Y-49530D01*
X631600Y51548D02*
X631529Y50647D01*
X631388Y49755D01*
X631177Y48876D01*
X630898Y48017D01*
X630552Y47182D01*
X630141Y46377D01*
X629669Y45606D01*
X629138Y44875D01*
X628551Y44188D01*
X627912Y43549D01*
X627225Y42962D01*
X626494Y42431D01*
X625723Y41959D01*
X624918Y41548D01*
X624083Y41202D01*
X623224Y40923D01*
X622345Y40712D01*
X621453Y40571D01*
X620552Y40500D01*
X619648Y40500D01*
X618747Y40571D01*
X617855Y40712D01*
X616976Y40923D01*
X616117Y41202D01*
X615282Y41548D01*
X614477Y41959D01*
X613706Y42431D01*
X612975Y42962D01*
X612288Y43549D01*
X611649Y44188D01*
X611062Y44875D01*
X610531Y45606D01*
X610059Y46377D01*
X609648Y47182D01*
X609302Y48017D01*
X609023Y48876D01*
X608812Y49755D01*
X608671Y50647D01*
X608600Y51548D01*
X608600Y52452D01*
X608671Y53353D01*
X608812Y54245D01*
X609023Y55124D01*
X609302Y55983D01*
X609648Y56818D01*
X610059Y57623D01*
X610531Y58394D01*
X611062Y59125D01*
X611649Y59812D01*
X612288Y60451D01*
X612975Y61038D01*
X613706Y61569D01*
X614477Y62041D01*
X615282Y62452D01*
X616117Y62798D01*
X616976Y63077D01*
X617855Y63288D01*
X618747Y63429D01*
X619648Y63500D01*
X620552Y63500D01*
X621453Y63429D01*
X622345Y63288D01*
X623224Y63077D01*
X624083Y62798D01*
X624918Y62452D01*
X625723Y62041D01*
X626494Y61569D01*
X627225Y61038D01*
X627912Y60451D01*
X628551Y59812D01*
X629138Y59125D01*
X629669Y58394D01*
X630141Y57623D01*
X630552Y56818D01*
X630898Y55983D01*
X631177Y55124D01*
X631388Y54245D01*
X631529Y53353D01*
X631600Y52452D01*
X631600Y51548D01*
X763000Y51548D02*
X762929Y50647D01*
X762788Y49755D01*
X762577Y48876D01*
X762298Y48017D01*
X761952Y47182D01*
X761541Y46377D01*
X761069Y45606D01*
X760538Y44875D01*
X759951Y44188D01*
X759312Y43549D01*
X758625Y42962D01*
X757894Y42431D01*
X757123Y41959D01*
X756318Y41548D01*
X755483Y41202D01*
X754624Y40923D01*
X753745Y40712D01*
X752853Y40571D01*
X751952Y40500D01*
X751048Y40500D01*
X750147Y40571D01*
X749255Y40712D01*
X748376Y40923D01*
X747517Y41202D01*
X746682Y41548D01*
X745877Y41959D01*
X745106Y42431D01*
X744375Y42962D01*
X743688Y43549D01*
X743049Y44188D01*
X742462Y44875D01*
X741931Y45606D01*
X741459Y46377D01*
X741048Y47182D01*
X740702Y48017D01*
X740423Y48876D01*
X740212Y49755D01*
X740071Y50647D01*
X740000Y51548D01*
X740000Y52452D01*
X740071Y53353D01*
X740212Y54245D01*
X740423Y55124D01*
X740702Y55983D01*
X741048Y56818D01*
X741459Y57623D01*
X741931Y58394D01*
X742462Y59125D01*
X743049Y59812D01*
X743688Y60451D01*
X744375Y61038D01*
X745106Y61569D01*
X745877Y62041D01*
X746682Y62452D01*
X747517Y62798D01*
X748376Y63077D01*
X749255Y63288D01*
X750147Y63429D01*
X751048Y63500D01*
X751952Y63500D01*
X752853Y63429D01*
X753745Y63288D01*
X754624Y63077D01*
X755483Y62798D01*
X756318Y62452D01*
X757123Y62041D01*
X757894Y61569D01*
X758625Y61038D01*
X759312Y60451D01*
X759951Y59812D01*
X760538Y59125D01*
X761069Y58394D01*
X761541Y57623D01*
X761952Y56818D01*
X762298Y55983D01*
X762577Y55124D01*
X762788Y54245D01*
X762929Y53353D01*
X763000Y52452D01*
X763000Y51548D01*
M02*
