G04 EAGLE Gerber RS-274X export*
G75*
%MOMM*%
%FSLAX34Y34*%
%LPD*%
%INSilkscreen Bottom*%
%IPPOS*%
%AMOC8*
5,1,8,0,0,1.08239X$1,22.5*%
G01*
%ADD10C,0.304800*%
%ADD11C,0.127000*%
%ADD12C,0.101600*%
%ADD13C,0.177800*%
%ADD14C,0.150000*%
%ADD15C,0.076200*%
%ADD16C,0.152400*%
%ADD17C,0.050800*%


D10*
X157226Y153924D02*
X122174Y165608D01*
X157226Y177292D01*
X149437Y184446D02*
X157226Y194183D01*
X122174Y194183D01*
X122174Y184446D02*
X122174Y203920D01*
X122174Y213212D02*
X124121Y213212D01*
X124121Y215159D01*
X122174Y215159D01*
X122174Y213212D01*
X139700Y224452D02*
X140390Y224460D01*
X141079Y224485D01*
X141767Y224526D01*
X142454Y224584D01*
X143140Y224658D01*
X143823Y224748D01*
X144505Y224854D01*
X145183Y224977D01*
X145859Y225116D01*
X146531Y225271D01*
X147199Y225442D01*
X147862Y225629D01*
X148521Y225832D01*
X149176Y226050D01*
X149824Y226284D01*
X150467Y226534D01*
X151104Y226798D01*
X151734Y227078D01*
X152358Y227373D01*
X152358Y227372D02*
X152523Y227431D01*
X152686Y227494D01*
X152848Y227561D01*
X153009Y227632D01*
X153167Y227706D01*
X153324Y227785D01*
X153479Y227867D01*
X153632Y227953D01*
X153782Y228043D01*
X153930Y228136D01*
X154076Y228233D01*
X154220Y228333D01*
X154361Y228437D01*
X154500Y228544D01*
X154636Y228655D01*
X154769Y228769D01*
X154899Y228886D01*
X155027Y229006D01*
X155151Y229129D01*
X155273Y229256D01*
X155391Y229385D01*
X155507Y229517D01*
X155619Y229652D01*
X155727Y229789D01*
X155833Y229929D01*
X155934Y230072D01*
X156033Y230217D01*
X156128Y230364D01*
X156219Y230514D01*
X156306Y230666D01*
X156390Y230820D01*
X156470Y230976D01*
X156546Y231133D01*
X156619Y231293D01*
X156687Y231454D01*
X156752Y231617D01*
X156812Y231782D01*
X156869Y231948D01*
X156921Y232115D01*
X156970Y232283D01*
X157014Y232453D01*
X157054Y232623D01*
X157090Y232795D01*
X157122Y232967D01*
X157149Y233140D01*
X157173Y233314D01*
X157192Y233488D01*
X157207Y233663D01*
X157217Y233838D01*
X157224Y234013D01*
X157226Y234188D01*
X157224Y234363D01*
X157217Y234538D01*
X157207Y234713D01*
X157192Y234888D01*
X157173Y235062D01*
X157149Y235236D01*
X157122Y235409D01*
X157090Y235581D01*
X157054Y235753D01*
X157014Y235923D01*
X156970Y236093D01*
X156921Y236261D01*
X156869Y236428D01*
X156812Y236594D01*
X156752Y236759D01*
X156687Y236922D01*
X156619Y237083D01*
X156546Y237243D01*
X156470Y237401D01*
X156390Y237556D01*
X156306Y237710D01*
X156219Y237862D01*
X156128Y238012D01*
X156033Y238159D01*
X155934Y238304D01*
X155833Y238447D01*
X155727Y238587D01*
X155619Y238724D01*
X155507Y238859D01*
X155391Y238991D01*
X155273Y239120D01*
X155151Y239247D01*
X155027Y239370D01*
X154899Y239490D01*
X154769Y239607D01*
X154636Y239721D01*
X154500Y239832D01*
X154361Y239939D01*
X154220Y240043D01*
X154076Y240143D01*
X153930Y240240D01*
X153782Y240333D01*
X153631Y240423D01*
X153479Y240509D01*
X153324Y240591D01*
X153167Y240670D01*
X153009Y240744D01*
X152848Y240815D01*
X152686Y240882D01*
X152523Y240945D01*
X152358Y241004D01*
X152358Y241003D02*
X151734Y241298D01*
X151104Y241578D01*
X150467Y241842D01*
X149824Y242092D01*
X149176Y242326D01*
X148521Y242544D01*
X147862Y242747D01*
X147199Y242934D01*
X146531Y243105D01*
X145859Y243260D01*
X145183Y243399D01*
X144505Y243522D01*
X143823Y243628D01*
X143140Y243718D01*
X142454Y243792D01*
X141767Y243850D01*
X141079Y243891D01*
X140390Y243916D01*
X139700Y243924D01*
X139700Y224451D02*
X139010Y224459D01*
X138321Y224484D01*
X137633Y224525D01*
X136946Y224583D01*
X136260Y224657D01*
X135576Y224747D01*
X134895Y224853D01*
X134217Y224976D01*
X133541Y225115D01*
X132869Y225270D01*
X132201Y225441D01*
X131537Y225628D01*
X130878Y225831D01*
X130224Y226049D01*
X129576Y226283D01*
X128933Y226533D01*
X128296Y226797D01*
X127666Y227077D01*
X127042Y227372D01*
X126877Y227431D01*
X126714Y227494D01*
X126552Y227561D01*
X126391Y227632D01*
X126233Y227706D01*
X126076Y227785D01*
X125921Y227867D01*
X125768Y227953D01*
X125618Y228043D01*
X125470Y228136D01*
X125323Y228233D01*
X125180Y228333D01*
X125039Y228437D01*
X124900Y228544D01*
X124764Y228655D01*
X124631Y228769D01*
X124501Y228886D01*
X124373Y229006D01*
X124249Y229129D01*
X124127Y229256D01*
X124009Y229385D01*
X123893Y229517D01*
X123781Y229652D01*
X123673Y229789D01*
X123567Y229929D01*
X123466Y230072D01*
X123367Y230217D01*
X123272Y230364D01*
X123181Y230514D01*
X123094Y230666D01*
X123010Y230820D01*
X122930Y230976D01*
X122854Y231133D01*
X122781Y231293D01*
X122713Y231454D01*
X122648Y231617D01*
X122588Y231782D01*
X122531Y231948D01*
X122479Y232115D01*
X122430Y232283D01*
X122386Y232453D01*
X122346Y232623D01*
X122310Y232795D01*
X122278Y232967D01*
X122251Y233140D01*
X122227Y233314D01*
X122208Y233488D01*
X122193Y233663D01*
X122183Y233838D01*
X122176Y234013D01*
X122174Y234188D01*
X127042Y241004D02*
X127666Y241299D01*
X128296Y241579D01*
X128933Y241843D01*
X129576Y242093D01*
X130224Y242327D01*
X130878Y242545D01*
X131537Y242748D01*
X132201Y242935D01*
X132869Y243106D01*
X133541Y243261D01*
X134217Y243400D01*
X134895Y243523D01*
X135576Y243629D01*
X136260Y243719D01*
X136946Y243793D01*
X137633Y243851D01*
X138321Y243892D01*
X139010Y243917D01*
X139700Y243925D01*
X127042Y241004D02*
X126877Y240945D01*
X126714Y240882D01*
X126552Y240815D01*
X126391Y240744D01*
X126233Y240670D01*
X126076Y240591D01*
X125921Y240509D01*
X125768Y240423D01*
X125618Y240333D01*
X125470Y240240D01*
X125324Y240143D01*
X125180Y240043D01*
X125039Y239939D01*
X124900Y239832D01*
X124764Y239721D01*
X124631Y239607D01*
X124501Y239490D01*
X124373Y239370D01*
X124249Y239247D01*
X124127Y239120D01*
X124009Y238991D01*
X123893Y238859D01*
X123781Y238724D01*
X123673Y238587D01*
X123567Y238447D01*
X123466Y238304D01*
X123367Y238159D01*
X123272Y238012D01*
X123181Y237862D01*
X123094Y237710D01*
X123010Y237556D01*
X122930Y237401D01*
X122854Y237243D01*
X122781Y237083D01*
X122713Y236922D01*
X122648Y236759D01*
X122588Y236594D01*
X122531Y236428D01*
X122479Y236261D01*
X122430Y236093D01*
X122386Y235923D01*
X122346Y235753D01*
X122310Y235581D01*
X122278Y235409D01*
X122251Y235236D01*
X122227Y235062D01*
X122208Y234888D01*
X122193Y234713D01*
X122183Y234538D01*
X122176Y234363D01*
X122174Y234188D01*
X129963Y226399D02*
X149437Y241977D01*
X157226Y269219D02*
X122174Y269219D01*
X157226Y269219D02*
X157226Y278956D01*
X157223Y279191D01*
X157215Y279426D01*
X157200Y279661D01*
X157181Y279896D01*
X157155Y280130D01*
X157124Y280363D01*
X157087Y280595D01*
X157045Y280827D01*
X156997Y281057D01*
X156943Y281286D01*
X156884Y281514D01*
X156819Y281740D01*
X156749Y281965D01*
X156674Y282188D01*
X156593Y282409D01*
X156507Y282628D01*
X156416Y282845D01*
X156319Y283059D01*
X156218Y283271D01*
X156111Y283481D01*
X155999Y283688D01*
X155882Y283892D01*
X155760Y284094D01*
X155634Y284292D01*
X155502Y284487D01*
X155366Y284679D01*
X155226Y284868D01*
X155081Y285053D01*
X154931Y285235D01*
X154777Y285413D01*
X154619Y285587D01*
X154457Y285757D01*
X154290Y285924D01*
X154120Y286086D01*
X153946Y286244D01*
X153768Y286398D01*
X153586Y286548D01*
X153401Y286693D01*
X153212Y286833D01*
X153020Y286969D01*
X152825Y287101D01*
X152627Y287227D01*
X152425Y287349D01*
X152221Y287466D01*
X152014Y287578D01*
X151804Y287685D01*
X151592Y287786D01*
X151378Y287883D01*
X151161Y287974D01*
X150942Y288060D01*
X150721Y288141D01*
X150498Y288216D01*
X150273Y288286D01*
X150047Y288351D01*
X149819Y288410D01*
X149590Y288464D01*
X149360Y288512D01*
X149128Y288554D01*
X148896Y288591D01*
X148663Y288622D01*
X148429Y288648D01*
X148194Y288667D01*
X147959Y288682D01*
X147724Y288690D01*
X147489Y288693D01*
X147489Y288692D02*
X131911Y288692D01*
X131911Y288693D02*
X131672Y288690D01*
X131433Y288681D01*
X131195Y288667D01*
X130957Y288646D01*
X130719Y288620D01*
X130482Y288588D01*
X130246Y288550D01*
X130011Y288506D01*
X129778Y288456D01*
X129545Y288401D01*
X129314Y288340D01*
X129085Y288274D01*
X128857Y288202D01*
X128631Y288124D01*
X128407Y288041D01*
X128185Y287952D01*
X127965Y287858D01*
X127748Y287758D01*
X127533Y287653D01*
X127321Y287543D01*
X127112Y287428D01*
X126905Y287308D01*
X126702Y287182D01*
X126501Y287052D01*
X126304Y286917D01*
X126111Y286777D01*
X125921Y286632D01*
X125734Y286483D01*
X125551Y286329D01*
X125372Y286171D01*
X125197Y286008D01*
X125026Y285841D01*
X124859Y285670D01*
X124696Y285495D01*
X124538Y285316D01*
X124384Y285133D01*
X124235Y284947D01*
X124090Y284756D01*
X123950Y284563D01*
X123815Y284366D01*
X123685Y284165D01*
X123559Y283962D01*
X123439Y283755D01*
X123324Y283546D01*
X123214Y283334D01*
X123109Y283119D01*
X123009Y282902D01*
X122915Y282682D01*
X122826Y282460D01*
X122743Y282236D01*
X122665Y282010D01*
X122593Y281783D01*
X122527Y281553D01*
X122466Y281322D01*
X122411Y281089D01*
X122361Y280856D01*
X122317Y280621D01*
X122279Y280385D01*
X122247Y280148D01*
X122221Y279910D01*
X122200Y279672D01*
X122186Y279434D01*
X122177Y279195D01*
X122174Y278956D01*
X122174Y269219D01*
X135805Y305629D02*
X135805Y314392D01*
X135806Y305629D02*
X135804Y305463D01*
X135798Y305297D01*
X135788Y305131D01*
X135774Y304966D01*
X135756Y304801D01*
X135733Y304637D01*
X135707Y304473D01*
X135677Y304309D01*
X135643Y304147D01*
X135605Y303985D01*
X135563Y303825D01*
X135517Y303665D01*
X135467Y303507D01*
X135414Y303350D01*
X135356Y303194D01*
X135295Y303040D01*
X135230Y302887D01*
X135162Y302736D01*
X135089Y302586D01*
X135013Y302439D01*
X134934Y302293D01*
X134851Y302149D01*
X134764Y302008D01*
X134675Y301868D01*
X134581Y301731D01*
X134485Y301596D01*
X134385Y301463D01*
X134282Y301333D01*
X134176Y301206D01*
X134066Y301081D01*
X133954Y300958D01*
X133839Y300839D01*
X133721Y300722D01*
X133600Y300608D01*
X133476Y300498D01*
X133350Y300390D01*
X133221Y300285D01*
X133090Y300184D01*
X132956Y300086D01*
X132820Y299991D01*
X132681Y299899D01*
X132541Y299811D01*
X132398Y299726D01*
X132253Y299645D01*
X132107Y299567D01*
X131958Y299493D01*
X131808Y299423D01*
X131656Y299356D01*
X131502Y299293D01*
X131347Y299234D01*
X131191Y299178D01*
X131033Y299126D01*
X130874Y299079D01*
X130714Y299035D01*
X130553Y298995D01*
X130391Y298959D01*
X130228Y298926D01*
X130064Y298898D01*
X129900Y298874D01*
X129735Y298854D01*
X129570Y298838D01*
X129405Y298826D01*
X129239Y298818D01*
X129073Y298814D01*
X128907Y298814D01*
X128741Y298818D01*
X128575Y298826D01*
X128410Y298838D01*
X128245Y298854D01*
X128080Y298874D01*
X127916Y298898D01*
X127752Y298926D01*
X127589Y298959D01*
X127427Y298995D01*
X127266Y299035D01*
X127106Y299079D01*
X126947Y299126D01*
X126789Y299178D01*
X126633Y299234D01*
X126478Y299293D01*
X126324Y299356D01*
X126172Y299423D01*
X126022Y299493D01*
X125873Y299567D01*
X125727Y299645D01*
X125582Y299726D01*
X125439Y299811D01*
X125299Y299899D01*
X125160Y299991D01*
X125024Y300086D01*
X124890Y300184D01*
X124759Y300285D01*
X124630Y300390D01*
X124504Y300498D01*
X124380Y300608D01*
X124259Y300722D01*
X124141Y300839D01*
X124026Y300958D01*
X123914Y301081D01*
X123804Y301206D01*
X123698Y301333D01*
X123595Y301463D01*
X123495Y301596D01*
X123399Y301731D01*
X123305Y301868D01*
X123216Y302008D01*
X123129Y302149D01*
X123046Y302293D01*
X122967Y302439D01*
X122891Y302586D01*
X122818Y302736D01*
X122750Y302887D01*
X122685Y303040D01*
X122624Y303194D01*
X122566Y303350D01*
X122513Y303507D01*
X122463Y303665D01*
X122417Y303825D01*
X122375Y303985D01*
X122337Y304147D01*
X122303Y304309D01*
X122273Y304473D01*
X122247Y304637D01*
X122224Y304801D01*
X122206Y304966D01*
X122192Y305131D01*
X122182Y305297D01*
X122176Y305463D01*
X122174Y305629D01*
X122174Y314392D01*
X139700Y314392D01*
X139850Y314390D01*
X140001Y314384D01*
X140151Y314375D01*
X140301Y314361D01*
X140450Y314344D01*
X140599Y314322D01*
X140747Y314297D01*
X140895Y314268D01*
X141042Y314236D01*
X141188Y314199D01*
X141333Y314159D01*
X141477Y314115D01*
X141619Y314068D01*
X141761Y314016D01*
X141901Y313962D01*
X142039Y313903D01*
X142177Y313841D01*
X142312Y313776D01*
X142446Y313707D01*
X142577Y313634D01*
X142707Y313558D01*
X142835Y313479D01*
X142961Y313397D01*
X143085Y313311D01*
X143206Y313223D01*
X143326Y313131D01*
X143442Y313036D01*
X143557Y312938D01*
X143668Y312837D01*
X143777Y312734D01*
X143884Y312627D01*
X143987Y312518D01*
X144088Y312407D01*
X144186Y312292D01*
X144281Y312176D01*
X144373Y312056D01*
X144461Y311935D01*
X144547Y311811D01*
X144629Y311685D01*
X144708Y311557D01*
X144784Y311427D01*
X144857Y311296D01*
X144926Y311162D01*
X144991Y311027D01*
X145053Y310889D01*
X145112Y310751D01*
X145166Y310611D01*
X145218Y310469D01*
X145265Y310327D01*
X145309Y310183D01*
X145349Y310038D01*
X145386Y309892D01*
X145418Y309745D01*
X145447Y309597D01*
X145472Y309449D01*
X145494Y309300D01*
X145511Y309151D01*
X145525Y309001D01*
X145534Y308851D01*
X145540Y308700D01*
X145542Y308550D01*
X145542Y300760D01*
X145542Y322686D02*
X145542Y334370D01*
X157226Y326580D02*
X128016Y326580D01*
X127866Y326582D01*
X127715Y326588D01*
X127565Y326597D01*
X127415Y326611D01*
X127266Y326628D01*
X127117Y326650D01*
X126969Y326675D01*
X126821Y326704D01*
X126674Y326736D01*
X126528Y326773D01*
X126383Y326813D01*
X126239Y326857D01*
X126097Y326904D01*
X125955Y326956D01*
X125815Y327010D01*
X125677Y327069D01*
X125539Y327131D01*
X125404Y327196D01*
X125270Y327265D01*
X125139Y327338D01*
X125009Y327414D01*
X124881Y327493D01*
X124755Y327575D01*
X124631Y327661D01*
X124510Y327749D01*
X124390Y327841D01*
X124274Y327936D01*
X124159Y328034D01*
X124048Y328135D01*
X123939Y328238D01*
X123832Y328345D01*
X123729Y328454D01*
X123628Y328565D01*
X123530Y328680D01*
X123435Y328796D01*
X123343Y328916D01*
X123255Y329037D01*
X123169Y329161D01*
X123087Y329287D01*
X123008Y329415D01*
X122932Y329545D01*
X122859Y329676D01*
X122790Y329810D01*
X122725Y329945D01*
X122663Y330083D01*
X122604Y330221D01*
X122550Y330361D01*
X122498Y330503D01*
X122451Y330645D01*
X122407Y330789D01*
X122367Y330934D01*
X122330Y331080D01*
X122298Y331227D01*
X122269Y331375D01*
X122244Y331523D01*
X122222Y331672D01*
X122205Y331821D01*
X122191Y331971D01*
X122182Y332121D01*
X122176Y332272D01*
X122174Y332422D01*
X122174Y334370D01*
X122174Y348446D02*
X122174Y358182D01*
X122174Y348446D02*
X122176Y348296D01*
X122182Y348145D01*
X122191Y347995D01*
X122205Y347845D01*
X122222Y347696D01*
X122244Y347547D01*
X122269Y347399D01*
X122298Y347251D01*
X122330Y347104D01*
X122367Y346958D01*
X122407Y346813D01*
X122451Y346669D01*
X122498Y346527D01*
X122550Y346385D01*
X122604Y346245D01*
X122663Y346107D01*
X122725Y345969D01*
X122790Y345834D01*
X122859Y345700D01*
X122932Y345569D01*
X123008Y345439D01*
X123087Y345311D01*
X123169Y345185D01*
X123255Y345061D01*
X123343Y344940D01*
X123435Y344820D01*
X123530Y344704D01*
X123628Y344589D01*
X123729Y344478D01*
X123832Y344369D01*
X123939Y344262D01*
X124048Y344159D01*
X124159Y344058D01*
X124274Y343960D01*
X124390Y343865D01*
X124510Y343773D01*
X124631Y343685D01*
X124755Y343599D01*
X124881Y343517D01*
X125009Y343438D01*
X125139Y343362D01*
X125270Y343289D01*
X125404Y343220D01*
X125539Y343155D01*
X125677Y343093D01*
X125815Y343034D01*
X125955Y342980D01*
X126097Y342928D01*
X126239Y342881D01*
X126383Y342837D01*
X126528Y342797D01*
X126674Y342760D01*
X126821Y342728D01*
X126969Y342699D01*
X127117Y342674D01*
X127266Y342652D01*
X127415Y342635D01*
X127565Y342621D01*
X127715Y342612D01*
X127866Y342606D01*
X128016Y342604D01*
X137753Y342604D01*
X137943Y342606D01*
X138132Y342613D01*
X138322Y342625D01*
X138511Y342641D01*
X138699Y342662D01*
X138887Y342687D01*
X139074Y342717D01*
X139261Y342751D01*
X139447Y342790D01*
X139631Y342834D01*
X139815Y342882D01*
X139997Y342934D01*
X140178Y342991D01*
X140357Y343052D01*
X140535Y343118D01*
X140712Y343188D01*
X140886Y343262D01*
X141059Y343340D01*
X141230Y343423D01*
X141399Y343510D01*
X141565Y343601D01*
X141729Y343695D01*
X141891Y343794D01*
X142051Y343897D01*
X142208Y344004D01*
X142362Y344114D01*
X142513Y344228D01*
X142662Y344346D01*
X142808Y344467D01*
X142951Y344592D01*
X143090Y344720D01*
X143227Y344852D01*
X143360Y344987D01*
X143490Y345125D01*
X143617Y345266D01*
X143740Y345411D01*
X143860Y345558D01*
X143975Y345708D01*
X144088Y345861D01*
X144196Y346017D01*
X144301Y346175D01*
X144402Y346335D01*
X144498Y346499D01*
X144591Y346664D01*
X144680Y346832D01*
X144765Y347001D01*
X144845Y347173D01*
X144922Y347347D01*
X144994Y347522D01*
X145061Y347699D01*
X145125Y347878D01*
X145184Y348058D01*
X145239Y348240D01*
X145289Y348423D01*
X145334Y348607D01*
X145376Y348792D01*
X145412Y348978D01*
X145445Y349165D01*
X145472Y349353D01*
X145495Y349541D01*
X145514Y349730D01*
X145528Y349919D01*
X145537Y350109D01*
X145541Y350298D01*
X145541Y350488D01*
X145537Y350677D01*
X145528Y350867D01*
X145514Y351056D01*
X145495Y351245D01*
X145472Y351433D01*
X145445Y351621D01*
X145412Y351808D01*
X145376Y351994D01*
X145334Y352179D01*
X145289Y352363D01*
X145239Y352546D01*
X145184Y352728D01*
X145125Y352908D01*
X145061Y353087D01*
X144994Y353264D01*
X144922Y353439D01*
X144845Y353613D01*
X144765Y353785D01*
X144680Y353954D01*
X144591Y354122D01*
X144498Y354288D01*
X144402Y354451D01*
X144301Y354611D01*
X144196Y354769D01*
X144088Y354925D01*
X143975Y355078D01*
X143860Y355228D01*
X143740Y355375D01*
X143617Y355520D01*
X143490Y355661D01*
X143360Y355799D01*
X143227Y355934D01*
X143090Y356066D01*
X142951Y356194D01*
X142808Y356319D01*
X142662Y356440D01*
X142513Y356558D01*
X142362Y356672D01*
X142208Y356782D01*
X142051Y356889D01*
X141891Y356992D01*
X141729Y357091D01*
X141565Y357185D01*
X141399Y357276D01*
X141230Y357363D01*
X141059Y357446D01*
X140886Y357524D01*
X140712Y357598D01*
X140535Y357668D01*
X140357Y357734D01*
X140178Y357795D01*
X139997Y357852D01*
X139815Y357904D01*
X139631Y357952D01*
X139447Y357996D01*
X139261Y358035D01*
X139074Y358069D01*
X138887Y358099D01*
X138699Y358124D01*
X138511Y358145D01*
X138322Y358161D01*
X138132Y358173D01*
X137943Y358180D01*
X137753Y358182D01*
X133858Y358182D01*
X133858Y342604D01*
X157226Y393277D02*
X157223Y393489D01*
X157216Y393700D01*
X157203Y393912D01*
X157185Y394123D01*
X157162Y394333D01*
X157134Y394543D01*
X157101Y394752D01*
X157063Y394961D01*
X157020Y395168D01*
X156971Y395374D01*
X156918Y395579D01*
X156860Y395783D01*
X156797Y395985D01*
X156729Y396186D01*
X156657Y396384D01*
X156579Y396581D01*
X156497Y396777D01*
X156410Y396970D01*
X156318Y397161D01*
X156222Y397349D01*
X156122Y397536D01*
X156016Y397719D01*
X155907Y397901D01*
X155793Y398079D01*
X155675Y398255D01*
X155552Y398428D01*
X155426Y398598D01*
X155295Y398764D01*
X155161Y398928D01*
X155022Y399088D01*
X154880Y399245D01*
X154734Y399398D01*
X154584Y399548D01*
X154431Y399694D01*
X154274Y399836D01*
X154114Y399975D01*
X153950Y400109D01*
X153784Y400240D01*
X153614Y400366D01*
X153441Y400489D01*
X153265Y400607D01*
X153087Y400721D01*
X152905Y400830D01*
X152722Y400936D01*
X152535Y401036D01*
X152347Y401132D01*
X152156Y401224D01*
X151963Y401311D01*
X151767Y401393D01*
X151570Y401471D01*
X151372Y401543D01*
X151171Y401611D01*
X150969Y401674D01*
X150765Y401732D01*
X150560Y401785D01*
X150354Y401834D01*
X150147Y401877D01*
X149938Y401915D01*
X149729Y401948D01*
X149519Y401976D01*
X149309Y401999D01*
X149098Y402017D01*
X148886Y402030D01*
X148675Y402037D01*
X148463Y402040D01*
X157226Y393277D02*
X157223Y393005D01*
X157213Y392733D01*
X157196Y392461D01*
X157173Y392190D01*
X157144Y391919D01*
X157108Y391649D01*
X157065Y391380D01*
X157016Y391112D01*
X156960Y390846D01*
X156898Y390581D01*
X156830Y390317D01*
X156755Y390055D01*
X156674Y389796D01*
X156587Y389538D01*
X156493Y389282D01*
X156394Y389029D01*
X156288Y388778D01*
X156176Y388529D01*
X156058Y388284D01*
X155935Y388041D01*
X155805Y387802D01*
X155670Y387566D01*
X155529Y387333D01*
X155382Y387103D01*
X155230Y386877D01*
X155073Y386655D01*
X154910Y386437D01*
X154742Y386223D01*
X154569Y386013D01*
X154391Y385807D01*
X154208Y385605D01*
X154020Y385408D01*
X153827Y385216D01*
X153630Y385028D01*
X153428Y384845D01*
X153222Y384668D01*
X153012Y384495D01*
X152797Y384327D01*
X152579Y384164D01*
X152356Y384007D01*
X152130Y383855D01*
X151901Y383709D01*
X151668Y383568D01*
X151431Y383433D01*
X151192Y383304D01*
X150949Y383181D01*
X150703Y383063D01*
X150455Y382952D01*
X150204Y382846D01*
X149950Y382747D01*
X149695Y382654D01*
X149437Y382567D01*
X141647Y399118D02*
X141809Y399283D01*
X141974Y399445D01*
X142143Y399602D01*
X142316Y399755D01*
X142493Y399903D01*
X142673Y400048D01*
X142857Y400187D01*
X143044Y400323D01*
X143235Y400453D01*
X143428Y400579D01*
X143625Y400700D01*
X143825Y400817D01*
X144027Y400928D01*
X144232Y401034D01*
X144440Y401136D01*
X144650Y401232D01*
X144862Y401323D01*
X145076Y401409D01*
X145293Y401489D01*
X145511Y401564D01*
X145731Y401634D01*
X145953Y401698D01*
X146177Y401757D01*
X146401Y401810D01*
X146627Y401858D01*
X146854Y401900D01*
X147082Y401937D01*
X147311Y401968D01*
X147541Y401994D01*
X147771Y402014D01*
X148001Y402028D01*
X148232Y402036D01*
X148463Y402039D01*
X141647Y399119D02*
X122174Y382566D01*
X122174Y402040D01*
X149437Y411141D02*
X157226Y420878D01*
X122174Y420878D01*
X122174Y411141D02*
X122174Y430615D01*
X135805Y439674D02*
X135805Y463042D01*
X137753Y479891D02*
X137753Y491575D01*
X137753Y479891D02*
X137755Y479703D01*
X137762Y479515D01*
X137773Y479327D01*
X137789Y479139D01*
X137810Y478952D01*
X137835Y478766D01*
X137864Y478580D01*
X137898Y478395D01*
X137937Y478210D01*
X137979Y478027D01*
X138027Y477845D01*
X138078Y477664D01*
X138134Y477484D01*
X138195Y477306D01*
X138259Y477129D01*
X138328Y476954D01*
X138401Y476780D01*
X138478Y476609D01*
X138560Y476439D01*
X138645Y476271D01*
X138735Y476106D01*
X138828Y475942D01*
X138926Y475781D01*
X139027Y475623D01*
X139132Y475466D01*
X139241Y475313D01*
X139353Y475162D01*
X139469Y475014D01*
X139589Y474868D01*
X139712Y474726D01*
X139838Y474587D01*
X139968Y474450D01*
X140101Y474317D01*
X140238Y474187D01*
X140377Y474061D01*
X140519Y473938D01*
X140665Y473818D01*
X140813Y473702D01*
X140964Y473590D01*
X141117Y473481D01*
X141274Y473376D01*
X141432Y473274D01*
X141593Y473177D01*
X141757Y473084D01*
X141922Y472994D01*
X142090Y472909D01*
X142260Y472827D01*
X142431Y472750D01*
X142605Y472677D01*
X142780Y472608D01*
X142957Y472544D01*
X143135Y472483D01*
X143315Y472427D01*
X143496Y472376D01*
X143678Y472328D01*
X143861Y472285D01*
X144046Y472247D01*
X144231Y472213D01*
X144417Y472184D01*
X144603Y472159D01*
X144790Y472138D01*
X144978Y472122D01*
X145166Y472111D01*
X145354Y472104D01*
X145542Y472102D01*
X145542Y472101D02*
X147489Y472101D01*
X147726Y472104D01*
X147963Y472113D01*
X148200Y472127D01*
X148436Y472147D01*
X148672Y472173D01*
X148907Y472205D01*
X149141Y472242D01*
X149374Y472285D01*
X149606Y472334D01*
X149837Y472388D01*
X150066Y472448D01*
X150294Y472514D01*
X150520Y472585D01*
X150745Y472661D01*
X150967Y472743D01*
X151188Y472831D01*
X151406Y472924D01*
X151622Y473022D01*
X151835Y473125D01*
X152046Y473233D01*
X152254Y473347D01*
X152460Y473465D01*
X152662Y473589D01*
X152862Y473717D01*
X153058Y473851D01*
X153251Y473989D01*
X153440Y474131D01*
X153626Y474278D01*
X153808Y474430D01*
X153987Y474586D01*
X154161Y474747D01*
X154332Y474911D01*
X154499Y475080D01*
X154661Y475252D01*
X154819Y475429D01*
X154973Y475610D01*
X155123Y475794D01*
X155268Y475981D01*
X155408Y476172D01*
X155544Y476367D01*
X155674Y476565D01*
X155800Y476766D01*
X155921Y476970D01*
X156038Y477176D01*
X156149Y477386D01*
X156254Y477598D01*
X156355Y477813D01*
X156450Y478030D01*
X156540Y478249D01*
X156625Y478471D01*
X156704Y478694D01*
X156778Y478919D01*
X156847Y479147D01*
X156909Y479375D01*
X156967Y479605D01*
X157018Y479837D01*
X157064Y480069D01*
X157104Y480303D01*
X157139Y480538D01*
X157168Y480773D01*
X157191Y481009D01*
X157208Y481246D01*
X157220Y481482D01*
X157225Y481719D01*
X157225Y481957D01*
X157220Y482194D01*
X157208Y482430D01*
X157191Y482667D01*
X157168Y482903D01*
X157139Y483138D01*
X157104Y483373D01*
X157064Y483607D01*
X157018Y483839D01*
X156967Y484071D01*
X156909Y484301D01*
X156847Y484529D01*
X156778Y484757D01*
X156704Y484982D01*
X156625Y485205D01*
X156540Y485427D01*
X156450Y485646D01*
X156355Y485863D01*
X156254Y486078D01*
X156149Y486290D01*
X156038Y486500D01*
X155921Y486707D01*
X155800Y486910D01*
X155674Y487111D01*
X155544Y487309D01*
X155408Y487504D01*
X155268Y487695D01*
X155123Y487882D01*
X154973Y488066D01*
X154819Y488247D01*
X154661Y488424D01*
X154499Y488596D01*
X154332Y488765D01*
X154161Y488929D01*
X153987Y489090D01*
X153808Y489246D01*
X153626Y489398D01*
X153440Y489545D01*
X153251Y489687D01*
X153058Y489825D01*
X152862Y489959D01*
X152662Y490087D01*
X152460Y490211D01*
X152254Y490329D01*
X152046Y490443D01*
X151835Y490551D01*
X151622Y490654D01*
X151406Y490752D01*
X151188Y490845D01*
X150967Y490933D01*
X150745Y491015D01*
X150520Y491091D01*
X150294Y491162D01*
X150066Y491228D01*
X149837Y491288D01*
X149606Y491342D01*
X149374Y491391D01*
X149141Y491434D01*
X148907Y491471D01*
X148672Y491503D01*
X148436Y491529D01*
X148200Y491549D01*
X147963Y491563D01*
X147726Y491572D01*
X147489Y491575D01*
X137753Y491575D01*
X137371Y491570D01*
X136989Y491556D01*
X136607Y491533D01*
X136226Y491500D01*
X135846Y491458D01*
X135467Y491406D01*
X135090Y491346D01*
X134714Y491276D01*
X134340Y491196D01*
X133968Y491108D01*
X133598Y491011D01*
X133231Y490904D01*
X132866Y490789D01*
X132505Y490664D01*
X132146Y490531D01*
X131791Y490389D01*
X131440Y490238D01*
X131092Y490079D01*
X130749Y489912D01*
X130409Y489735D01*
X130074Y489551D01*
X129744Y489359D01*
X129418Y489158D01*
X129098Y488949D01*
X128782Y488733D01*
X128473Y488509D01*
X128168Y488278D01*
X127870Y488039D01*
X127577Y487793D01*
X127291Y487539D01*
X127011Y487279D01*
X126737Y487012D01*
X126470Y486738D01*
X126210Y486458D01*
X125956Y486172D01*
X125710Y485879D01*
X125471Y485581D01*
X125240Y485276D01*
X125016Y484967D01*
X124800Y484651D01*
X124591Y484331D01*
X124390Y484005D01*
X124198Y483675D01*
X124014Y483340D01*
X123837Y483001D01*
X123670Y482657D01*
X123511Y482309D01*
X123360Y481958D01*
X123218Y481603D01*
X123085Y481244D01*
X122960Y480883D01*
X122845Y480518D01*
X122738Y480151D01*
X122641Y479781D01*
X122553Y479409D01*
X122473Y479035D01*
X122403Y478659D01*
X122343Y478282D01*
X122291Y477903D01*
X122249Y477523D01*
X122216Y477142D01*
X122193Y476760D01*
X122179Y476378D01*
X122174Y475996D01*
X135805Y500634D02*
X135805Y524002D01*
X157226Y543772D02*
X157223Y543984D01*
X157216Y544195D01*
X157203Y544407D01*
X157185Y544618D01*
X157162Y544828D01*
X157134Y545038D01*
X157101Y545247D01*
X157063Y545456D01*
X157020Y545663D01*
X156971Y545869D01*
X156918Y546074D01*
X156860Y546278D01*
X156797Y546480D01*
X156729Y546681D01*
X156657Y546879D01*
X156579Y547076D01*
X156497Y547272D01*
X156410Y547465D01*
X156318Y547656D01*
X156222Y547844D01*
X156122Y548031D01*
X156016Y548214D01*
X155907Y548396D01*
X155793Y548574D01*
X155675Y548750D01*
X155552Y548923D01*
X155426Y549093D01*
X155295Y549259D01*
X155161Y549423D01*
X155022Y549583D01*
X154880Y549740D01*
X154734Y549893D01*
X154584Y550043D01*
X154431Y550189D01*
X154274Y550331D01*
X154114Y550470D01*
X153950Y550604D01*
X153784Y550735D01*
X153614Y550861D01*
X153441Y550984D01*
X153265Y551102D01*
X153087Y551216D01*
X152905Y551325D01*
X152722Y551431D01*
X152535Y551531D01*
X152347Y551627D01*
X152156Y551719D01*
X151963Y551806D01*
X151767Y551888D01*
X151570Y551966D01*
X151372Y552038D01*
X151171Y552106D01*
X150969Y552169D01*
X150765Y552227D01*
X150560Y552280D01*
X150354Y552329D01*
X150147Y552372D01*
X149938Y552410D01*
X149729Y552443D01*
X149519Y552471D01*
X149309Y552494D01*
X149098Y552512D01*
X148886Y552525D01*
X148675Y552532D01*
X148463Y552535D01*
X157226Y543772D02*
X157223Y543500D01*
X157213Y543228D01*
X157196Y542956D01*
X157173Y542685D01*
X157144Y542414D01*
X157108Y542144D01*
X157065Y541875D01*
X157016Y541607D01*
X156960Y541341D01*
X156898Y541076D01*
X156830Y540812D01*
X156755Y540550D01*
X156674Y540291D01*
X156587Y540033D01*
X156493Y539777D01*
X156394Y539524D01*
X156288Y539273D01*
X156176Y539024D01*
X156058Y538779D01*
X155935Y538536D01*
X155805Y538297D01*
X155670Y538061D01*
X155529Y537828D01*
X155382Y537598D01*
X155230Y537372D01*
X155073Y537150D01*
X154910Y536932D01*
X154742Y536718D01*
X154569Y536508D01*
X154391Y536302D01*
X154208Y536100D01*
X154020Y535903D01*
X153827Y535711D01*
X153630Y535523D01*
X153428Y535340D01*
X153222Y535163D01*
X153012Y534990D01*
X152797Y534822D01*
X152579Y534659D01*
X152356Y534502D01*
X152130Y534350D01*
X151901Y534204D01*
X151668Y534063D01*
X151431Y533928D01*
X151192Y533799D01*
X150949Y533676D01*
X150703Y533558D01*
X150455Y533447D01*
X150204Y533341D01*
X149950Y533242D01*
X149695Y533149D01*
X149437Y533062D01*
X141647Y549613D02*
X141809Y549778D01*
X141974Y549940D01*
X142143Y550097D01*
X142316Y550250D01*
X142493Y550398D01*
X142673Y550543D01*
X142857Y550682D01*
X143044Y550818D01*
X143235Y550948D01*
X143428Y551074D01*
X143625Y551195D01*
X143825Y551312D01*
X144027Y551423D01*
X144232Y551529D01*
X144440Y551631D01*
X144650Y551727D01*
X144862Y551818D01*
X145076Y551904D01*
X145293Y551984D01*
X145511Y552059D01*
X145731Y552129D01*
X145953Y552193D01*
X146177Y552252D01*
X146401Y552305D01*
X146627Y552353D01*
X146854Y552395D01*
X147082Y552432D01*
X147311Y552463D01*
X147541Y552489D01*
X147771Y552509D01*
X148001Y552523D01*
X148232Y552531D01*
X148463Y552534D01*
X141647Y549614D02*
X122174Y533061D01*
X122174Y552535D01*
X139700Y561637D02*
X140390Y561645D01*
X141079Y561670D01*
X141767Y561711D01*
X142454Y561769D01*
X143140Y561843D01*
X143823Y561933D01*
X144505Y562039D01*
X145183Y562162D01*
X145859Y562301D01*
X146531Y562456D01*
X147199Y562627D01*
X147862Y562814D01*
X148521Y563017D01*
X149176Y563235D01*
X149824Y563469D01*
X150467Y563719D01*
X151104Y563983D01*
X151734Y564263D01*
X152358Y564558D01*
X152358Y564557D02*
X152523Y564616D01*
X152686Y564679D01*
X152848Y564746D01*
X153009Y564817D01*
X153167Y564891D01*
X153324Y564970D01*
X153479Y565052D01*
X153632Y565138D01*
X153782Y565228D01*
X153930Y565321D01*
X154076Y565418D01*
X154220Y565518D01*
X154361Y565622D01*
X154500Y565729D01*
X154636Y565840D01*
X154769Y565954D01*
X154899Y566071D01*
X155027Y566191D01*
X155151Y566314D01*
X155273Y566441D01*
X155391Y566570D01*
X155507Y566702D01*
X155619Y566837D01*
X155727Y566974D01*
X155833Y567114D01*
X155934Y567257D01*
X156033Y567402D01*
X156128Y567549D01*
X156219Y567699D01*
X156306Y567851D01*
X156390Y568005D01*
X156470Y568161D01*
X156546Y568318D01*
X156619Y568478D01*
X156687Y568639D01*
X156752Y568802D01*
X156812Y568967D01*
X156869Y569133D01*
X156921Y569300D01*
X156970Y569468D01*
X157014Y569638D01*
X157054Y569808D01*
X157090Y569980D01*
X157122Y570152D01*
X157149Y570325D01*
X157173Y570499D01*
X157192Y570673D01*
X157207Y570848D01*
X157217Y571023D01*
X157224Y571198D01*
X157226Y571373D01*
X157224Y571548D01*
X157217Y571723D01*
X157207Y571898D01*
X157192Y572073D01*
X157173Y572247D01*
X157149Y572421D01*
X157122Y572594D01*
X157090Y572766D01*
X157054Y572938D01*
X157014Y573108D01*
X156970Y573278D01*
X156921Y573446D01*
X156869Y573613D01*
X156812Y573779D01*
X156752Y573944D01*
X156687Y574107D01*
X156619Y574268D01*
X156546Y574428D01*
X156470Y574586D01*
X156390Y574741D01*
X156306Y574895D01*
X156219Y575047D01*
X156128Y575197D01*
X156033Y575344D01*
X155934Y575489D01*
X155833Y575632D01*
X155727Y575772D01*
X155619Y575909D01*
X155507Y576044D01*
X155391Y576176D01*
X155273Y576305D01*
X155151Y576432D01*
X155027Y576555D01*
X154899Y576675D01*
X154769Y576792D01*
X154636Y576906D01*
X154500Y577017D01*
X154361Y577124D01*
X154220Y577228D01*
X154076Y577328D01*
X153930Y577425D01*
X153782Y577518D01*
X153631Y577608D01*
X153479Y577694D01*
X153324Y577776D01*
X153167Y577855D01*
X153009Y577929D01*
X152848Y578000D01*
X152686Y578067D01*
X152523Y578130D01*
X152358Y578189D01*
X152358Y578188D02*
X151734Y578483D01*
X151104Y578763D01*
X150467Y579027D01*
X149824Y579277D01*
X149176Y579511D01*
X148521Y579729D01*
X147862Y579932D01*
X147199Y580119D01*
X146531Y580290D01*
X145859Y580445D01*
X145183Y580584D01*
X144505Y580707D01*
X143823Y580813D01*
X143140Y580903D01*
X142454Y580977D01*
X141767Y581035D01*
X141079Y581076D01*
X140390Y581101D01*
X139700Y581109D01*
X139700Y561636D02*
X139010Y561644D01*
X138321Y561669D01*
X137633Y561710D01*
X136946Y561768D01*
X136260Y561842D01*
X135576Y561932D01*
X134895Y562038D01*
X134217Y562161D01*
X133541Y562300D01*
X132869Y562455D01*
X132201Y562626D01*
X131537Y562813D01*
X130878Y563016D01*
X130224Y563234D01*
X129576Y563468D01*
X128933Y563718D01*
X128296Y563982D01*
X127666Y564262D01*
X127042Y564557D01*
X126877Y564616D01*
X126714Y564679D01*
X126552Y564746D01*
X126391Y564817D01*
X126233Y564891D01*
X126076Y564970D01*
X125921Y565052D01*
X125768Y565138D01*
X125618Y565228D01*
X125470Y565321D01*
X125323Y565418D01*
X125180Y565518D01*
X125039Y565622D01*
X124900Y565729D01*
X124764Y565840D01*
X124631Y565954D01*
X124501Y566071D01*
X124373Y566191D01*
X124249Y566314D01*
X124127Y566441D01*
X124009Y566570D01*
X123893Y566702D01*
X123781Y566837D01*
X123673Y566974D01*
X123567Y567114D01*
X123466Y567257D01*
X123367Y567402D01*
X123272Y567549D01*
X123181Y567699D01*
X123094Y567851D01*
X123010Y568005D01*
X122930Y568161D01*
X122854Y568318D01*
X122781Y568478D01*
X122713Y568639D01*
X122648Y568802D01*
X122588Y568967D01*
X122531Y569133D01*
X122479Y569300D01*
X122430Y569468D01*
X122386Y569638D01*
X122346Y569808D01*
X122310Y569980D01*
X122278Y570152D01*
X122251Y570325D01*
X122227Y570499D01*
X122208Y570673D01*
X122193Y570848D01*
X122183Y571023D01*
X122176Y571198D01*
X122174Y571373D01*
X127042Y578189D02*
X127666Y578484D01*
X128296Y578764D01*
X128933Y579028D01*
X129576Y579278D01*
X130224Y579512D01*
X130878Y579730D01*
X131537Y579933D01*
X132201Y580120D01*
X132869Y580291D01*
X133541Y580446D01*
X134217Y580585D01*
X134895Y580708D01*
X135576Y580814D01*
X136260Y580904D01*
X136946Y580978D01*
X137633Y581036D01*
X138321Y581077D01*
X139010Y581102D01*
X139700Y581110D01*
X127042Y578189D02*
X126877Y578130D01*
X126714Y578067D01*
X126552Y578000D01*
X126391Y577929D01*
X126233Y577855D01*
X126076Y577776D01*
X125921Y577694D01*
X125768Y577608D01*
X125618Y577518D01*
X125470Y577425D01*
X125324Y577328D01*
X125180Y577228D01*
X125039Y577124D01*
X124900Y577017D01*
X124764Y576906D01*
X124631Y576792D01*
X124501Y576675D01*
X124373Y576555D01*
X124249Y576432D01*
X124127Y576305D01*
X124009Y576176D01*
X123893Y576044D01*
X123781Y575909D01*
X123673Y575772D01*
X123567Y575632D01*
X123466Y575489D01*
X123367Y575344D01*
X123272Y575197D01*
X123181Y575047D01*
X123094Y574895D01*
X123010Y574741D01*
X122930Y574586D01*
X122854Y574428D01*
X122781Y574268D01*
X122713Y574107D01*
X122648Y573944D01*
X122588Y573779D01*
X122531Y573613D01*
X122479Y573446D01*
X122430Y573278D01*
X122386Y573108D01*
X122346Y572938D01*
X122310Y572766D01*
X122278Y572594D01*
X122251Y572421D01*
X122227Y572247D01*
X122208Y572073D01*
X122193Y571898D01*
X122183Y571723D01*
X122176Y571548D01*
X122174Y571373D01*
X129963Y563584D02*
X149437Y579162D01*
X100076Y153924D02*
X65024Y153924D01*
X100076Y153924D02*
X100076Y169503D01*
X84497Y169503D02*
X84497Y153924D01*
X100076Y178703D02*
X65024Y178703D01*
X100076Y178703D02*
X100076Y188440D01*
X100073Y188675D01*
X100065Y188910D01*
X100050Y189145D01*
X100031Y189380D01*
X100005Y189614D01*
X99974Y189847D01*
X99937Y190079D01*
X99895Y190311D01*
X99847Y190541D01*
X99793Y190770D01*
X99734Y190998D01*
X99669Y191224D01*
X99599Y191449D01*
X99524Y191672D01*
X99443Y191893D01*
X99357Y192112D01*
X99266Y192329D01*
X99169Y192543D01*
X99068Y192755D01*
X98961Y192965D01*
X98849Y193172D01*
X98732Y193376D01*
X98610Y193578D01*
X98484Y193776D01*
X98352Y193971D01*
X98216Y194163D01*
X98076Y194352D01*
X97931Y194537D01*
X97781Y194719D01*
X97627Y194897D01*
X97469Y195071D01*
X97307Y195241D01*
X97140Y195408D01*
X96970Y195570D01*
X96796Y195728D01*
X96618Y195882D01*
X96436Y196032D01*
X96251Y196177D01*
X96062Y196317D01*
X95870Y196453D01*
X95675Y196585D01*
X95477Y196711D01*
X95275Y196833D01*
X95071Y196950D01*
X94864Y197062D01*
X94654Y197169D01*
X94442Y197270D01*
X94228Y197367D01*
X94011Y197458D01*
X93792Y197544D01*
X93571Y197625D01*
X93348Y197700D01*
X93123Y197770D01*
X92897Y197835D01*
X92669Y197894D01*
X92440Y197948D01*
X92210Y197996D01*
X91978Y198038D01*
X91746Y198075D01*
X91513Y198106D01*
X91279Y198132D01*
X91044Y198151D01*
X90809Y198166D01*
X90574Y198174D01*
X90339Y198177D01*
X90339Y198176D02*
X74761Y198176D01*
X74761Y198177D02*
X74522Y198174D01*
X74283Y198165D01*
X74045Y198151D01*
X73807Y198130D01*
X73569Y198104D01*
X73332Y198072D01*
X73096Y198034D01*
X72861Y197990D01*
X72628Y197940D01*
X72395Y197885D01*
X72164Y197824D01*
X71935Y197758D01*
X71707Y197686D01*
X71481Y197608D01*
X71257Y197525D01*
X71035Y197436D01*
X70815Y197342D01*
X70598Y197242D01*
X70383Y197137D01*
X70171Y197027D01*
X69962Y196912D01*
X69755Y196792D01*
X69552Y196666D01*
X69351Y196536D01*
X69154Y196401D01*
X68961Y196261D01*
X68771Y196116D01*
X68584Y195967D01*
X68401Y195813D01*
X68222Y195655D01*
X68047Y195492D01*
X67876Y195325D01*
X67709Y195154D01*
X67546Y194979D01*
X67388Y194800D01*
X67234Y194617D01*
X67085Y194431D01*
X66940Y194240D01*
X66800Y194047D01*
X66665Y193850D01*
X66535Y193649D01*
X66409Y193446D01*
X66289Y193239D01*
X66174Y193030D01*
X66064Y192818D01*
X65959Y192603D01*
X65859Y192386D01*
X65765Y192166D01*
X65676Y191944D01*
X65593Y191720D01*
X65515Y191494D01*
X65443Y191267D01*
X65377Y191037D01*
X65316Y190806D01*
X65261Y190573D01*
X65211Y190340D01*
X65167Y190105D01*
X65129Y189869D01*
X65097Y189632D01*
X65071Y189394D01*
X65050Y189156D01*
X65036Y188918D01*
X65027Y188679D01*
X65024Y188440D01*
X65024Y178703D01*
X65024Y209141D02*
X100076Y209141D01*
X80603Y220825D01*
X100076Y232509D01*
X65024Y232509D01*
X65024Y258671D02*
X100076Y258671D01*
X80603Y270355D01*
X100076Y282039D01*
X65024Y282039D01*
X72813Y292093D02*
X80603Y292093D01*
X80793Y292095D01*
X80982Y292102D01*
X81172Y292114D01*
X81361Y292130D01*
X81549Y292151D01*
X81737Y292176D01*
X81924Y292206D01*
X82111Y292240D01*
X82297Y292279D01*
X82481Y292323D01*
X82665Y292371D01*
X82847Y292423D01*
X83028Y292480D01*
X83207Y292541D01*
X83385Y292607D01*
X83562Y292677D01*
X83736Y292751D01*
X83909Y292829D01*
X84080Y292912D01*
X84249Y292999D01*
X84415Y293090D01*
X84579Y293184D01*
X84741Y293283D01*
X84901Y293386D01*
X85058Y293493D01*
X85212Y293603D01*
X85363Y293717D01*
X85512Y293835D01*
X85658Y293956D01*
X85801Y294081D01*
X85940Y294209D01*
X86077Y294341D01*
X86210Y294476D01*
X86340Y294614D01*
X86467Y294755D01*
X86590Y294900D01*
X86710Y295047D01*
X86825Y295197D01*
X86938Y295350D01*
X87046Y295506D01*
X87151Y295664D01*
X87252Y295824D01*
X87348Y295988D01*
X87441Y296153D01*
X87530Y296321D01*
X87615Y296490D01*
X87695Y296662D01*
X87772Y296836D01*
X87844Y297011D01*
X87911Y297188D01*
X87975Y297367D01*
X88034Y297547D01*
X88089Y297729D01*
X88139Y297912D01*
X88184Y298096D01*
X88226Y298281D01*
X88262Y298467D01*
X88295Y298654D01*
X88322Y298842D01*
X88345Y299030D01*
X88364Y299219D01*
X88378Y299408D01*
X88387Y299598D01*
X88391Y299787D01*
X88391Y299977D01*
X88387Y300166D01*
X88378Y300356D01*
X88364Y300545D01*
X88345Y300734D01*
X88322Y300922D01*
X88295Y301110D01*
X88262Y301297D01*
X88226Y301483D01*
X88184Y301668D01*
X88139Y301852D01*
X88089Y302035D01*
X88034Y302217D01*
X87975Y302397D01*
X87911Y302576D01*
X87844Y302753D01*
X87772Y302928D01*
X87695Y303102D01*
X87615Y303274D01*
X87530Y303443D01*
X87441Y303611D01*
X87348Y303777D01*
X87252Y303940D01*
X87151Y304100D01*
X87046Y304258D01*
X86938Y304414D01*
X86825Y304567D01*
X86710Y304717D01*
X86590Y304864D01*
X86467Y305009D01*
X86340Y305150D01*
X86210Y305288D01*
X86077Y305423D01*
X85940Y305555D01*
X85801Y305683D01*
X85658Y305808D01*
X85512Y305929D01*
X85363Y306047D01*
X85212Y306161D01*
X85058Y306271D01*
X84901Y306378D01*
X84741Y306481D01*
X84579Y306580D01*
X84415Y306674D01*
X84249Y306765D01*
X84080Y306852D01*
X83909Y306935D01*
X83736Y307013D01*
X83562Y307087D01*
X83385Y307157D01*
X83207Y307223D01*
X83028Y307284D01*
X82847Y307341D01*
X82665Y307393D01*
X82481Y307441D01*
X82297Y307485D01*
X82111Y307524D01*
X81924Y307558D01*
X81737Y307588D01*
X81549Y307613D01*
X81361Y307634D01*
X81172Y307650D01*
X80982Y307662D01*
X80793Y307669D01*
X80603Y307671D01*
X80603Y307672D02*
X72813Y307672D01*
X72813Y307671D02*
X72623Y307669D01*
X72434Y307662D01*
X72244Y307650D01*
X72055Y307634D01*
X71867Y307613D01*
X71679Y307588D01*
X71492Y307558D01*
X71305Y307524D01*
X71119Y307485D01*
X70935Y307441D01*
X70751Y307393D01*
X70569Y307341D01*
X70388Y307284D01*
X70209Y307223D01*
X70031Y307157D01*
X69854Y307087D01*
X69680Y307013D01*
X69507Y306935D01*
X69336Y306852D01*
X69167Y306765D01*
X69001Y306674D01*
X68837Y306580D01*
X68675Y306481D01*
X68515Y306378D01*
X68358Y306271D01*
X68204Y306161D01*
X68053Y306047D01*
X67904Y305929D01*
X67758Y305808D01*
X67615Y305683D01*
X67476Y305555D01*
X67339Y305423D01*
X67206Y305288D01*
X67076Y305150D01*
X66949Y305009D01*
X66826Y304864D01*
X66706Y304717D01*
X66591Y304567D01*
X66478Y304414D01*
X66370Y304258D01*
X66265Y304100D01*
X66164Y303940D01*
X66068Y303777D01*
X65975Y303611D01*
X65886Y303443D01*
X65801Y303274D01*
X65721Y303102D01*
X65644Y302928D01*
X65572Y302753D01*
X65505Y302576D01*
X65441Y302397D01*
X65382Y302217D01*
X65327Y302035D01*
X65277Y301852D01*
X65232Y301668D01*
X65190Y301483D01*
X65154Y301297D01*
X65121Y301110D01*
X65094Y300922D01*
X65071Y300734D01*
X65052Y300545D01*
X65038Y300356D01*
X65029Y300166D01*
X65025Y299977D01*
X65025Y299787D01*
X65029Y299598D01*
X65038Y299408D01*
X65052Y299219D01*
X65071Y299030D01*
X65094Y298842D01*
X65121Y298654D01*
X65154Y298467D01*
X65190Y298281D01*
X65232Y298096D01*
X65277Y297912D01*
X65327Y297729D01*
X65382Y297547D01*
X65441Y297367D01*
X65505Y297188D01*
X65572Y297011D01*
X65644Y296836D01*
X65721Y296662D01*
X65801Y296490D01*
X65886Y296321D01*
X65975Y296153D01*
X66068Y295987D01*
X66164Y295824D01*
X66265Y295664D01*
X66370Y295506D01*
X66478Y295350D01*
X66591Y295197D01*
X66706Y295047D01*
X66826Y294900D01*
X66949Y294755D01*
X67076Y294614D01*
X67206Y294476D01*
X67339Y294341D01*
X67476Y294209D01*
X67615Y294081D01*
X67758Y293956D01*
X67904Y293835D01*
X68053Y293717D01*
X68204Y293603D01*
X68358Y293493D01*
X68515Y293386D01*
X68675Y293283D01*
X68837Y293184D01*
X69001Y293090D01*
X69167Y292999D01*
X69336Y292912D01*
X69507Y292829D01*
X69680Y292751D01*
X69854Y292677D01*
X70031Y292607D01*
X70209Y292541D01*
X70388Y292480D01*
X70569Y292423D01*
X70751Y292371D01*
X70935Y292323D01*
X71119Y292279D01*
X71305Y292240D01*
X71492Y292206D01*
X71679Y292176D01*
X71867Y292151D01*
X72055Y292130D01*
X72244Y292114D01*
X72434Y292102D01*
X72623Y292095D01*
X72813Y292093D01*
X88392Y315038D02*
X88392Y326722D01*
X100076Y318932D02*
X70866Y318932D01*
X70716Y318934D01*
X70565Y318940D01*
X70415Y318949D01*
X70265Y318963D01*
X70116Y318980D01*
X69967Y319002D01*
X69819Y319027D01*
X69671Y319056D01*
X69524Y319088D01*
X69378Y319125D01*
X69233Y319165D01*
X69089Y319209D01*
X68947Y319256D01*
X68805Y319308D01*
X68665Y319362D01*
X68527Y319421D01*
X68389Y319483D01*
X68254Y319548D01*
X68120Y319617D01*
X67989Y319690D01*
X67859Y319766D01*
X67731Y319845D01*
X67605Y319927D01*
X67481Y320013D01*
X67360Y320101D01*
X67240Y320193D01*
X67124Y320288D01*
X67009Y320386D01*
X66898Y320487D01*
X66789Y320590D01*
X66682Y320697D01*
X66579Y320806D01*
X66478Y320917D01*
X66380Y321032D01*
X66285Y321148D01*
X66193Y321268D01*
X66105Y321389D01*
X66019Y321513D01*
X65937Y321639D01*
X65858Y321767D01*
X65782Y321897D01*
X65709Y322028D01*
X65640Y322162D01*
X65575Y322297D01*
X65513Y322435D01*
X65454Y322573D01*
X65400Y322713D01*
X65348Y322855D01*
X65301Y322997D01*
X65257Y323141D01*
X65217Y323286D01*
X65180Y323432D01*
X65148Y323579D01*
X65119Y323727D01*
X65094Y323875D01*
X65072Y324024D01*
X65055Y324173D01*
X65041Y324323D01*
X65032Y324473D01*
X65026Y324624D01*
X65024Y324774D01*
X65024Y326722D01*
X65024Y335908D02*
X100076Y335908D01*
X88392Y335908D02*
X88392Y345645D01*
X88390Y345795D01*
X88384Y345946D01*
X88375Y346096D01*
X88361Y346246D01*
X88344Y346395D01*
X88322Y346544D01*
X88297Y346692D01*
X88268Y346840D01*
X88236Y346987D01*
X88199Y347133D01*
X88159Y347278D01*
X88115Y347422D01*
X88068Y347564D01*
X88016Y347706D01*
X87962Y347846D01*
X87903Y347984D01*
X87841Y348122D01*
X87776Y348257D01*
X87707Y348391D01*
X87634Y348522D01*
X87558Y348652D01*
X87479Y348780D01*
X87397Y348906D01*
X87311Y349030D01*
X87223Y349151D01*
X87131Y349271D01*
X87036Y349387D01*
X86938Y349502D01*
X86837Y349613D01*
X86734Y349722D01*
X86627Y349829D01*
X86518Y349932D01*
X86407Y350033D01*
X86292Y350131D01*
X86176Y350226D01*
X86056Y350318D01*
X85935Y350406D01*
X85811Y350492D01*
X85685Y350574D01*
X85557Y350653D01*
X85427Y350729D01*
X85296Y350802D01*
X85162Y350871D01*
X85027Y350936D01*
X84889Y350998D01*
X84751Y351057D01*
X84611Y351111D01*
X84469Y351163D01*
X84327Y351210D01*
X84183Y351254D01*
X84038Y351294D01*
X83892Y351331D01*
X83745Y351363D01*
X83597Y351392D01*
X83449Y351417D01*
X83300Y351439D01*
X83151Y351456D01*
X83001Y351470D01*
X82851Y351479D01*
X82700Y351485D01*
X82550Y351487D01*
X65024Y351487D01*
X65024Y367467D02*
X65024Y377204D01*
X65024Y367467D02*
X65026Y367317D01*
X65032Y367166D01*
X65041Y367016D01*
X65055Y366866D01*
X65072Y366717D01*
X65094Y366568D01*
X65119Y366420D01*
X65148Y366272D01*
X65180Y366125D01*
X65217Y365979D01*
X65257Y365834D01*
X65301Y365690D01*
X65348Y365548D01*
X65400Y365406D01*
X65454Y365266D01*
X65513Y365128D01*
X65575Y364990D01*
X65640Y364855D01*
X65709Y364721D01*
X65782Y364590D01*
X65858Y364460D01*
X65937Y364332D01*
X66019Y364206D01*
X66105Y364082D01*
X66193Y363961D01*
X66285Y363841D01*
X66380Y363725D01*
X66478Y363610D01*
X66579Y363499D01*
X66682Y363390D01*
X66789Y363283D01*
X66898Y363180D01*
X67009Y363079D01*
X67124Y362981D01*
X67240Y362886D01*
X67360Y362794D01*
X67481Y362706D01*
X67605Y362620D01*
X67731Y362538D01*
X67859Y362459D01*
X67989Y362383D01*
X68120Y362310D01*
X68254Y362241D01*
X68389Y362176D01*
X68527Y362114D01*
X68665Y362055D01*
X68805Y362001D01*
X68947Y361949D01*
X69089Y361902D01*
X69233Y361858D01*
X69378Y361818D01*
X69524Y361781D01*
X69671Y361749D01*
X69819Y361720D01*
X69967Y361695D01*
X70116Y361673D01*
X70265Y361656D01*
X70415Y361642D01*
X70565Y361633D01*
X70716Y361627D01*
X70866Y361625D01*
X80603Y361625D01*
X80603Y361626D02*
X80793Y361628D01*
X80982Y361635D01*
X81172Y361647D01*
X81361Y361663D01*
X81549Y361684D01*
X81737Y361709D01*
X81924Y361739D01*
X82111Y361773D01*
X82297Y361812D01*
X82481Y361856D01*
X82665Y361904D01*
X82847Y361956D01*
X83028Y362013D01*
X83207Y362074D01*
X83385Y362140D01*
X83562Y362210D01*
X83736Y362284D01*
X83909Y362362D01*
X84080Y362445D01*
X84249Y362532D01*
X84415Y362623D01*
X84579Y362717D01*
X84741Y362816D01*
X84901Y362919D01*
X85058Y363026D01*
X85212Y363136D01*
X85363Y363250D01*
X85512Y363368D01*
X85658Y363489D01*
X85801Y363614D01*
X85940Y363742D01*
X86077Y363874D01*
X86210Y364009D01*
X86340Y364147D01*
X86467Y364288D01*
X86590Y364433D01*
X86710Y364580D01*
X86825Y364730D01*
X86938Y364883D01*
X87046Y365039D01*
X87151Y365197D01*
X87252Y365357D01*
X87348Y365521D01*
X87441Y365686D01*
X87530Y365854D01*
X87615Y366023D01*
X87695Y366195D01*
X87772Y366369D01*
X87844Y366544D01*
X87911Y366721D01*
X87975Y366900D01*
X88034Y367080D01*
X88089Y367262D01*
X88139Y367445D01*
X88184Y367629D01*
X88226Y367814D01*
X88262Y368000D01*
X88295Y368187D01*
X88322Y368375D01*
X88345Y368563D01*
X88364Y368752D01*
X88378Y368941D01*
X88387Y369131D01*
X88391Y369320D01*
X88391Y369510D01*
X88387Y369699D01*
X88378Y369889D01*
X88364Y370078D01*
X88345Y370267D01*
X88322Y370455D01*
X88295Y370643D01*
X88262Y370830D01*
X88226Y371016D01*
X88184Y371201D01*
X88139Y371385D01*
X88089Y371568D01*
X88034Y371750D01*
X87975Y371930D01*
X87911Y372109D01*
X87844Y372286D01*
X87772Y372461D01*
X87695Y372635D01*
X87615Y372807D01*
X87530Y372976D01*
X87441Y373144D01*
X87348Y373310D01*
X87252Y373473D01*
X87151Y373633D01*
X87046Y373791D01*
X86938Y373947D01*
X86825Y374100D01*
X86710Y374250D01*
X86590Y374397D01*
X86467Y374542D01*
X86340Y374683D01*
X86210Y374821D01*
X86077Y374956D01*
X85940Y375088D01*
X85801Y375216D01*
X85658Y375341D01*
X85512Y375462D01*
X85363Y375580D01*
X85212Y375694D01*
X85058Y375804D01*
X84901Y375911D01*
X84741Y376014D01*
X84579Y376113D01*
X84415Y376207D01*
X84249Y376298D01*
X84080Y376385D01*
X83909Y376468D01*
X83736Y376546D01*
X83562Y376620D01*
X83385Y376690D01*
X83207Y376756D01*
X83028Y376817D01*
X82847Y376874D01*
X82665Y376926D01*
X82481Y376974D01*
X82297Y377018D01*
X82111Y377057D01*
X81924Y377091D01*
X81737Y377121D01*
X81549Y377146D01*
X81361Y377167D01*
X81172Y377183D01*
X80982Y377195D01*
X80793Y377202D01*
X80603Y377204D01*
X76708Y377204D01*
X76708Y361625D01*
X65024Y387309D02*
X88392Y387309D01*
X88392Y398993D01*
X84497Y398993D01*
X100076Y407321D02*
X65024Y407321D01*
X65024Y417058D01*
X65026Y417208D01*
X65032Y417359D01*
X65041Y417509D01*
X65055Y417659D01*
X65072Y417808D01*
X65094Y417957D01*
X65119Y418105D01*
X65148Y418253D01*
X65180Y418400D01*
X65217Y418546D01*
X65257Y418691D01*
X65301Y418835D01*
X65348Y418977D01*
X65400Y419119D01*
X65454Y419259D01*
X65513Y419397D01*
X65575Y419535D01*
X65640Y419670D01*
X65709Y419804D01*
X65782Y419935D01*
X65858Y420065D01*
X65937Y420193D01*
X66019Y420319D01*
X66105Y420443D01*
X66193Y420564D01*
X66285Y420684D01*
X66380Y420800D01*
X66478Y420915D01*
X66579Y421026D01*
X66682Y421135D01*
X66789Y421242D01*
X66898Y421345D01*
X67009Y421446D01*
X67124Y421544D01*
X67240Y421639D01*
X67360Y421731D01*
X67481Y421819D01*
X67605Y421905D01*
X67731Y421987D01*
X67859Y422066D01*
X67989Y422142D01*
X68120Y422215D01*
X68254Y422284D01*
X68389Y422349D01*
X68527Y422411D01*
X68665Y422470D01*
X68805Y422524D01*
X68947Y422576D01*
X69089Y422623D01*
X69233Y422667D01*
X69378Y422707D01*
X69524Y422744D01*
X69671Y422776D01*
X69819Y422805D01*
X69967Y422830D01*
X70116Y422852D01*
X70265Y422869D01*
X70415Y422883D01*
X70565Y422892D01*
X70716Y422898D01*
X70866Y422900D01*
X82550Y422900D01*
X82700Y422898D01*
X82851Y422892D01*
X83001Y422883D01*
X83151Y422869D01*
X83300Y422852D01*
X83449Y422830D01*
X83597Y422805D01*
X83745Y422776D01*
X83892Y422744D01*
X84038Y422707D01*
X84183Y422667D01*
X84327Y422623D01*
X84469Y422576D01*
X84611Y422524D01*
X84751Y422470D01*
X84889Y422411D01*
X85027Y422349D01*
X85162Y422284D01*
X85296Y422215D01*
X85427Y422142D01*
X85557Y422066D01*
X85685Y421987D01*
X85811Y421905D01*
X85935Y421819D01*
X86056Y421731D01*
X86176Y421639D01*
X86292Y421544D01*
X86407Y421446D01*
X86518Y421345D01*
X86627Y421242D01*
X86734Y421135D01*
X86837Y421026D01*
X86938Y420915D01*
X87036Y420800D01*
X87131Y420684D01*
X87223Y420564D01*
X87311Y420443D01*
X87397Y420319D01*
X87479Y420193D01*
X87558Y420065D01*
X87634Y419935D01*
X87707Y419804D01*
X87776Y419670D01*
X87841Y419535D01*
X87903Y419397D01*
X87962Y419259D01*
X88016Y419119D01*
X88068Y418977D01*
X88115Y418835D01*
X88159Y418691D01*
X88199Y418546D01*
X88236Y418400D01*
X88268Y418253D01*
X88297Y418105D01*
X88322Y417957D01*
X88344Y417808D01*
X88361Y417659D01*
X88375Y417509D01*
X88384Y417359D01*
X88390Y417208D01*
X88392Y417058D01*
X88392Y407321D01*
X80603Y432110D02*
X72813Y432110D01*
X80603Y432111D02*
X80793Y432113D01*
X80982Y432120D01*
X81172Y432132D01*
X81361Y432148D01*
X81549Y432169D01*
X81737Y432194D01*
X81924Y432224D01*
X82111Y432258D01*
X82297Y432297D01*
X82481Y432341D01*
X82665Y432389D01*
X82847Y432441D01*
X83028Y432498D01*
X83207Y432559D01*
X83385Y432625D01*
X83562Y432695D01*
X83736Y432769D01*
X83909Y432847D01*
X84080Y432930D01*
X84249Y433017D01*
X84415Y433108D01*
X84579Y433202D01*
X84741Y433301D01*
X84901Y433404D01*
X85058Y433511D01*
X85212Y433621D01*
X85363Y433735D01*
X85512Y433853D01*
X85658Y433974D01*
X85801Y434099D01*
X85940Y434227D01*
X86077Y434359D01*
X86210Y434494D01*
X86340Y434632D01*
X86467Y434773D01*
X86590Y434918D01*
X86710Y435065D01*
X86825Y435215D01*
X86938Y435368D01*
X87046Y435524D01*
X87151Y435682D01*
X87252Y435842D01*
X87348Y436006D01*
X87441Y436171D01*
X87530Y436339D01*
X87615Y436508D01*
X87695Y436680D01*
X87772Y436854D01*
X87844Y437029D01*
X87911Y437206D01*
X87975Y437385D01*
X88034Y437565D01*
X88089Y437747D01*
X88139Y437930D01*
X88184Y438114D01*
X88226Y438299D01*
X88262Y438485D01*
X88295Y438672D01*
X88322Y438860D01*
X88345Y439048D01*
X88364Y439237D01*
X88378Y439426D01*
X88387Y439616D01*
X88391Y439805D01*
X88391Y439995D01*
X88387Y440184D01*
X88378Y440374D01*
X88364Y440563D01*
X88345Y440752D01*
X88322Y440940D01*
X88295Y441128D01*
X88262Y441315D01*
X88226Y441501D01*
X88184Y441686D01*
X88139Y441870D01*
X88089Y442053D01*
X88034Y442235D01*
X87975Y442415D01*
X87911Y442594D01*
X87844Y442771D01*
X87772Y442946D01*
X87695Y443120D01*
X87615Y443292D01*
X87530Y443461D01*
X87441Y443629D01*
X87348Y443795D01*
X87252Y443958D01*
X87151Y444118D01*
X87046Y444276D01*
X86938Y444432D01*
X86825Y444585D01*
X86710Y444735D01*
X86590Y444882D01*
X86467Y445027D01*
X86340Y445168D01*
X86210Y445306D01*
X86077Y445441D01*
X85940Y445573D01*
X85801Y445701D01*
X85658Y445826D01*
X85512Y445947D01*
X85363Y446065D01*
X85212Y446179D01*
X85058Y446289D01*
X84901Y446396D01*
X84741Y446499D01*
X84579Y446598D01*
X84415Y446692D01*
X84249Y446783D01*
X84080Y446870D01*
X83909Y446953D01*
X83736Y447031D01*
X83562Y447105D01*
X83385Y447175D01*
X83207Y447241D01*
X83028Y447302D01*
X82847Y447359D01*
X82665Y447411D01*
X82481Y447459D01*
X82297Y447503D01*
X82111Y447542D01*
X81924Y447576D01*
X81737Y447606D01*
X81549Y447631D01*
X81361Y447652D01*
X81172Y447668D01*
X80982Y447680D01*
X80793Y447687D01*
X80603Y447689D01*
X72813Y447689D01*
X72623Y447687D01*
X72434Y447680D01*
X72244Y447668D01*
X72055Y447652D01*
X71867Y447631D01*
X71679Y447606D01*
X71492Y447576D01*
X71305Y447542D01*
X71119Y447503D01*
X70935Y447459D01*
X70751Y447411D01*
X70569Y447359D01*
X70388Y447302D01*
X70209Y447241D01*
X70031Y447175D01*
X69854Y447105D01*
X69680Y447031D01*
X69507Y446953D01*
X69336Y446870D01*
X69167Y446783D01*
X69001Y446692D01*
X68837Y446598D01*
X68675Y446499D01*
X68515Y446396D01*
X68358Y446289D01*
X68204Y446179D01*
X68053Y446065D01*
X67904Y445947D01*
X67758Y445826D01*
X67615Y445701D01*
X67476Y445573D01*
X67339Y445441D01*
X67206Y445306D01*
X67076Y445168D01*
X66949Y445027D01*
X66826Y444882D01*
X66706Y444735D01*
X66591Y444585D01*
X66478Y444432D01*
X66370Y444276D01*
X66265Y444118D01*
X66164Y443958D01*
X66068Y443795D01*
X65975Y443629D01*
X65886Y443461D01*
X65801Y443292D01*
X65721Y443120D01*
X65644Y442946D01*
X65572Y442771D01*
X65505Y442594D01*
X65441Y442415D01*
X65382Y442235D01*
X65327Y442053D01*
X65277Y441870D01*
X65232Y441686D01*
X65190Y441501D01*
X65154Y441315D01*
X65121Y441128D01*
X65094Y440940D01*
X65071Y440752D01*
X65052Y440563D01*
X65038Y440374D01*
X65029Y440184D01*
X65025Y439995D01*
X65025Y439805D01*
X65029Y439616D01*
X65038Y439426D01*
X65052Y439237D01*
X65071Y439048D01*
X65094Y438860D01*
X65121Y438672D01*
X65154Y438485D01*
X65190Y438299D01*
X65232Y438114D01*
X65277Y437930D01*
X65327Y437747D01*
X65382Y437565D01*
X65441Y437385D01*
X65505Y437206D01*
X65572Y437029D01*
X65644Y436854D01*
X65721Y436680D01*
X65801Y436508D01*
X65886Y436339D01*
X65975Y436171D01*
X66068Y436005D01*
X66164Y435842D01*
X66265Y435682D01*
X66370Y435524D01*
X66478Y435368D01*
X66591Y435215D01*
X66706Y435065D01*
X66826Y434918D01*
X66949Y434773D01*
X67076Y434632D01*
X67206Y434494D01*
X67339Y434359D01*
X67476Y434227D01*
X67615Y434099D01*
X67758Y433974D01*
X67904Y433853D01*
X68053Y433735D01*
X68204Y433621D01*
X68358Y433511D01*
X68515Y433404D01*
X68675Y433301D01*
X68837Y433202D01*
X69001Y433108D01*
X69167Y433017D01*
X69336Y432930D01*
X69507Y432847D01*
X69680Y432769D01*
X69854Y432695D01*
X70031Y432625D01*
X70209Y432559D01*
X70388Y432498D01*
X70569Y432441D01*
X70751Y432389D01*
X70935Y432341D01*
X71119Y432297D01*
X71305Y432258D01*
X71492Y432224D01*
X71679Y432194D01*
X71867Y432169D01*
X72055Y432148D01*
X72244Y432132D01*
X72434Y432120D01*
X72623Y432113D01*
X72813Y432111D01*
X78655Y463715D02*
X78655Y472478D01*
X78656Y463715D02*
X78654Y463549D01*
X78648Y463383D01*
X78638Y463217D01*
X78624Y463052D01*
X78606Y462887D01*
X78583Y462723D01*
X78557Y462559D01*
X78527Y462395D01*
X78493Y462233D01*
X78455Y462071D01*
X78413Y461911D01*
X78367Y461751D01*
X78317Y461593D01*
X78264Y461436D01*
X78206Y461280D01*
X78145Y461126D01*
X78080Y460973D01*
X78012Y460822D01*
X77939Y460672D01*
X77863Y460525D01*
X77784Y460379D01*
X77701Y460235D01*
X77614Y460094D01*
X77525Y459954D01*
X77431Y459817D01*
X77335Y459682D01*
X77235Y459549D01*
X77132Y459419D01*
X77026Y459292D01*
X76916Y459167D01*
X76804Y459044D01*
X76689Y458925D01*
X76571Y458808D01*
X76450Y458694D01*
X76326Y458584D01*
X76200Y458476D01*
X76071Y458371D01*
X75940Y458270D01*
X75806Y458172D01*
X75670Y458077D01*
X75531Y457985D01*
X75391Y457897D01*
X75248Y457812D01*
X75103Y457731D01*
X74957Y457653D01*
X74808Y457579D01*
X74658Y457509D01*
X74506Y457442D01*
X74352Y457379D01*
X74197Y457320D01*
X74041Y457264D01*
X73883Y457212D01*
X73724Y457165D01*
X73564Y457121D01*
X73403Y457081D01*
X73241Y457045D01*
X73078Y457012D01*
X72914Y456984D01*
X72750Y456960D01*
X72585Y456940D01*
X72420Y456924D01*
X72255Y456912D01*
X72089Y456904D01*
X71923Y456900D01*
X71757Y456900D01*
X71591Y456904D01*
X71425Y456912D01*
X71260Y456924D01*
X71095Y456940D01*
X70930Y456960D01*
X70766Y456984D01*
X70602Y457012D01*
X70439Y457045D01*
X70277Y457081D01*
X70116Y457121D01*
X69956Y457165D01*
X69797Y457212D01*
X69639Y457264D01*
X69483Y457320D01*
X69328Y457379D01*
X69174Y457442D01*
X69022Y457509D01*
X68872Y457579D01*
X68723Y457653D01*
X68577Y457731D01*
X68432Y457812D01*
X68289Y457897D01*
X68149Y457985D01*
X68010Y458077D01*
X67874Y458172D01*
X67740Y458270D01*
X67609Y458371D01*
X67480Y458476D01*
X67354Y458584D01*
X67230Y458694D01*
X67109Y458808D01*
X66991Y458925D01*
X66876Y459044D01*
X66764Y459167D01*
X66654Y459292D01*
X66548Y459419D01*
X66445Y459549D01*
X66345Y459682D01*
X66249Y459817D01*
X66155Y459954D01*
X66066Y460094D01*
X65979Y460235D01*
X65896Y460379D01*
X65817Y460525D01*
X65741Y460672D01*
X65668Y460822D01*
X65600Y460973D01*
X65535Y461126D01*
X65474Y461280D01*
X65416Y461436D01*
X65363Y461593D01*
X65313Y461751D01*
X65267Y461911D01*
X65225Y462071D01*
X65187Y462233D01*
X65153Y462395D01*
X65123Y462559D01*
X65097Y462723D01*
X65074Y462887D01*
X65056Y463052D01*
X65042Y463217D01*
X65032Y463383D01*
X65026Y463549D01*
X65024Y463715D01*
X65024Y472478D01*
X82550Y472478D01*
X82700Y472476D01*
X82851Y472470D01*
X83001Y472461D01*
X83151Y472447D01*
X83300Y472430D01*
X83449Y472408D01*
X83597Y472383D01*
X83745Y472354D01*
X83892Y472322D01*
X84038Y472285D01*
X84183Y472245D01*
X84327Y472201D01*
X84469Y472154D01*
X84611Y472102D01*
X84751Y472048D01*
X84889Y471989D01*
X85027Y471927D01*
X85162Y471862D01*
X85296Y471793D01*
X85427Y471720D01*
X85557Y471644D01*
X85685Y471565D01*
X85811Y471483D01*
X85935Y471397D01*
X86056Y471309D01*
X86176Y471217D01*
X86292Y471122D01*
X86407Y471024D01*
X86518Y470923D01*
X86627Y470820D01*
X86734Y470713D01*
X86837Y470604D01*
X86938Y470493D01*
X87036Y470378D01*
X87131Y470262D01*
X87223Y470142D01*
X87311Y470021D01*
X87397Y469897D01*
X87479Y469771D01*
X87558Y469643D01*
X87634Y469513D01*
X87707Y469382D01*
X87776Y469248D01*
X87841Y469113D01*
X87903Y468975D01*
X87962Y468837D01*
X88016Y468697D01*
X88068Y468555D01*
X88115Y468413D01*
X88159Y468269D01*
X88199Y468124D01*
X88236Y467978D01*
X88268Y467831D01*
X88297Y467683D01*
X88322Y467535D01*
X88344Y467386D01*
X88361Y467237D01*
X88375Y467087D01*
X88384Y466937D01*
X88390Y466786D01*
X88392Y466636D01*
X88392Y458847D01*
X88392Y483511D02*
X65024Y483511D01*
X88392Y483511D02*
X88392Y495195D01*
X84497Y495195D01*
X100076Y518198D02*
X65024Y518198D01*
X65024Y508461D01*
X65026Y508311D01*
X65032Y508160D01*
X65041Y508010D01*
X65055Y507860D01*
X65072Y507711D01*
X65094Y507562D01*
X65119Y507414D01*
X65148Y507266D01*
X65180Y507119D01*
X65217Y506973D01*
X65257Y506828D01*
X65301Y506684D01*
X65348Y506542D01*
X65400Y506400D01*
X65454Y506260D01*
X65513Y506122D01*
X65575Y505984D01*
X65640Y505849D01*
X65709Y505715D01*
X65782Y505584D01*
X65858Y505454D01*
X65937Y505326D01*
X66019Y505200D01*
X66105Y505076D01*
X66193Y504955D01*
X66285Y504835D01*
X66380Y504719D01*
X66478Y504604D01*
X66579Y504493D01*
X66682Y504384D01*
X66789Y504277D01*
X66898Y504174D01*
X67009Y504073D01*
X67124Y503975D01*
X67240Y503880D01*
X67360Y503788D01*
X67481Y503700D01*
X67605Y503614D01*
X67731Y503532D01*
X67859Y503453D01*
X67989Y503377D01*
X68120Y503304D01*
X68254Y503235D01*
X68389Y503170D01*
X68527Y503108D01*
X68665Y503049D01*
X68805Y502995D01*
X68947Y502943D01*
X69089Y502896D01*
X69233Y502852D01*
X69378Y502812D01*
X69524Y502775D01*
X69671Y502743D01*
X69819Y502714D01*
X69967Y502689D01*
X70116Y502667D01*
X70265Y502650D01*
X70415Y502636D01*
X70565Y502627D01*
X70716Y502621D01*
X70866Y502619D01*
X82550Y502619D01*
X82700Y502621D01*
X82851Y502627D01*
X83001Y502636D01*
X83151Y502650D01*
X83300Y502667D01*
X83449Y502689D01*
X83597Y502714D01*
X83745Y502743D01*
X83892Y502775D01*
X84038Y502812D01*
X84183Y502852D01*
X84327Y502896D01*
X84469Y502943D01*
X84611Y502995D01*
X84751Y503049D01*
X84889Y503108D01*
X85027Y503170D01*
X85162Y503235D01*
X85296Y503304D01*
X85427Y503377D01*
X85557Y503453D01*
X85685Y503532D01*
X85811Y503614D01*
X85935Y503700D01*
X86056Y503788D01*
X86176Y503880D01*
X86292Y503975D01*
X86407Y504073D01*
X86518Y504174D01*
X86627Y504277D01*
X86734Y504384D01*
X86837Y504493D01*
X86938Y504604D01*
X87036Y504719D01*
X87131Y504835D01*
X87223Y504955D01*
X87311Y505076D01*
X87397Y505200D01*
X87479Y505326D01*
X87558Y505454D01*
X87634Y505584D01*
X87707Y505715D01*
X87776Y505849D01*
X87841Y505984D01*
X87903Y506122D01*
X87962Y506260D01*
X88016Y506400D01*
X88068Y506542D01*
X88115Y506684D01*
X88159Y506828D01*
X88199Y506973D01*
X88236Y507119D01*
X88268Y507266D01*
X88297Y507414D01*
X88322Y507562D01*
X88344Y507711D01*
X88361Y507860D01*
X88375Y508010D01*
X88384Y508160D01*
X88390Y508311D01*
X88392Y508461D01*
X88392Y518198D01*
D11*
X872919Y835279D02*
X873992Y835279D01*
X874057Y835281D01*
X874121Y835287D01*
X874185Y835297D01*
X874249Y835310D01*
X874311Y835328D01*
X874372Y835349D01*
X874432Y835373D01*
X874490Y835402D01*
X874547Y835434D01*
X874601Y835469D01*
X874653Y835507D01*
X874703Y835549D01*
X874750Y835593D01*
X874794Y835640D01*
X874836Y835690D01*
X874874Y835742D01*
X874909Y835796D01*
X874941Y835853D01*
X874970Y835911D01*
X874994Y835971D01*
X875015Y836032D01*
X875033Y836094D01*
X875046Y836158D01*
X875056Y836222D01*
X875062Y836286D01*
X875064Y836351D01*
X875064Y839033D01*
X875062Y839098D01*
X875056Y839162D01*
X875046Y839226D01*
X875033Y839290D01*
X875015Y839352D01*
X874994Y839413D01*
X874970Y839473D01*
X874941Y839531D01*
X874909Y839588D01*
X874874Y839642D01*
X874836Y839694D01*
X874794Y839744D01*
X874750Y839791D01*
X874703Y839835D01*
X874653Y839877D01*
X874601Y839915D01*
X874547Y839950D01*
X874490Y839982D01*
X874432Y840011D01*
X874372Y840035D01*
X874311Y840056D01*
X874249Y840074D01*
X874185Y840087D01*
X874121Y840097D01*
X874057Y840103D01*
X873992Y840105D01*
X872919Y840105D01*
X870463Y839033D02*
X869123Y840105D01*
X869123Y835279D01*
X870463Y835279D02*
X867782Y835279D01*
X864977Y836620D02*
X864975Y836691D01*
X864969Y836763D01*
X864960Y836833D01*
X864947Y836903D01*
X864930Y836973D01*
X864909Y837041D01*
X864885Y837108D01*
X864857Y837174D01*
X864826Y837238D01*
X864791Y837301D01*
X864753Y837361D01*
X864712Y837420D01*
X864668Y837476D01*
X864621Y837530D01*
X864572Y837581D01*
X864519Y837629D01*
X864464Y837675D01*
X864407Y837717D01*
X864347Y837757D01*
X864286Y837793D01*
X864222Y837826D01*
X864157Y837855D01*
X864091Y837881D01*
X864023Y837904D01*
X863954Y837923D01*
X863884Y837938D01*
X863814Y837949D01*
X863743Y837957D01*
X863672Y837961D01*
X863600Y837961D01*
X863529Y837957D01*
X863458Y837949D01*
X863388Y837938D01*
X863318Y837923D01*
X863249Y837904D01*
X863181Y837881D01*
X863115Y837855D01*
X863050Y837826D01*
X862986Y837793D01*
X862925Y837757D01*
X862865Y837717D01*
X862808Y837675D01*
X862753Y837629D01*
X862700Y837581D01*
X862651Y837530D01*
X862604Y837476D01*
X862560Y837420D01*
X862519Y837361D01*
X862481Y837301D01*
X862446Y837238D01*
X862415Y837174D01*
X862387Y837108D01*
X862363Y837041D01*
X862342Y836973D01*
X862325Y836903D01*
X862312Y836833D01*
X862303Y836763D01*
X862297Y836691D01*
X862295Y836620D01*
X862297Y836549D01*
X862303Y836477D01*
X862312Y836407D01*
X862325Y836337D01*
X862342Y836267D01*
X862363Y836199D01*
X862387Y836132D01*
X862415Y836066D01*
X862446Y836002D01*
X862481Y835939D01*
X862519Y835879D01*
X862560Y835820D01*
X862604Y835764D01*
X862651Y835710D01*
X862700Y835659D01*
X862753Y835611D01*
X862808Y835565D01*
X862865Y835523D01*
X862925Y835483D01*
X862986Y835447D01*
X863050Y835414D01*
X863115Y835385D01*
X863181Y835359D01*
X863249Y835336D01*
X863318Y835317D01*
X863388Y835302D01*
X863458Y835291D01*
X863529Y835283D01*
X863600Y835279D01*
X863672Y835279D01*
X863743Y835283D01*
X863814Y835291D01*
X863884Y835302D01*
X863954Y835317D01*
X864023Y835336D01*
X864091Y835359D01*
X864157Y835385D01*
X864222Y835414D01*
X864286Y835447D01*
X864347Y835483D01*
X864407Y835523D01*
X864464Y835565D01*
X864519Y835611D01*
X864572Y835659D01*
X864621Y835710D01*
X864668Y835764D01*
X864712Y835820D01*
X864753Y835879D01*
X864791Y835939D01*
X864826Y836002D01*
X864857Y836066D01*
X864885Y836132D01*
X864909Y836199D01*
X864930Y836267D01*
X864947Y836337D01*
X864960Y836407D01*
X864969Y836477D01*
X864975Y836549D01*
X864977Y836620D01*
X864708Y839033D02*
X864706Y839098D01*
X864700Y839162D01*
X864690Y839226D01*
X864677Y839290D01*
X864659Y839352D01*
X864638Y839413D01*
X864614Y839473D01*
X864585Y839531D01*
X864553Y839588D01*
X864518Y839642D01*
X864480Y839694D01*
X864438Y839744D01*
X864394Y839791D01*
X864347Y839835D01*
X864297Y839877D01*
X864245Y839915D01*
X864191Y839950D01*
X864134Y839982D01*
X864076Y840011D01*
X864016Y840035D01*
X863955Y840056D01*
X863893Y840074D01*
X863829Y840087D01*
X863765Y840097D01*
X863701Y840103D01*
X863636Y840105D01*
X863571Y840103D01*
X863507Y840097D01*
X863443Y840087D01*
X863379Y840074D01*
X863317Y840056D01*
X863256Y840035D01*
X863196Y840011D01*
X863138Y839982D01*
X863081Y839950D01*
X863027Y839915D01*
X862975Y839877D01*
X862925Y839835D01*
X862878Y839791D01*
X862834Y839744D01*
X862792Y839694D01*
X862754Y839642D01*
X862719Y839588D01*
X862687Y839531D01*
X862658Y839473D01*
X862634Y839413D01*
X862613Y839352D01*
X862595Y839290D01*
X862582Y839226D01*
X862572Y839162D01*
X862566Y839098D01*
X862564Y839033D01*
X862566Y838968D01*
X862572Y838904D01*
X862582Y838840D01*
X862595Y838776D01*
X862613Y838714D01*
X862634Y838653D01*
X862658Y838593D01*
X862687Y838535D01*
X862719Y838478D01*
X862754Y838424D01*
X862792Y838372D01*
X862834Y838322D01*
X862878Y838275D01*
X862925Y838231D01*
X862975Y838189D01*
X863027Y838151D01*
X863081Y838116D01*
X863138Y838084D01*
X863196Y838055D01*
X863256Y838031D01*
X863317Y838010D01*
X863379Y837992D01*
X863443Y837979D01*
X863507Y837969D01*
X863571Y837963D01*
X863636Y837961D01*
X863701Y837963D01*
X863765Y837969D01*
X863829Y837979D01*
X863893Y837992D01*
X863955Y838010D01*
X864016Y838031D01*
X864076Y838055D01*
X864134Y838084D01*
X864191Y838116D01*
X864245Y838151D01*
X864297Y838189D01*
X864347Y838231D01*
X864394Y838275D01*
X864438Y838322D01*
X864480Y838372D01*
X864518Y838424D01*
X864553Y838478D01*
X864585Y838535D01*
X864614Y838593D01*
X864638Y838653D01*
X864659Y838714D01*
X864677Y838776D01*
X864690Y838840D01*
X864700Y838904D01*
X864706Y838968D01*
X864708Y839033D01*
D12*
X1510538Y406466D02*
X1510538Y403869D01*
X1510540Y403770D01*
X1510546Y403670D01*
X1510555Y403571D01*
X1510568Y403473D01*
X1510585Y403375D01*
X1510606Y403277D01*
X1510631Y403181D01*
X1510659Y403086D01*
X1510691Y402992D01*
X1510726Y402899D01*
X1510765Y402807D01*
X1510808Y402717D01*
X1510853Y402629D01*
X1510903Y402542D01*
X1510955Y402458D01*
X1511011Y402375D01*
X1511069Y402295D01*
X1511131Y402217D01*
X1511196Y402142D01*
X1511264Y402069D01*
X1511334Y401999D01*
X1511407Y401931D01*
X1511482Y401866D01*
X1511560Y401804D01*
X1511640Y401746D01*
X1511723Y401690D01*
X1511807Y401638D01*
X1511894Y401588D01*
X1511982Y401543D01*
X1512072Y401500D01*
X1512164Y401461D01*
X1512257Y401426D01*
X1512351Y401394D01*
X1512446Y401366D01*
X1512542Y401341D01*
X1512640Y401320D01*
X1512738Y401303D01*
X1512836Y401290D01*
X1512935Y401281D01*
X1513035Y401275D01*
X1513134Y401273D01*
X1519626Y401273D01*
X1519725Y401275D01*
X1519825Y401281D01*
X1519924Y401290D01*
X1520022Y401303D01*
X1520120Y401320D01*
X1520218Y401341D01*
X1520314Y401366D01*
X1520409Y401394D01*
X1520503Y401426D01*
X1520596Y401461D01*
X1520688Y401500D01*
X1520778Y401543D01*
X1520866Y401588D01*
X1520953Y401638D01*
X1521037Y401690D01*
X1521120Y401746D01*
X1521200Y401804D01*
X1521278Y401866D01*
X1521353Y401931D01*
X1521426Y401999D01*
X1521496Y402069D01*
X1521564Y402142D01*
X1521629Y402217D01*
X1521691Y402295D01*
X1521749Y402375D01*
X1521805Y402458D01*
X1521857Y402542D01*
X1521907Y402629D01*
X1521952Y402717D01*
X1521995Y402807D01*
X1522034Y402899D01*
X1522069Y402991D01*
X1522101Y403086D01*
X1522129Y403181D01*
X1522154Y403277D01*
X1522175Y403375D01*
X1522192Y403473D01*
X1522205Y403571D01*
X1522214Y403670D01*
X1522220Y403770D01*
X1522222Y403869D01*
X1522222Y406466D01*
X1517029Y410831D02*
X1517029Y414726D01*
X1517027Y414825D01*
X1517021Y414925D01*
X1517012Y415024D01*
X1516999Y415122D01*
X1516982Y415220D01*
X1516961Y415318D01*
X1516936Y415414D01*
X1516908Y415509D01*
X1516876Y415603D01*
X1516841Y415696D01*
X1516802Y415788D01*
X1516759Y415878D01*
X1516714Y415966D01*
X1516664Y416053D01*
X1516612Y416137D01*
X1516556Y416220D01*
X1516498Y416300D01*
X1516436Y416378D01*
X1516371Y416453D01*
X1516303Y416526D01*
X1516233Y416596D01*
X1516160Y416664D01*
X1516085Y416729D01*
X1516007Y416791D01*
X1515927Y416849D01*
X1515844Y416905D01*
X1515760Y416957D01*
X1515673Y417007D01*
X1515585Y417052D01*
X1515495Y417095D01*
X1515403Y417134D01*
X1515310Y417169D01*
X1515216Y417201D01*
X1515121Y417229D01*
X1515025Y417254D01*
X1514927Y417275D01*
X1514829Y417292D01*
X1514731Y417305D01*
X1514632Y417314D01*
X1514532Y417320D01*
X1514433Y417322D01*
X1513784Y417322D01*
X1513671Y417320D01*
X1513558Y417314D01*
X1513445Y417304D01*
X1513332Y417290D01*
X1513220Y417273D01*
X1513109Y417251D01*
X1512999Y417226D01*
X1512889Y417196D01*
X1512781Y417163D01*
X1512674Y417126D01*
X1512568Y417086D01*
X1512464Y417041D01*
X1512361Y416993D01*
X1512260Y416942D01*
X1512161Y416887D01*
X1512064Y416829D01*
X1511969Y416767D01*
X1511876Y416702D01*
X1511786Y416634D01*
X1511698Y416563D01*
X1511612Y416488D01*
X1511529Y416411D01*
X1511449Y416331D01*
X1511372Y416248D01*
X1511297Y416162D01*
X1511226Y416074D01*
X1511158Y415984D01*
X1511093Y415891D01*
X1511031Y415796D01*
X1510973Y415699D01*
X1510918Y415600D01*
X1510867Y415499D01*
X1510819Y415396D01*
X1510774Y415292D01*
X1510734Y415186D01*
X1510697Y415079D01*
X1510664Y414971D01*
X1510634Y414861D01*
X1510609Y414751D01*
X1510587Y414640D01*
X1510570Y414528D01*
X1510556Y414415D01*
X1510546Y414302D01*
X1510540Y414189D01*
X1510538Y414076D01*
X1510540Y413963D01*
X1510546Y413850D01*
X1510556Y413737D01*
X1510570Y413624D01*
X1510587Y413512D01*
X1510609Y413401D01*
X1510634Y413291D01*
X1510664Y413181D01*
X1510697Y413073D01*
X1510734Y412966D01*
X1510774Y412860D01*
X1510819Y412756D01*
X1510867Y412653D01*
X1510918Y412552D01*
X1510973Y412453D01*
X1511031Y412356D01*
X1511093Y412261D01*
X1511158Y412168D01*
X1511226Y412078D01*
X1511297Y411990D01*
X1511372Y411904D01*
X1511449Y411821D01*
X1511529Y411741D01*
X1511612Y411664D01*
X1511698Y411589D01*
X1511786Y411518D01*
X1511876Y411450D01*
X1511969Y411385D01*
X1512064Y411323D01*
X1512161Y411265D01*
X1512260Y411210D01*
X1512361Y411159D01*
X1512464Y411111D01*
X1512568Y411066D01*
X1512674Y411026D01*
X1512781Y410989D01*
X1512889Y410956D01*
X1512999Y410926D01*
X1513109Y410901D01*
X1513220Y410879D01*
X1513332Y410862D01*
X1513445Y410848D01*
X1513558Y410838D01*
X1513671Y410832D01*
X1513784Y410830D01*
X1513784Y410831D02*
X1517029Y410831D01*
X1517172Y410833D01*
X1517315Y410839D01*
X1517458Y410849D01*
X1517600Y410863D01*
X1517742Y410880D01*
X1517884Y410902D01*
X1518025Y410927D01*
X1518165Y410957D01*
X1518304Y410990D01*
X1518442Y411027D01*
X1518579Y411068D01*
X1518715Y411112D01*
X1518850Y411161D01*
X1518983Y411213D01*
X1519115Y411268D01*
X1519245Y411328D01*
X1519374Y411391D01*
X1519501Y411457D01*
X1519625Y411527D01*
X1519748Y411600D01*
X1519869Y411677D01*
X1519988Y411757D01*
X1520104Y411840D01*
X1520219Y411926D01*
X1520330Y412015D01*
X1520440Y412108D01*
X1520546Y412203D01*
X1520650Y412302D01*
X1520751Y412403D01*
X1520850Y412507D01*
X1520945Y412613D01*
X1521038Y412723D01*
X1521127Y412834D01*
X1521213Y412949D01*
X1521296Y413065D01*
X1521376Y413184D01*
X1521453Y413305D01*
X1521526Y413427D01*
X1521596Y413552D01*
X1521662Y413679D01*
X1521725Y413808D01*
X1521785Y413938D01*
X1521840Y414070D01*
X1521892Y414203D01*
X1521941Y414338D01*
X1521985Y414474D01*
X1522026Y414611D01*
X1522063Y414749D01*
X1522096Y414888D01*
X1522126Y415028D01*
X1522151Y415169D01*
X1522173Y415311D01*
X1522190Y415453D01*
X1522204Y415595D01*
X1522214Y415738D01*
X1522220Y415881D01*
X1522222Y416024D01*
D13*
X516840Y412450D02*
X478840Y412450D01*
X516840Y412450D02*
X516840Y414450D01*
X516840Y436450D02*
X516840Y438450D01*
X478840Y438450D01*
X478840Y436450D01*
X478840Y414450D02*
X478840Y412450D01*
D11*
X491961Y408940D02*
X491961Y400050D01*
X488010Y400050D01*
X484364Y400050D02*
X481894Y400050D01*
X481796Y400052D01*
X481698Y400058D01*
X481600Y400068D01*
X481503Y400081D01*
X481406Y400099D01*
X481310Y400120D01*
X481216Y400145D01*
X481122Y400174D01*
X481029Y400206D01*
X480938Y400243D01*
X480848Y400282D01*
X480760Y400326D01*
X480674Y400373D01*
X480589Y400423D01*
X480507Y400476D01*
X480427Y400533D01*
X480349Y400593D01*
X480274Y400656D01*
X480201Y400722D01*
X480131Y400791D01*
X480064Y400862D01*
X479999Y400936D01*
X479938Y401013D01*
X479879Y401092D01*
X479824Y401173D01*
X479772Y401256D01*
X479724Y401342D01*
X479679Y401429D01*
X479637Y401518D01*
X479599Y401608D01*
X479565Y401700D01*
X479534Y401793D01*
X479507Y401888D01*
X479484Y401983D01*
X479464Y402080D01*
X479449Y402176D01*
X479437Y402274D01*
X479429Y402372D01*
X479425Y402470D01*
X479425Y402568D01*
X479429Y402666D01*
X479437Y402764D01*
X479449Y402862D01*
X479464Y402958D01*
X479484Y403055D01*
X479507Y403150D01*
X479534Y403245D01*
X479565Y403338D01*
X479599Y403430D01*
X479637Y403520D01*
X479679Y403609D01*
X479724Y403696D01*
X479772Y403782D01*
X479824Y403865D01*
X479879Y403946D01*
X479938Y404025D01*
X479999Y404102D01*
X480064Y404176D01*
X480131Y404247D01*
X480201Y404316D01*
X480274Y404382D01*
X480349Y404445D01*
X480427Y404505D01*
X480507Y404562D01*
X480589Y404615D01*
X480674Y404665D01*
X480760Y404712D01*
X480848Y404756D01*
X480938Y404795D01*
X481029Y404832D01*
X481122Y404864D01*
X481216Y404893D01*
X481310Y404918D01*
X481406Y404939D01*
X481503Y404957D01*
X481600Y404970D01*
X481698Y404980D01*
X481796Y404986D01*
X481894Y404988D01*
X481401Y408940D02*
X484364Y408940D01*
X481401Y408940D02*
X481314Y408938D01*
X481226Y408932D01*
X481139Y408923D01*
X481053Y408909D01*
X480967Y408892D01*
X480883Y408871D01*
X480799Y408846D01*
X480716Y408817D01*
X480635Y408785D01*
X480555Y408750D01*
X480477Y408711D01*
X480400Y408668D01*
X480326Y408622D01*
X480254Y408573D01*
X480184Y408521D01*
X480116Y408465D01*
X480051Y408407D01*
X479988Y408346D01*
X479929Y408282D01*
X479872Y408215D01*
X479818Y408147D01*
X479767Y408075D01*
X479720Y408002D01*
X479675Y407927D01*
X479634Y407849D01*
X479597Y407770D01*
X479563Y407690D01*
X479533Y407608D01*
X479506Y407525D01*
X479483Y407440D01*
X479464Y407355D01*
X479449Y407269D01*
X479437Y407182D01*
X479429Y407095D01*
X479425Y407008D01*
X479425Y406920D01*
X479429Y406833D01*
X479437Y406746D01*
X479449Y406659D01*
X479464Y406573D01*
X479483Y406488D01*
X479506Y406403D01*
X479533Y406320D01*
X479563Y406238D01*
X479597Y406158D01*
X479634Y406079D01*
X479675Y406001D01*
X479720Y405926D01*
X479767Y405853D01*
X479818Y405781D01*
X479872Y405713D01*
X479929Y405646D01*
X479988Y405582D01*
X480051Y405521D01*
X480116Y405463D01*
X480184Y405407D01*
X480254Y405355D01*
X480326Y405306D01*
X480400Y405260D01*
X480477Y405217D01*
X480555Y405178D01*
X480635Y405143D01*
X480716Y405111D01*
X480799Y405082D01*
X480883Y405057D01*
X480967Y405036D01*
X481053Y405019D01*
X481139Y405005D01*
X481226Y404996D01*
X481314Y404990D01*
X481401Y404988D01*
X481401Y404989D02*
X483376Y404989D01*
D14*
X325680Y851540D02*
X296620Y851540D01*
X296620Y832480D02*
X325680Y832480D01*
D15*
X348650Y835391D02*
X348650Y844629D01*
X346084Y844629D01*
X345985Y844627D01*
X345885Y844621D01*
X345786Y844612D01*
X345688Y844598D01*
X345590Y844581D01*
X345492Y844560D01*
X345396Y844535D01*
X345301Y844506D01*
X345206Y844474D01*
X345114Y844438D01*
X345022Y844399D01*
X344932Y844356D01*
X344844Y844310D01*
X344758Y844260D01*
X344674Y844207D01*
X344592Y844151D01*
X344512Y844091D01*
X344435Y844029D01*
X344360Y843963D01*
X344287Y843895D01*
X344218Y843824D01*
X344151Y843750D01*
X344087Y843674D01*
X344026Y843595D01*
X343968Y843514D01*
X343913Y843431D01*
X343862Y843346D01*
X343814Y843259D01*
X343769Y843170D01*
X343728Y843079D01*
X343690Y842987D01*
X343656Y842894D01*
X343626Y842799D01*
X343599Y842703D01*
X343576Y842606D01*
X343557Y842509D01*
X343542Y842410D01*
X343530Y842311D01*
X343522Y842212D01*
X343518Y842113D01*
X343518Y842013D01*
X343522Y841914D01*
X343530Y841815D01*
X343542Y841716D01*
X343557Y841617D01*
X343576Y841520D01*
X343599Y841423D01*
X343626Y841327D01*
X343656Y841232D01*
X343690Y841139D01*
X343728Y841047D01*
X343769Y840956D01*
X343814Y840867D01*
X343862Y840780D01*
X343913Y840695D01*
X343968Y840612D01*
X344026Y840531D01*
X344087Y840452D01*
X344151Y840376D01*
X344218Y840302D01*
X344287Y840231D01*
X344360Y840163D01*
X344435Y840097D01*
X344512Y840035D01*
X344592Y839975D01*
X344674Y839919D01*
X344758Y839866D01*
X344844Y839816D01*
X344932Y839770D01*
X345022Y839727D01*
X345114Y839688D01*
X345206Y839652D01*
X345301Y839620D01*
X345396Y839591D01*
X345492Y839566D01*
X345590Y839545D01*
X345688Y839528D01*
X345786Y839514D01*
X345885Y839505D01*
X345985Y839499D01*
X346084Y839497D01*
X348650Y839497D01*
X345571Y839497D02*
X343518Y835391D01*
X337140Y835391D02*
X340220Y844629D01*
X334061Y844629D02*
X337140Y835391D01*
D14*
X353770Y851540D02*
X382830Y851540D01*
X382830Y832480D02*
X353770Y832480D01*
D15*
X414287Y835391D02*
X414287Y844629D01*
X411720Y844629D01*
X411621Y844627D01*
X411521Y844621D01*
X411422Y844612D01*
X411324Y844598D01*
X411226Y844581D01*
X411128Y844560D01*
X411032Y844535D01*
X410937Y844506D01*
X410842Y844474D01*
X410750Y844438D01*
X410658Y844399D01*
X410568Y844356D01*
X410480Y844310D01*
X410394Y844260D01*
X410310Y844207D01*
X410228Y844151D01*
X410148Y844091D01*
X410071Y844029D01*
X409996Y843963D01*
X409923Y843895D01*
X409854Y843824D01*
X409787Y843750D01*
X409723Y843674D01*
X409662Y843595D01*
X409604Y843514D01*
X409549Y843431D01*
X409498Y843346D01*
X409450Y843259D01*
X409405Y843170D01*
X409364Y843079D01*
X409326Y842987D01*
X409292Y842894D01*
X409262Y842799D01*
X409235Y842703D01*
X409212Y842606D01*
X409193Y842509D01*
X409178Y842410D01*
X409166Y842311D01*
X409158Y842212D01*
X409154Y842113D01*
X409154Y842013D01*
X409158Y841914D01*
X409166Y841815D01*
X409178Y841716D01*
X409193Y841617D01*
X409212Y841520D01*
X409235Y841423D01*
X409262Y841327D01*
X409292Y841232D01*
X409326Y841139D01*
X409364Y841047D01*
X409405Y840956D01*
X409450Y840867D01*
X409498Y840780D01*
X409549Y840695D01*
X409604Y840612D01*
X409662Y840531D01*
X409723Y840452D01*
X409787Y840376D01*
X409854Y840302D01*
X409923Y840231D01*
X409996Y840163D01*
X410071Y840097D01*
X410148Y840035D01*
X410228Y839975D01*
X410310Y839919D01*
X410394Y839866D01*
X410480Y839816D01*
X410568Y839770D01*
X410658Y839727D01*
X410750Y839688D01*
X410842Y839652D01*
X410937Y839620D01*
X411032Y839591D01*
X411128Y839566D01*
X411226Y839545D01*
X411324Y839528D01*
X411422Y839514D01*
X411521Y839505D01*
X411621Y839499D01*
X411720Y839497D01*
X414287Y839497D01*
X411207Y839497D02*
X409154Y835391D01*
X402777Y835391D02*
X405856Y844629D01*
X399698Y844629D02*
X402777Y835391D01*
X396343Y842576D02*
X393777Y844629D01*
X393777Y835391D01*
X396343Y835391D02*
X391211Y835391D01*
D14*
X410920Y851540D02*
X439980Y851540D01*
X439980Y832480D02*
X410920Y832480D01*
D15*
X471437Y835391D02*
X471437Y844629D01*
X468870Y844629D01*
X468771Y844627D01*
X468671Y844621D01*
X468572Y844612D01*
X468474Y844598D01*
X468376Y844581D01*
X468278Y844560D01*
X468182Y844535D01*
X468087Y844506D01*
X467992Y844474D01*
X467900Y844438D01*
X467808Y844399D01*
X467718Y844356D01*
X467630Y844310D01*
X467544Y844260D01*
X467460Y844207D01*
X467378Y844151D01*
X467298Y844091D01*
X467221Y844029D01*
X467146Y843963D01*
X467073Y843895D01*
X467004Y843824D01*
X466937Y843750D01*
X466873Y843674D01*
X466812Y843595D01*
X466754Y843514D01*
X466699Y843431D01*
X466648Y843346D01*
X466600Y843259D01*
X466555Y843170D01*
X466514Y843079D01*
X466476Y842987D01*
X466442Y842894D01*
X466412Y842799D01*
X466385Y842703D01*
X466362Y842606D01*
X466343Y842509D01*
X466328Y842410D01*
X466316Y842311D01*
X466308Y842212D01*
X466304Y842113D01*
X466304Y842013D01*
X466308Y841914D01*
X466316Y841815D01*
X466328Y841716D01*
X466343Y841617D01*
X466362Y841520D01*
X466385Y841423D01*
X466412Y841327D01*
X466442Y841232D01*
X466476Y841139D01*
X466514Y841047D01*
X466555Y840956D01*
X466600Y840867D01*
X466648Y840780D01*
X466699Y840695D01*
X466754Y840612D01*
X466812Y840531D01*
X466873Y840452D01*
X466937Y840376D01*
X467004Y840302D01*
X467073Y840231D01*
X467146Y840163D01*
X467221Y840097D01*
X467298Y840035D01*
X467378Y839975D01*
X467460Y839919D01*
X467544Y839866D01*
X467630Y839816D01*
X467718Y839770D01*
X467808Y839727D01*
X467900Y839688D01*
X467992Y839652D01*
X468087Y839620D01*
X468182Y839591D01*
X468278Y839566D01*
X468376Y839545D01*
X468474Y839528D01*
X468572Y839514D01*
X468671Y839505D01*
X468771Y839499D01*
X468870Y839497D01*
X471437Y839497D01*
X468357Y839497D02*
X466304Y835391D01*
X459927Y835391D02*
X463006Y844629D01*
X456848Y844629D02*
X459927Y835391D01*
X450671Y844629D02*
X450576Y844627D01*
X450480Y844621D01*
X450385Y844611D01*
X450291Y844597D01*
X450197Y844580D01*
X450104Y844558D01*
X450012Y844533D01*
X449921Y844504D01*
X449831Y844471D01*
X449743Y844434D01*
X449656Y844394D01*
X449572Y844351D01*
X449489Y844303D01*
X449408Y844253D01*
X449329Y844199D01*
X449252Y844142D01*
X449178Y844082D01*
X449106Y844019D01*
X449038Y843952D01*
X448971Y843884D01*
X448908Y843812D01*
X448848Y843738D01*
X448791Y843661D01*
X448737Y843582D01*
X448687Y843501D01*
X448639Y843418D01*
X448596Y843334D01*
X448556Y843247D01*
X448519Y843159D01*
X448486Y843069D01*
X448457Y842978D01*
X448432Y842886D01*
X448410Y842793D01*
X448393Y842699D01*
X448379Y842605D01*
X448369Y842510D01*
X448363Y842414D01*
X448361Y842319D01*
X450671Y844629D02*
X450778Y844627D01*
X450884Y844621D01*
X450990Y844612D01*
X451096Y844598D01*
X451201Y844581D01*
X451306Y844560D01*
X451409Y844536D01*
X451512Y844507D01*
X451614Y844475D01*
X451714Y844440D01*
X451813Y844400D01*
X451911Y844357D01*
X452007Y844311D01*
X452101Y844261D01*
X452194Y844208D01*
X452284Y844152D01*
X452373Y844092D01*
X452459Y844030D01*
X452543Y843964D01*
X452624Y843895D01*
X452703Y843824D01*
X452780Y843749D01*
X452853Y843672D01*
X452924Y843592D01*
X452992Y843510D01*
X453057Y843426D01*
X453119Y843339D01*
X453177Y843250D01*
X453233Y843159D01*
X453285Y843066D01*
X453334Y842971D01*
X453379Y842874D01*
X453421Y842776D01*
X453459Y842677D01*
X453494Y842576D01*
X449131Y840523D02*
X449063Y840590D01*
X448997Y840660D01*
X448935Y840733D01*
X448875Y840807D01*
X448818Y840884D01*
X448764Y840963D01*
X448714Y841044D01*
X448666Y841127D01*
X448622Y841212D01*
X448581Y841298D01*
X448543Y841386D01*
X448509Y841475D01*
X448478Y841566D01*
X448451Y841658D01*
X448427Y841750D01*
X448407Y841844D01*
X448390Y841938D01*
X448378Y842033D01*
X448368Y842128D01*
X448363Y842223D01*
X448361Y842319D01*
X449131Y840523D02*
X453493Y835391D01*
X448361Y835391D01*
D14*
X1273170Y346000D02*
X1273170Y316940D01*
X1292230Y316940D02*
X1292230Y346000D01*
D15*
X1289319Y354381D02*
X1280081Y354381D01*
X1289319Y354381D02*
X1289319Y356947D01*
X1289317Y357046D01*
X1289311Y357146D01*
X1289302Y357245D01*
X1289288Y357343D01*
X1289271Y357441D01*
X1289250Y357539D01*
X1289225Y357635D01*
X1289196Y357730D01*
X1289164Y357825D01*
X1289128Y357917D01*
X1289089Y358009D01*
X1289046Y358099D01*
X1289000Y358187D01*
X1288950Y358273D01*
X1288897Y358357D01*
X1288841Y358439D01*
X1288781Y358519D01*
X1288719Y358596D01*
X1288653Y358671D01*
X1288585Y358744D01*
X1288514Y358813D01*
X1288440Y358880D01*
X1288364Y358944D01*
X1288285Y359005D01*
X1288204Y359063D01*
X1288121Y359118D01*
X1288036Y359169D01*
X1287949Y359217D01*
X1287860Y359262D01*
X1287769Y359303D01*
X1287677Y359341D01*
X1287584Y359375D01*
X1287489Y359405D01*
X1287393Y359432D01*
X1287296Y359455D01*
X1287199Y359474D01*
X1287100Y359489D01*
X1287001Y359501D01*
X1286902Y359509D01*
X1286803Y359513D01*
X1286703Y359513D01*
X1286604Y359509D01*
X1286505Y359501D01*
X1286406Y359489D01*
X1286307Y359474D01*
X1286210Y359455D01*
X1286113Y359432D01*
X1286017Y359405D01*
X1285922Y359375D01*
X1285829Y359341D01*
X1285737Y359303D01*
X1285646Y359262D01*
X1285557Y359217D01*
X1285470Y359169D01*
X1285385Y359118D01*
X1285302Y359063D01*
X1285221Y359005D01*
X1285142Y358944D01*
X1285066Y358880D01*
X1284992Y358813D01*
X1284921Y358744D01*
X1284853Y358671D01*
X1284787Y358596D01*
X1284725Y358519D01*
X1284665Y358439D01*
X1284609Y358357D01*
X1284556Y358273D01*
X1284506Y358187D01*
X1284460Y358099D01*
X1284417Y358009D01*
X1284378Y357917D01*
X1284342Y357825D01*
X1284310Y357730D01*
X1284281Y357635D01*
X1284256Y357539D01*
X1284235Y357441D01*
X1284218Y357343D01*
X1284204Y357245D01*
X1284195Y357146D01*
X1284189Y357046D01*
X1284187Y356947D01*
X1284187Y354381D01*
X1284187Y357460D02*
X1280081Y359513D01*
X1280081Y365890D02*
X1289319Y362811D01*
X1289319Y368970D02*
X1280081Y365890D01*
X1282134Y372324D02*
X1289319Y374377D01*
X1282134Y372324D02*
X1282134Y377457D01*
X1284187Y375917D02*
X1280081Y375917D01*
D14*
X1247770Y346000D02*
X1247770Y316940D01*
X1266830Y316940D02*
X1266830Y346000D01*
D15*
X1263919Y354381D02*
X1254681Y354381D01*
X1263919Y354381D02*
X1263919Y356947D01*
X1263917Y357046D01*
X1263911Y357146D01*
X1263902Y357245D01*
X1263888Y357343D01*
X1263871Y357441D01*
X1263850Y357539D01*
X1263825Y357635D01*
X1263796Y357730D01*
X1263764Y357825D01*
X1263728Y357917D01*
X1263689Y358009D01*
X1263646Y358099D01*
X1263600Y358187D01*
X1263550Y358273D01*
X1263497Y358357D01*
X1263441Y358439D01*
X1263381Y358519D01*
X1263319Y358596D01*
X1263253Y358671D01*
X1263185Y358744D01*
X1263114Y358813D01*
X1263040Y358880D01*
X1262964Y358944D01*
X1262885Y359005D01*
X1262804Y359063D01*
X1262721Y359118D01*
X1262636Y359169D01*
X1262549Y359217D01*
X1262460Y359262D01*
X1262369Y359303D01*
X1262277Y359341D01*
X1262184Y359375D01*
X1262089Y359405D01*
X1261993Y359432D01*
X1261896Y359455D01*
X1261799Y359474D01*
X1261700Y359489D01*
X1261601Y359501D01*
X1261502Y359509D01*
X1261403Y359513D01*
X1261303Y359513D01*
X1261204Y359509D01*
X1261105Y359501D01*
X1261006Y359489D01*
X1260907Y359474D01*
X1260810Y359455D01*
X1260713Y359432D01*
X1260617Y359405D01*
X1260522Y359375D01*
X1260429Y359341D01*
X1260337Y359303D01*
X1260246Y359262D01*
X1260157Y359217D01*
X1260070Y359169D01*
X1259985Y359118D01*
X1259902Y359063D01*
X1259821Y359005D01*
X1259742Y358944D01*
X1259666Y358880D01*
X1259592Y358813D01*
X1259521Y358744D01*
X1259453Y358671D01*
X1259387Y358596D01*
X1259325Y358519D01*
X1259265Y358439D01*
X1259209Y358357D01*
X1259156Y358273D01*
X1259106Y358187D01*
X1259060Y358099D01*
X1259017Y358009D01*
X1258978Y357917D01*
X1258942Y357825D01*
X1258910Y357730D01*
X1258881Y357635D01*
X1258856Y357539D01*
X1258835Y357441D01*
X1258818Y357343D01*
X1258804Y357245D01*
X1258795Y357146D01*
X1258789Y357046D01*
X1258787Y356947D01*
X1258787Y354381D01*
X1258787Y357460D02*
X1254681Y359513D01*
X1254681Y365890D02*
X1263919Y362811D01*
X1263919Y368970D02*
X1254681Y365890D01*
X1254681Y372324D02*
X1254681Y375404D01*
X1254683Y375494D01*
X1254689Y375583D01*
X1254699Y375672D01*
X1254712Y375760D01*
X1254730Y375848D01*
X1254751Y375935D01*
X1254776Y376021D01*
X1254805Y376106D01*
X1254837Y376190D01*
X1254873Y376272D01*
X1254913Y376352D01*
X1254956Y376430D01*
X1255003Y376507D01*
X1255052Y376582D01*
X1255105Y376654D01*
X1255161Y376724D01*
X1255220Y376791D01*
X1255282Y376856D01*
X1255347Y376918D01*
X1255414Y376977D01*
X1255484Y377033D01*
X1255556Y377086D01*
X1255631Y377135D01*
X1255707Y377182D01*
X1255786Y377225D01*
X1255866Y377265D01*
X1255948Y377301D01*
X1256032Y377333D01*
X1256117Y377362D01*
X1256203Y377387D01*
X1256290Y377408D01*
X1256377Y377426D01*
X1256466Y377439D01*
X1256555Y377449D01*
X1256644Y377455D01*
X1256734Y377457D01*
X1257760Y377457D01*
X1257850Y377455D01*
X1257939Y377449D01*
X1258028Y377439D01*
X1258116Y377426D01*
X1258204Y377408D01*
X1258291Y377387D01*
X1258377Y377362D01*
X1258462Y377333D01*
X1258546Y377301D01*
X1258628Y377265D01*
X1258708Y377225D01*
X1258787Y377182D01*
X1258863Y377135D01*
X1258938Y377086D01*
X1259010Y377033D01*
X1259080Y376977D01*
X1259147Y376918D01*
X1259212Y376856D01*
X1259274Y376791D01*
X1259333Y376724D01*
X1259389Y376654D01*
X1259442Y376582D01*
X1259491Y376507D01*
X1259538Y376431D01*
X1259581Y376352D01*
X1259621Y376272D01*
X1259657Y376190D01*
X1259689Y376106D01*
X1259718Y376021D01*
X1259743Y375935D01*
X1259764Y375848D01*
X1259782Y375760D01*
X1259795Y375672D01*
X1259805Y375583D01*
X1259811Y375494D01*
X1259813Y375404D01*
X1259813Y372324D01*
X1263919Y372324D01*
X1263919Y377457D01*
D14*
X1222370Y346000D02*
X1222370Y316940D01*
X1241430Y316940D02*
X1241430Y346000D01*
D15*
X1238519Y354381D02*
X1229281Y354381D01*
X1238519Y354381D02*
X1238519Y356947D01*
X1238517Y357046D01*
X1238511Y357146D01*
X1238502Y357245D01*
X1238488Y357343D01*
X1238471Y357441D01*
X1238450Y357539D01*
X1238425Y357635D01*
X1238396Y357730D01*
X1238364Y357825D01*
X1238328Y357917D01*
X1238289Y358009D01*
X1238246Y358099D01*
X1238200Y358187D01*
X1238150Y358273D01*
X1238097Y358357D01*
X1238041Y358439D01*
X1237981Y358519D01*
X1237919Y358596D01*
X1237853Y358671D01*
X1237785Y358744D01*
X1237714Y358813D01*
X1237640Y358880D01*
X1237564Y358944D01*
X1237485Y359005D01*
X1237404Y359063D01*
X1237321Y359118D01*
X1237236Y359169D01*
X1237149Y359217D01*
X1237060Y359262D01*
X1236969Y359303D01*
X1236877Y359341D01*
X1236784Y359375D01*
X1236689Y359405D01*
X1236593Y359432D01*
X1236496Y359455D01*
X1236399Y359474D01*
X1236300Y359489D01*
X1236201Y359501D01*
X1236102Y359509D01*
X1236003Y359513D01*
X1235903Y359513D01*
X1235804Y359509D01*
X1235705Y359501D01*
X1235606Y359489D01*
X1235507Y359474D01*
X1235410Y359455D01*
X1235313Y359432D01*
X1235217Y359405D01*
X1235122Y359375D01*
X1235029Y359341D01*
X1234937Y359303D01*
X1234846Y359262D01*
X1234757Y359217D01*
X1234670Y359169D01*
X1234585Y359118D01*
X1234502Y359063D01*
X1234421Y359005D01*
X1234342Y358944D01*
X1234266Y358880D01*
X1234192Y358813D01*
X1234121Y358744D01*
X1234053Y358671D01*
X1233987Y358596D01*
X1233925Y358519D01*
X1233865Y358439D01*
X1233809Y358357D01*
X1233756Y358273D01*
X1233706Y358187D01*
X1233660Y358099D01*
X1233617Y358009D01*
X1233578Y357917D01*
X1233542Y357825D01*
X1233510Y357730D01*
X1233481Y357635D01*
X1233456Y357539D01*
X1233435Y357441D01*
X1233418Y357343D01*
X1233404Y357245D01*
X1233395Y357146D01*
X1233389Y357046D01*
X1233387Y356947D01*
X1233387Y354381D01*
X1233387Y357460D02*
X1229281Y359513D01*
X1229281Y365890D02*
X1238519Y362811D01*
X1238519Y368970D02*
X1229281Y365890D01*
X1234413Y372324D02*
X1234413Y375404D01*
X1234411Y375494D01*
X1234405Y375583D01*
X1234395Y375672D01*
X1234382Y375760D01*
X1234364Y375848D01*
X1234343Y375935D01*
X1234318Y376021D01*
X1234289Y376106D01*
X1234257Y376190D01*
X1234221Y376272D01*
X1234181Y376352D01*
X1234138Y376431D01*
X1234091Y376507D01*
X1234042Y376582D01*
X1233989Y376654D01*
X1233933Y376724D01*
X1233874Y376791D01*
X1233812Y376856D01*
X1233747Y376918D01*
X1233680Y376977D01*
X1233610Y377033D01*
X1233538Y377086D01*
X1233463Y377135D01*
X1233387Y377182D01*
X1233308Y377225D01*
X1233228Y377265D01*
X1233146Y377301D01*
X1233062Y377333D01*
X1232977Y377362D01*
X1232891Y377387D01*
X1232804Y377408D01*
X1232716Y377426D01*
X1232628Y377439D01*
X1232539Y377449D01*
X1232450Y377455D01*
X1232360Y377457D01*
X1231847Y377457D01*
X1231847Y377456D02*
X1231748Y377454D01*
X1231648Y377448D01*
X1231549Y377439D01*
X1231451Y377425D01*
X1231353Y377408D01*
X1231255Y377387D01*
X1231159Y377362D01*
X1231064Y377333D01*
X1230969Y377301D01*
X1230877Y377265D01*
X1230785Y377226D01*
X1230695Y377183D01*
X1230607Y377137D01*
X1230521Y377087D01*
X1230437Y377034D01*
X1230355Y376978D01*
X1230275Y376918D01*
X1230198Y376856D01*
X1230123Y376790D01*
X1230050Y376722D01*
X1229981Y376651D01*
X1229914Y376577D01*
X1229850Y376501D01*
X1229789Y376422D01*
X1229731Y376341D01*
X1229676Y376258D01*
X1229625Y376173D01*
X1229577Y376086D01*
X1229532Y375997D01*
X1229491Y375906D01*
X1229453Y375814D01*
X1229419Y375721D01*
X1229389Y375626D01*
X1229362Y375530D01*
X1229339Y375433D01*
X1229320Y375336D01*
X1229305Y375237D01*
X1229293Y375138D01*
X1229285Y375039D01*
X1229281Y374940D01*
X1229281Y374840D01*
X1229285Y374741D01*
X1229293Y374642D01*
X1229305Y374543D01*
X1229320Y374444D01*
X1229339Y374347D01*
X1229362Y374250D01*
X1229389Y374154D01*
X1229419Y374059D01*
X1229453Y373966D01*
X1229491Y373874D01*
X1229532Y373783D01*
X1229577Y373694D01*
X1229625Y373607D01*
X1229676Y373522D01*
X1229731Y373439D01*
X1229789Y373358D01*
X1229850Y373279D01*
X1229914Y373203D01*
X1229981Y373129D01*
X1230050Y373058D01*
X1230123Y372990D01*
X1230198Y372924D01*
X1230275Y372862D01*
X1230355Y372802D01*
X1230437Y372746D01*
X1230521Y372693D01*
X1230607Y372643D01*
X1230695Y372597D01*
X1230785Y372554D01*
X1230877Y372515D01*
X1230969Y372479D01*
X1231064Y372447D01*
X1231159Y372418D01*
X1231255Y372393D01*
X1231353Y372372D01*
X1231451Y372355D01*
X1231549Y372341D01*
X1231648Y372332D01*
X1231748Y372326D01*
X1231847Y372324D01*
X1234413Y372324D01*
X1234539Y372326D01*
X1234666Y372332D01*
X1234792Y372342D01*
X1234918Y372355D01*
X1235043Y372373D01*
X1235167Y372394D01*
X1235291Y372419D01*
X1235415Y372448D01*
X1235537Y372481D01*
X1235658Y372517D01*
X1235778Y372557D01*
X1235896Y372601D01*
X1236013Y372649D01*
X1236129Y372700D01*
X1236243Y372754D01*
X1236356Y372813D01*
X1236466Y372874D01*
X1236575Y372939D01*
X1236681Y373007D01*
X1236785Y373079D01*
X1236887Y373153D01*
X1236987Y373231D01*
X1237084Y373312D01*
X1237179Y373396D01*
X1237271Y373482D01*
X1237361Y373572D01*
X1237447Y373664D01*
X1237531Y373759D01*
X1237612Y373856D01*
X1237690Y373956D01*
X1237764Y374058D01*
X1237836Y374162D01*
X1237904Y374268D01*
X1237969Y374377D01*
X1238030Y374487D01*
X1238089Y374600D01*
X1238143Y374714D01*
X1238194Y374830D01*
X1238242Y374947D01*
X1238286Y375065D01*
X1238326Y375185D01*
X1238362Y375306D01*
X1238395Y375428D01*
X1238424Y375552D01*
X1238449Y375675D01*
X1238470Y375800D01*
X1238488Y375925D01*
X1238501Y376051D01*
X1238511Y376177D01*
X1238517Y376304D01*
X1238519Y376430D01*
D14*
X1196970Y346000D02*
X1196970Y316940D01*
X1216030Y316940D02*
X1216030Y346000D01*
D15*
X1213119Y354381D02*
X1203881Y354381D01*
X1213119Y354381D02*
X1213119Y356947D01*
X1213117Y357046D01*
X1213111Y357146D01*
X1213102Y357245D01*
X1213088Y357343D01*
X1213071Y357441D01*
X1213050Y357539D01*
X1213025Y357635D01*
X1212996Y357730D01*
X1212964Y357825D01*
X1212928Y357917D01*
X1212889Y358009D01*
X1212846Y358099D01*
X1212800Y358187D01*
X1212750Y358273D01*
X1212697Y358357D01*
X1212641Y358439D01*
X1212581Y358519D01*
X1212519Y358596D01*
X1212453Y358671D01*
X1212385Y358744D01*
X1212314Y358813D01*
X1212240Y358880D01*
X1212164Y358944D01*
X1212085Y359005D01*
X1212004Y359063D01*
X1211921Y359118D01*
X1211836Y359169D01*
X1211749Y359217D01*
X1211660Y359262D01*
X1211569Y359303D01*
X1211477Y359341D01*
X1211384Y359375D01*
X1211289Y359405D01*
X1211193Y359432D01*
X1211096Y359455D01*
X1210999Y359474D01*
X1210900Y359489D01*
X1210801Y359501D01*
X1210702Y359509D01*
X1210603Y359513D01*
X1210503Y359513D01*
X1210404Y359509D01*
X1210305Y359501D01*
X1210206Y359489D01*
X1210107Y359474D01*
X1210010Y359455D01*
X1209913Y359432D01*
X1209817Y359405D01*
X1209722Y359375D01*
X1209629Y359341D01*
X1209537Y359303D01*
X1209446Y359262D01*
X1209357Y359217D01*
X1209270Y359169D01*
X1209185Y359118D01*
X1209102Y359063D01*
X1209021Y359005D01*
X1208942Y358944D01*
X1208866Y358880D01*
X1208792Y358813D01*
X1208721Y358744D01*
X1208653Y358671D01*
X1208587Y358596D01*
X1208525Y358519D01*
X1208465Y358439D01*
X1208409Y358357D01*
X1208356Y358273D01*
X1208306Y358187D01*
X1208260Y358099D01*
X1208217Y358009D01*
X1208178Y357917D01*
X1208142Y357825D01*
X1208110Y357730D01*
X1208081Y357635D01*
X1208056Y357539D01*
X1208035Y357441D01*
X1208018Y357343D01*
X1208004Y357245D01*
X1207995Y357146D01*
X1207989Y357046D01*
X1207987Y356947D01*
X1207987Y354381D01*
X1207987Y357460D02*
X1203881Y359513D01*
X1203881Y365890D02*
X1213119Y362811D01*
X1213119Y368970D02*
X1203881Y365890D01*
X1212093Y372324D02*
X1213119Y372324D01*
X1213119Y377457D01*
X1203881Y374890D01*
D14*
X1171570Y346000D02*
X1171570Y316940D01*
X1190630Y316940D02*
X1190630Y346000D01*
D15*
X1187719Y354381D02*
X1178481Y354381D01*
X1187719Y354381D02*
X1187719Y356947D01*
X1187717Y357046D01*
X1187711Y357146D01*
X1187702Y357245D01*
X1187688Y357343D01*
X1187671Y357441D01*
X1187650Y357539D01*
X1187625Y357635D01*
X1187596Y357730D01*
X1187564Y357825D01*
X1187528Y357917D01*
X1187489Y358009D01*
X1187446Y358099D01*
X1187400Y358187D01*
X1187350Y358273D01*
X1187297Y358357D01*
X1187241Y358439D01*
X1187181Y358519D01*
X1187119Y358596D01*
X1187053Y358671D01*
X1186985Y358744D01*
X1186914Y358813D01*
X1186840Y358880D01*
X1186764Y358944D01*
X1186685Y359005D01*
X1186604Y359063D01*
X1186521Y359118D01*
X1186436Y359169D01*
X1186349Y359217D01*
X1186260Y359262D01*
X1186169Y359303D01*
X1186077Y359341D01*
X1185984Y359375D01*
X1185889Y359405D01*
X1185793Y359432D01*
X1185696Y359455D01*
X1185599Y359474D01*
X1185500Y359489D01*
X1185401Y359501D01*
X1185302Y359509D01*
X1185203Y359513D01*
X1185103Y359513D01*
X1185004Y359509D01*
X1184905Y359501D01*
X1184806Y359489D01*
X1184707Y359474D01*
X1184610Y359455D01*
X1184513Y359432D01*
X1184417Y359405D01*
X1184322Y359375D01*
X1184229Y359341D01*
X1184137Y359303D01*
X1184046Y359262D01*
X1183957Y359217D01*
X1183870Y359169D01*
X1183785Y359118D01*
X1183702Y359063D01*
X1183621Y359005D01*
X1183542Y358944D01*
X1183466Y358880D01*
X1183392Y358813D01*
X1183321Y358744D01*
X1183253Y358671D01*
X1183187Y358596D01*
X1183125Y358519D01*
X1183065Y358439D01*
X1183009Y358357D01*
X1182956Y358273D01*
X1182906Y358187D01*
X1182860Y358099D01*
X1182817Y358009D01*
X1182778Y357917D01*
X1182742Y357825D01*
X1182710Y357730D01*
X1182681Y357635D01*
X1182656Y357539D01*
X1182635Y357441D01*
X1182618Y357343D01*
X1182604Y357245D01*
X1182595Y357146D01*
X1182589Y357046D01*
X1182587Y356947D01*
X1182587Y354381D01*
X1182587Y357460D02*
X1178481Y359513D01*
X1178481Y365890D02*
X1187719Y362811D01*
X1187719Y368970D02*
X1178481Y365890D01*
X1181047Y372324D02*
X1181146Y372326D01*
X1181246Y372332D01*
X1181345Y372341D01*
X1181443Y372355D01*
X1181541Y372372D01*
X1181639Y372393D01*
X1181735Y372418D01*
X1181830Y372447D01*
X1181925Y372479D01*
X1182017Y372515D01*
X1182109Y372554D01*
X1182199Y372597D01*
X1182287Y372643D01*
X1182373Y372693D01*
X1182457Y372746D01*
X1182539Y372802D01*
X1182619Y372862D01*
X1182696Y372924D01*
X1182771Y372990D01*
X1182844Y373058D01*
X1182913Y373129D01*
X1182980Y373203D01*
X1183044Y373279D01*
X1183105Y373358D01*
X1183163Y373439D01*
X1183218Y373522D01*
X1183269Y373607D01*
X1183317Y373694D01*
X1183362Y373783D01*
X1183403Y373874D01*
X1183441Y373966D01*
X1183475Y374059D01*
X1183505Y374154D01*
X1183532Y374250D01*
X1183555Y374347D01*
X1183574Y374444D01*
X1183589Y374543D01*
X1183601Y374642D01*
X1183609Y374741D01*
X1183613Y374840D01*
X1183613Y374940D01*
X1183609Y375039D01*
X1183601Y375138D01*
X1183589Y375237D01*
X1183574Y375336D01*
X1183555Y375433D01*
X1183532Y375530D01*
X1183505Y375626D01*
X1183475Y375721D01*
X1183441Y375814D01*
X1183403Y375906D01*
X1183362Y375997D01*
X1183317Y376086D01*
X1183269Y376173D01*
X1183218Y376258D01*
X1183163Y376341D01*
X1183105Y376422D01*
X1183044Y376501D01*
X1182980Y376577D01*
X1182913Y376651D01*
X1182844Y376722D01*
X1182771Y376790D01*
X1182696Y376856D01*
X1182619Y376918D01*
X1182539Y376978D01*
X1182457Y377034D01*
X1182373Y377087D01*
X1182287Y377137D01*
X1182199Y377183D01*
X1182109Y377226D01*
X1182017Y377265D01*
X1181925Y377301D01*
X1181830Y377333D01*
X1181735Y377362D01*
X1181639Y377387D01*
X1181541Y377408D01*
X1181443Y377425D01*
X1181345Y377439D01*
X1181246Y377448D01*
X1181146Y377454D01*
X1181047Y377456D01*
X1180948Y377454D01*
X1180848Y377448D01*
X1180749Y377439D01*
X1180651Y377425D01*
X1180553Y377408D01*
X1180455Y377387D01*
X1180359Y377362D01*
X1180264Y377333D01*
X1180169Y377301D01*
X1180077Y377265D01*
X1179985Y377226D01*
X1179895Y377183D01*
X1179807Y377137D01*
X1179721Y377087D01*
X1179637Y377034D01*
X1179555Y376978D01*
X1179475Y376918D01*
X1179398Y376856D01*
X1179323Y376790D01*
X1179250Y376722D01*
X1179181Y376651D01*
X1179114Y376577D01*
X1179050Y376501D01*
X1178989Y376422D01*
X1178931Y376341D01*
X1178876Y376258D01*
X1178825Y376173D01*
X1178777Y376086D01*
X1178732Y375997D01*
X1178691Y375906D01*
X1178653Y375814D01*
X1178619Y375721D01*
X1178589Y375626D01*
X1178562Y375530D01*
X1178539Y375433D01*
X1178520Y375336D01*
X1178505Y375237D01*
X1178493Y375138D01*
X1178485Y375039D01*
X1178481Y374940D01*
X1178481Y374840D01*
X1178485Y374741D01*
X1178493Y374642D01*
X1178505Y374543D01*
X1178520Y374444D01*
X1178539Y374347D01*
X1178562Y374250D01*
X1178589Y374154D01*
X1178619Y374059D01*
X1178653Y373966D01*
X1178691Y373874D01*
X1178732Y373783D01*
X1178777Y373694D01*
X1178825Y373607D01*
X1178876Y373522D01*
X1178931Y373439D01*
X1178989Y373358D01*
X1179050Y373279D01*
X1179114Y373203D01*
X1179181Y373129D01*
X1179250Y373058D01*
X1179323Y372990D01*
X1179398Y372924D01*
X1179475Y372862D01*
X1179555Y372802D01*
X1179637Y372746D01*
X1179721Y372693D01*
X1179807Y372643D01*
X1179895Y372597D01*
X1179985Y372554D01*
X1180077Y372515D01*
X1180169Y372479D01*
X1180264Y372447D01*
X1180359Y372418D01*
X1180455Y372393D01*
X1180553Y372372D01*
X1180651Y372355D01*
X1180749Y372341D01*
X1180848Y372332D01*
X1180948Y372326D01*
X1181047Y372324D01*
X1185666Y372837D02*
X1185756Y372839D01*
X1185845Y372845D01*
X1185934Y372855D01*
X1186022Y372868D01*
X1186110Y372886D01*
X1186197Y372907D01*
X1186283Y372932D01*
X1186368Y372961D01*
X1186452Y372993D01*
X1186534Y373029D01*
X1186614Y373069D01*
X1186693Y373112D01*
X1186769Y373159D01*
X1186844Y373208D01*
X1186916Y373261D01*
X1186986Y373317D01*
X1187053Y373376D01*
X1187118Y373438D01*
X1187180Y373503D01*
X1187239Y373570D01*
X1187295Y373640D01*
X1187348Y373712D01*
X1187397Y373787D01*
X1187444Y373864D01*
X1187487Y373942D01*
X1187527Y374022D01*
X1187563Y374104D01*
X1187595Y374188D01*
X1187624Y374273D01*
X1187649Y374359D01*
X1187670Y374446D01*
X1187688Y374534D01*
X1187701Y374622D01*
X1187711Y374711D01*
X1187717Y374800D01*
X1187719Y374890D01*
X1187717Y374980D01*
X1187711Y375069D01*
X1187701Y375158D01*
X1187688Y375246D01*
X1187670Y375334D01*
X1187649Y375421D01*
X1187624Y375507D01*
X1187595Y375592D01*
X1187563Y375676D01*
X1187527Y375758D01*
X1187487Y375838D01*
X1187444Y375917D01*
X1187397Y375993D01*
X1187348Y376068D01*
X1187295Y376140D01*
X1187239Y376210D01*
X1187180Y376277D01*
X1187118Y376342D01*
X1187053Y376404D01*
X1186986Y376463D01*
X1186916Y376519D01*
X1186844Y376572D01*
X1186769Y376621D01*
X1186693Y376668D01*
X1186614Y376711D01*
X1186534Y376751D01*
X1186452Y376787D01*
X1186368Y376819D01*
X1186283Y376848D01*
X1186197Y376873D01*
X1186110Y376894D01*
X1186022Y376912D01*
X1185934Y376925D01*
X1185845Y376935D01*
X1185756Y376941D01*
X1185666Y376943D01*
X1185576Y376941D01*
X1185487Y376935D01*
X1185398Y376925D01*
X1185310Y376912D01*
X1185222Y376894D01*
X1185135Y376873D01*
X1185049Y376848D01*
X1184964Y376819D01*
X1184880Y376787D01*
X1184798Y376751D01*
X1184718Y376711D01*
X1184640Y376668D01*
X1184563Y376621D01*
X1184488Y376572D01*
X1184416Y376519D01*
X1184346Y376463D01*
X1184279Y376404D01*
X1184214Y376342D01*
X1184152Y376277D01*
X1184093Y376210D01*
X1184037Y376140D01*
X1183984Y376068D01*
X1183935Y375993D01*
X1183888Y375917D01*
X1183845Y375838D01*
X1183805Y375758D01*
X1183769Y375676D01*
X1183737Y375592D01*
X1183708Y375507D01*
X1183683Y375421D01*
X1183662Y375334D01*
X1183644Y375246D01*
X1183631Y375158D01*
X1183621Y375069D01*
X1183615Y374980D01*
X1183613Y374890D01*
X1183615Y374800D01*
X1183621Y374711D01*
X1183631Y374622D01*
X1183644Y374534D01*
X1183662Y374446D01*
X1183683Y374359D01*
X1183708Y374273D01*
X1183737Y374188D01*
X1183769Y374104D01*
X1183805Y374022D01*
X1183845Y373942D01*
X1183888Y373864D01*
X1183935Y373787D01*
X1183984Y373712D01*
X1184037Y373640D01*
X1184093Y373570D01*
X1184152Y373503D01*
X1184214Y373438D01*
X1184279Y373376D01*
X1184346Y373317D01*
X1184416Y373261D01*
X1184488Y373208D01*
X1184563Y373159D01*
X1184640Y373112D01*
X1184718Y373069D01*
X1184798Y373029D01*
X1184880Y372993D01*
X1184964Y372961D01*
X1185049Y372932D01*
X1185135Y372907D01*
X1185222Y372886D01*
X1185310Y372868D01*
X1185398Y372855D01*
X1185487Y372845D01*
X1185576Y372839D01*
X1185666Y372837D01*
D16*
X438150Y59690D02*
X435610Y59690D01*
X435610Y74930D01*
X438150Y74930D01*
X499110Y74930D02*
X501650Y74930D01*
X501650Y59690D01*
X499110Y59690D01*
D17*
X481330Y95250D02*
X481330Y97790D01*
X481330Y95250D02*
X455930Y95250D01*
X455930Y97790D01*
X457200Y39370D02*
X481330Y39370D01*
X457200Y39370D02*
X457200Y36830D01*
X481330Y36830D02*
X481330Y39370D01*
D16*
X481330Y36830D02*
X490220Y36830D01*
X455930Y97790D02*
X447040Y97790D01*
X455930Y97790D02*
X481330Y97790D01*
X490220Y97790D01*
X481330Y36830D02*
X457200Y36830D01*
X447040Y36830D01*
X438150Y57150D02*
X438150Y59690D01*
X438150Y74930D02*
X438150Y77470D01*
X499110Y59690D02*
X499110Y57150D01*
X499110Y74930D02*
X499110Y77470D01*
X450850Y67310D02*
X450855Y67746D01*
X450871Y68182D01*
X450898Y68618D01*
X450936Y69053D01*
X450984Y69486D01*
X451042Y69919D01*
X451112Y70350D01*
X451192Y70779D01*
X451282Y71206D01*
X451383Y71630D01*
X451494Y72052D01*
X451616Y72471D01*
X451747Y72887D01*
X451889Y73300D01*
X452041Y73709D01*
X452203Y74114D01*
X452375Y74515D01*
X452557Y74912D01*
X452748Y75304D01*
X452949Y75691D01*
X453160Y76074D01*
X453380Y76451D01*
X453609Y76822D01*
X453846Y77188D01*
X454093Y77548D01*
X454349Y77902D01*
X454613Y78249D01*
X454886Y78590D01*
X455167Y78923D01*
X455456Y79250D01*
X455753Y79570D01*
X456058Y79882D01*
X456370Y80187D01*
X456690Y80484D01*
X457017Y80773D01*
X457350Y81054D01*
X457691Y81327D01*
X458038Y81591D01*
X458392Y81847D01*
X458752Y82094D01*
X459118Y82331D01*
X459489Y82560D01*
X459866Y82780D01*
X460249Y82991D01*
X460636Y83192D01*
X461028Y83383D01*
X461425Y83565D01*
X461826Y83737D01*
X462231Y83899D01*
X462640Y84051D01*
X463053Y84193D01*
X463469Y84324D01*
X463888Y84446D01*
X464310Y84557D01*
X464734Y84658D01*
X465161Y84748D01*
X465590Y84828D01*
X466021Y84898D01*
X466454Y84956D01*
X466887Y85004D01*
X467322Y85042D01*
X467758Y85069D01*
X468194Y85085D01*
X468630Y85090D01*
X469066Y85085D01*
X469502Y85069D01*
X469938Y85042D01*
X470373Y85004D01*
X470806Y84956D01*
X471239Y84898D01*
X471670Y84828D01*
X472099Y84748D01*
X472526Y84658D01*
X472950Y84557D01*
X473372Y84446D01*
X473791Y84324D01*
X474207Y84193D01*
X474620Y84051D01*
X475029Y83899D01*
X475434Y83737D01*
X475835Y83565D01*
X476232Y83383D01*
X476624Y83192D01*
X477011Y82991D01*
X477394Y82780D01*
X477771Y82560D01*
X478142Y82331D01*
X478508Y82094D01*
X478868Y81847D01*
X479222Y81591D01*
X479569Y81327D01*
X479910Y81054D01*
X480243Y80773D01*
X480570Y80484D01*
X480890Y80187D01*
X481202Y79882D01*
X481507Y79570D01*
X481804Y79250D01*
X482093Y78923D01*
X482374Y78590D01*
X482647Y78249D01*
X482911Y77902D01*
X483167Y77548D01*
X483414Y77188D01*
X483651Y76822D01*
X483880Y76451D01*
X484100Y76074D01*
X484311Y75691D01*
X484512Y75304D01*
X484703Y74912D01*
X484885Y74515D01*
X485057Y74114D01*
X485219Y73709D01*
X485371Y73300D01*
X485513Y72887D01*
X485644Y72471D01*
X485766Y72052D01*
X485877Y71630D01*
X485978Y71206D01*
X486068Y70779D01*
X486148Y70350D01*
X486218Y69919D01*
X486276Y69486D01*
X486324Y69053D01*
X486362Y68618D01*
X486389Y68182D01*
X486405Y67746D01*
X486410Y67310D01*
X486405Y66874D01*
X486389Y66438D01*
X486362Y66002D01*
X486324Y65567D01*
X486276Y65134D01*
X486218Y64701D01*
X486148Y64270D01*
X486068Y63841D01*
X485978Y63414D01*
X485877Y62990D01*
X485766Y62568D01*
X485644Y62149D01*
X485513Y61733D01*
X485371Y61320D01*
X485219Y60911D01*
X485057Y60506D01*
X484885Y60105D01*
X484703Y59708D01*
X484512Y59316D01*
X484311Y58929D01*
X484100Y58546D01*
X483880Y58169D01*
X483651Y57798D01*
X483414Y57432D01*
X483167Y57072D01*
X482911Y56718D01*
X482647Y56371D01*
X482374Y56030D01*
X482093Y55697D01*
X481804Y55370D01*
X481507Y55050D01*
X481202Y54738D01*
X480890Y54433D01*
X480570Y54136D01*
X480243Y53847D01*
X479910Y53566D01*
X479569Y53293D01*
X479222Y53029D01*
X478868Y52773D01*
X478508Y52526D01*
X478142Y52289D01*
X477771Y52060D01*
X477394Y51840D01*
X477011Y51629D01*
X476624Y51428D01*
X476232Y51237D01*
X475835Y51055D01*
X475434Y50883D01*
X475029Y50721D01*
X474620Y50569D01*
X474207Y50427D01*
X473791Y50296D01*
X473372Y50174D01*
X472950Y50063D01*
X472526Y49962D01*
X472099Y49872D01*
X471670Y49792D01*
X471239Y49722D01*
X470806Y49664D01*
X470373Y49616D01*
X469938Y49578D01*
X469502Y49551D01*
X469066Y49535D01*
X468630Y49530D01*
X468194Y49535D01*
X467758Y49551D01*
X467322Y49578D01*
X466887Y49616D01*
X466454Y49664D01*
X466021Y49722D01*
X465590Y49792D01*
X465161Y49872D01*
X464734Y49962D01*
X464310Y50063D01*
X463888Y50174D01*
X463469Y50296D01*
X463053Y50427D01*
X462640Y50569D01*
X462231Y50721D01*
X461826Y50883D01*
X461425Y51055D01*
X461028Y51237D01*
X460636Y51428D01*
X460249Y51629D01*
X459866Y51840D01*
X459489Y52060D01*
X459118Y52289D01*
X458752Y52526D01*
X458392Y52773D01*
X458038Y53029D01*
X457691Y53293D01*
X457350Y53566D01*
X457017Y53847D01*
X456690Y54136D01*
X456370Y54433D01*
X456058Y54738D01*
X455753Y55050D01*
X455456Y55370D01*
X455167Y55697D01*
X454886Y56030D01*
X454613Y56371D01*
X454349Y56718D01*
X454093Y57072D01*
X453846Y57432D01*
X453609Y57798D01*
X453380Y58169D01*
X453160Y58546D01*
X452949Y58929D01*
X452748Y59316D01*
X452557Y59708D01*
X452375Y60105D01*
X452203Y60506D01*
X452041Y60911D01*
X451889Y61320D01*
X451747Y61733D01*
X451616Y62149D01*
X451494Y62568D01*
X451383Y62990D01*
X451282Y63414D01*
X451192Y63841D01*
X451112Y64270D01*
X451042Y64701D01*
X450984Y65134D01*
X450936Y65567D01*
X450898Y66002D01*
X450871Y66438D01*
X450855Y66874D01*
X450850Y67310D01*
X466090Y67310D02*
X466092Y67410D01*
X466098Y67511D01*
X466108Y67610D01*
X466122Y67710D01*
X466139Y67809D01*
X466161Y67907D01*
X466187Y68004D01*
X466216Y68100D01*
X466249Y68194D01*
X466286Y68288D01*
X466326Y68380D01*
X466370Y68470D01*
X466418Y68558D01*
X466469Y68645D01*
X466523Y68729D01*
X466581Y68811D01*
X466642Y68891D01*
X466706Y68968D01*
X466773Y69043D01*
X466843Y69115D01*
X466916Y69184D01*
X466991Y69250D01*
X467069Y69314D01*
X467149Y69374D01*
X467232Y69431D01*
X467317Y69484D01*
X467404Y69534D01*
X467493Y69581D01*
X467583Y69624D01*
X467675Y69664D01*
X467769Y69700D01*
X467864Y69732D01*
X467960Y69760D01*
X468058Y69785D01*
X468156Y69805D01*
X468255Y69822D01*
X468355Y69835D01*
X468454Y69844D01*
X468555Y69849D01*
X468655Y69850D01*
X468755Y69847D01*
X468856Y69840D01*
X468955Y69829D01*
X469055Y69814D01*
X469153Y69796D01*
X469251Y69773D01*
X469348Y69746D01*
X469443Y69716D01*
X469538Y69682D01*
X469631Y69644D01*
X469722Y69603D01*
X469812Y69558D01*
X469900Y69510D01*
X469986Y69458D01*
X470070Y69403D01*
X470151Y69344D01*
X470230Y69282D01*
X470307Y69218D01*
X470381Y69150D01*
X470452Y69079D01*
X470521Y69006D01*
X470586Y68930D01*
X470649Y68851D01*
X470708Y68770D01*
X470764Y68687D01*
X470817Y68602D01*
X470866Y68514D01*
X470912Y68425D01*
X470954Y68334D01*
X470993Y68241D01*
X471028Y68147D01*
X471059Y68052D01*
X471087Y67955D01*
X471110Y67858D01*
X471130Y67759D01*
X471146Y67660D01*
X471158Y67561D01*
X471166Y67460D01*
X471170Y67360D01*
X471170Y67260D01*
X471166Y67160D01*
X471158Y67059D01*
X471146Y66960D01*
X471130Y66861D01*
X471110Y66762D01*
X471087Y66665D01*
X471059Y66568D01*
X471028Y66473D01*
X470993Y66379D01*
X470954Y66286D01*
X470912Y66195D01*
X470866Y66106D01*
X470817Y66018D01*
X470764Y65933D01*
X470708Y65850D01*
X470649Y65769D01*
X470586Y65690D01*
X470521Y65614D01*
X470452Y65541D01*
X470381Y65470D01*
X470307Y65402D01*
X470230Y65338D01*
X470151Y65276D01*
X470070Y65217D01*
X469986Y65162D01*
X469900Y65110D01*
X469812Y65062D01*
X469722Y65017D01*
X469631Y64976D01*
X469538Y64938D01*
X469443Y64904D01*
X469348Y64874D01*
X469251Y64847D01*
X469153Y64824D01*
X469055Y64806D01*
X468955Y64791D01*
X468856Y64780D01*
X468755Y64773D01*
X468655Y64770D01*
X468555Y64771D01*
X468454Y64776D01*
X468355Y64785D01*
X468255Y64798D01*
X468156Y64815D01*
X468058Y64835D01*
X467960Y64860D01*
X467864Y64888D01*
X467769Y64920D01*
X467675Y64956D01*
X467583Y64996D01*
X467493Y65039D01*
X467404Y65086D01*
X467317Y65136D01*
X467232Y65189D01*
X467149Y65246D01*
X467069Y65306D01*
X466991Y65370D01*
X466916Y65436D01*
X466843Y65505D01*
X466773Y65577D01*
X466706Y65652D01*
X466642Y65729D01*
X466581Y65809D01*
X466523Y65891D01*
X466469Y65975D01*
X466418Y66062D01*
X466370Y66150D01*
X466326Y66240D01*
X466286Y66332D01*
X466249Y66426D01*
X466216Y66520D01*
X466187Y66616D01*
X466161Y66713D01*
X466139Y66811D01*
X466122Y66910D01*
X466108Y67010D01*
X466098Y67109D01*
X466092Y67210D01*
X466090Y67310D01*
D11*
X494665Y104775D02*
X494565Y104777D01*
X494466Y104783D01*
X494366Y104793D01*
X494268Y104806D01*
X494169Y104824D01*
X494072Y104845D01*
X493976Y104870D01*
X493880Y104899D01*
X493786Y104932D01*
X493693Y104968D01*
X493602Y105008D01*
X493512Y105052D01*
X493424Y105099D01*
X493338Y105149D01*
X493254Y105203D01*
X493172Y105260D01*
X493093Y105320D01*
X493015Y105384D01*
X492941Y105450D01*
X492869Y105519D01*
X492800Y105591D01*
X492734Y105665D01*
X492670Y105743D01*
X492610Y105822D01*
X492553Y105904D01*
X492499Y105988D01*
X492449Y106074D01*
X492402Y106162D01*
X492358Y106252D01*
X492318Y106343D01*
X492282Y106436D01*
X492249Y106530D01*
X492220Y106626D01*
X492195Y106722D01*
X492174Y106819D01*
X492156Y106918D01*
X492143Y107016D01*
X492133Y107116D01*
X492127Y107215D01*
X492125Y107315D01*
X494665Y104775D02*
X494806Y104777D01*
X494947Y104782D01*
X495088Y104792D01*
X495229Y104805D01*
X495369Y104821D01*
X495509Y104842D01*
X495648Y104866D01*
X495787Y104894D01*
X495924Y104925D01*
X496061Y104960D01*
X496197Y104998D01*
X496332Y105040D01*
X496465Y105086D01*
X496598Y105135D01*
X496729Y105188D01*
X496858Y105244D01*
X496987Y105303D01*
X497113Y105366D01*
X497238Y105432D01*
X497361Y105501D01*
X497482Y105574D01*
X497601Y105650D01*
X497719Y105729D01*
X497834Y105810D01*
X497946Y105895D01*
X498057Y105983D01*
X498165Y106074D01*
X498271Y106167D01*
X498374Y106264D01*
X498475Y106363D01*
X498158Y113665D02*
X498156Y113765D01*
X498150Y113864D01*
X498140Y113964D01*
X498127Y114062D01*
X498109Y114161D01*
X498088Y114258D01*
X498063Y114354D01*
X498034Y114450D01*
X498001Y114544D01*
X497965Y114637D01*
X497925Y114728D01*
X497881Y114818D01*
X497834Y114906D01*
X497784Y114992D01*
X497730Y115076D01*
X497673Y115158D01*
X497613Y115237D01*
X497549Y115315D01*
X497483Y115389D01*
X497414Y115461D01*
X497342Y115530D01*
X497268Y115596D01*
X497190Y115660D01*
X497111Y115720D01*
X497029Y115777D01*
X496945Y115831D01*
X496859Y115881D01*
X496771Y115928D01*
X496681Y115972D01*
X496590Y116012D01*
X496497Y116048D01*
X496403Y116081D01*
X496307Y116110D01*
X496211Y116135D01*
X496114Y116156D01*
X496015Y116174D01*
X495917Y116187D01*
X495817Y116197D01*
X495718Y116203D01*
X495618Y116205D01*
X495618Y116206D02*
X495485Y116204D01*
X495352Y116199D01*
X495219Y116189D01*
X495086Y116176D01*
X494954Y116159D01*
X494822Y116139D01*
X494691Y116115D01*
X494561Y116087D01*
X494431Y116056D01*
X494303Y116021D01*
X494175Y115982D01*
X494049Y115940D01*
X493924Y115894D01*
X493800Y115845D01*
X493677Y115793D01*
X493556Y115737D01*
X493437Y115677D01*
X493319Y115615D01*
X493204Y115549D01*
X493090Y115480D01*
X492978Y115407D01*
X492868Y115332D01*
X492760Y115253D01*
X496888Y111442D02*
X496972Y111494D01*
X497055Y111549D01*
X497135Y111608D01*
X497213Y111669D01*
X497288Y111733D01*
X497361Y111801D01*
X497432Y111871D01*
X497499Y111943D01*
X497564Y112018D01*
X497626Y112096D01*
X497685Y112176D01*
X497741Y112258D01*
X497793Y112342D01*
X497842Y112428D01*
X497888Y112516D01*
X497931Y112606D01*
X497970Y112697D01*
X498005Y112790D01*
X498037Y112884D01*
X498065Y112979D01*
X498090Y113075D01*
X498110Y113172D01*
X498128Y113270D01*
X498141Y113368D01*
X498150Y113467D01*
X498156Y113566D01*
X498158Y113665D01*
X493395Y109538D02*
X493311Y109486D01*
X493228Y109431D01*
X493148Y109372D01*
X493070Y109311D01*
X492995Y109247D01*
X492922Y109179D01*
X492851Y109109D01*
X492784Y109037D01*
X492719Y108962D01*
X492657Y108884D01*
X492598Y108804D01*
X492542Y108722D01*
X492490Y108638D01*
X492441Y108552D01*
X492395Y108464D01*
X492352Y108374D01*
X492313Y108283D01*
X492278Y108190D01*
X492246Y108096D01*
X492218Y108001D01*
X492193Y107905D01*
X492173Y107808D01*
X492155Y107710D01*
X492142Y107612D01*
X492133Y107513D01*
X492127Y107414D01*
X492125Y107315D01*
X493395Y109538D02*
X496888Y111443D01*
X487426Y113665D02*
X484251Y116205D01*
X484251Y104775D01*
X487426Y104775D02*
X481076Y104775D01*
M02*
